<svg width="416" height="416" viewBox="0 0 416 416" fill="none" xmlns="http://www.w3.org/2000/svg">
<path d="M413 208C413 321.218 321.218 413 208 413C94.7816 413 3 321.218 3 208C3 94.7816 94.7816 3 208 3C321.218 3 413 94.7816 413 208Z" fill="white"/>
<path d="M211.417 105.5V208M211.417 208V310.5M211.417 208H105.5M211.417 208H310.5M413 208C413 321.218 321.218 413 208 413C94.7816 413 3 321.218 3 208C3 94.7816 94.7816 3 208 3C321.218 3 413 94.7816 413 208Z" stroke="#FF1369" stroke-width="6" stroke-linecap="round"/>
</svg>
