<svg width="100" height="100" viewBox="0 0 100 100" fill="none" xmlns="http://www.w3.org/2000/svg">
<circle cx="50" cy="50" r="50" fill="#FF1369"/>
<mask id="mask0" mask-type="alpha" maskUnits="userSpaceOnUse" x="0" y="0" width="100" height="100">
<circle cx="50" cy="50" r="50" fill="#C4C4C4"/>
</mask>
<g mask="url(#mask0)">
<path d="M22.4567 81.558C15.4801 86.4827 11.912 95.5797 11 99.5126L90 99.5126C89.088 95.5797 85.5199 86.4827 78.5433 81.558C75.2268 79.217 71.7866 77.7909 68.7965 76.6498C66.4026 78.3091 58.1606 82.584 50.5 82.584C42.8394 82.584 34.5974 78.3091 32.2035 76.6498C29.2134 77.791 25.7732 79.217 22.4567 81.558Z" fill="#242129"/>
<path d="M50.5 63.6031C48.2771 63.6031 45.0281 63.0905 42.9762 61.0386C42.2405 60.3029 41.4766 59.5531 40.7532 58.7247V59.842C42.5202 62.9769 47.2511 69.2467 52.039 69.2467C56.8268 69.2467 59.5058 65.4843 60.2468 63.6031V58.7246C59.5234 59.5531 58.7595 60.3028 58.0238 61.0386C55.9719 63.0905 52.7229 63.6031 50.5 63.6031Z" fill="#242129"/>
<path d="M36.6983 41.7161C36.6772 41.2868 36.6607 40.9408 36.6494 40.6901C36.583 39.2313 38.8723 35.2186 38.8723 28.5497C43.1472 29.8037 53.6463 31.4225 61.4437 27.8658C61.4437 37.7835 64.3506 38.8655 64.3506 40.6901C64.3393 40.9408 64.3228 41.2868 64.3017 41.716C64.6773 40.9072 65.5259 39.5417 66.5736 38.8655C66.4026 37.4789 66.0606 34.7056 66.5736 30.2597C67.0866 25.8138 63.8229 15.4553 58.0238 15.0411C50.842 14.5281 47.9351 18.974 45.3701 19.658C42.8052 20.342 37.6577 21.7182 35.4524 25.8138C33.0584 30.2597 35.5555 36.7466 34.9055 39.2313C35.7296 39.9579 36.3819 41.0346 36.6983 41.7161Z" fill="#242129"/>
<path d="M52.5519 35.5606C54.4899 35.1046 58.8446 34.9108 60.7597 37.7835C59.7338 37.1565 56.6558 35.8342 52.5519 35.5606Z" fill="#242129"/>
<path d="M47.5931 35.5606C45.6551 35.1046 41.3004 34.9108 39.3853 37.7835C40.4113 37.1565 43.4892 35.8342 47.5931 35.5606Z" fill="#242129"/>
<path d="M58.5368 40.5194C58.5368 41.4638 57.7712 42.2294 56.8268 42.2294C55.8825 42.2294 55.1169 41.4638 55.1169 40.5194C55.1169 39.5751 55.8825 38.8095 56.8268 38.8095C57.7712 38.8095 58.5368 39.5751 58.5368 40.5194Z" fill="#242129"/>
<path d="M45.1991 40.5194C45.1991 41.4638 44.4336 42.2294 43.4892 42.2294C42.5448 42.2294 41.7792 41.4638 41.7792 40.5194C41.7792 39.5751 42.5448 38.8095 43.4892 38.8095C44.4336 38.8095 45.1991 39.5751 45.1991 40.5194Z" fill="#242129"/>
<path d="M40.7532 70.6143C40.7532 73.6873 37.0759 74.7903 32.2035 76.6498M40.7532 70.6143V59.842M40.7532 70.6143C40.7532 68.0837 40.7532 63.0003 40.7532 59.842M37.1623 50.0949C37.4062 54.1191 38.9547 56.665 40.7532 58.7247M37.1623 50.0949C34.2554 50.9498 31.6905 47.017 31.0065 44.452C30.3225 41.8871 31.0065 38.6381 33.0584 38.4671C33.7187 38.4121 34.351 38.7425 34.9055 39.2313M37.1623 50.0949C37.06 48.4071 36.9705 46.842 36.8955 45.4783M40.7532 58.7247C41.4766 59.5531 42.2405 60.3029 42.9762 61.0386C45.0281 63.0905 48.2771 63.6031 50.5 63.6031C52.7229 63.6031 55.9719 63.0905 58.0238 61.0386C58.7595 60.3028 59.5234 59.5531 60.2468 58.7246M40.7532 58.7247V59.842M40.7532 58.7247C40.7532 59.0586 40.7532 59.4342 40.7532 59.842M32.2035 76.6498C29.2134 77.791 25.7732 79.217 22.4567 81.558C15.4801 86.4827 11.912 95.5797 11 99.5126L90 99.5126C89.088 95.5797 85.5199 86.4827 78.5433 81.558C75.2268 79.217 71.7866 77.7909 68.7965 76.6498M32.2035 76.6498C34.5974 78.3091 42.8394 82.584 50.5 82.584C58.1606 82.584 66.4026 78.3091 68.7965 76.6498M36.6983 41.7161C36.6772 41.2868 36.6607 40.9408 36.6494 40.6901C36.583 39.2313 38.8723 35.2186 38.8723 28.5497C43.1472 29.8037 53.6463 31.4225 61.4437 27.8658C61.4437 37.7835 64.3506 38.8655 64.3506 40.6901C64.3393 40.9408 64.3228 41.2868 64.3017 41.716M36.6983 41.7161C36.3819 41.0346 35.7296 39.9579 34.9055 39.2313M36.6983 41.7161C36.7434 42.6309 36.81 43.9238 36.8955 45.4783M60.2468 70.6143C60.2468 73.6873 63.9241 74.7903 68.7965 76.6498M60.2468 70.6143V63.6031M60.2468 70.6143C60.2468 68.9544 60.2468 66.196 60.2468 63.6031M63.8377 50.0948C63.5938 54.1191 62.0453 56.6649 60.2468 58.7246M63.8377 50.0948C64.0565 46.4832 64.2171 43.4334 64.3017 41.716M63.8377 50.0948C66.7446 50.9498 69.3095 47.0169 69.9935 44.452C70.6775 41.8871 69.9935 38.6381 67.9416 38.4671C67.4647 38.4274 67.0025 38.5887 66.5736 38.8655M60.2468 58.7246V63.6031M60.2468 58.7246C60.2468 59.9485 60.2468 61.7328 60.2468 63.6031M64.3017 41.716C64.6773 40.9072 65.5259 39.5417 66.5736 38.8655M40.7532 59.842C42.5202 62.9769 47.2511 69.2467 52.039 69.2467C56.8268 69.2467 59.5058 65.4843 60.2468 63.6031M66.5736 38.8655C66.4026 37.4789 66.0606 34.7056 66.5736 30.2597C67.0866 25.8138 63.8229 15.4553 58.0238 15.0411C50.842 14.5281 47.9351 18.974 45.3701 19.658C42.8052 20.342 37.6577 21.7182 35.4524 25.8138C33.0584 30.2597 35.5555 36.7466 34.9055 39.2313M49.303 41.7161V46.8463C49.303 47.7013 49.4398 49.0692 50.671 49.0692C51.9022 49.0692 52.5519 48.5562 52.5519 47.7013M46.0541 51.1212C46.5101 51.6342 48.0377 52.6601 50.5 52.6601C52.9623 52.6601 54.3759 51.8622 54.7749 51.4632M36.8955 45.4783C36.5949 44.9085 35.8796 43.9158 34.8178 43.0844M32.5455 41.8874C33.4179 42.144 34.1803 42.5851 34.8178 43.0844M34.8178 43.0844C34.1174 43.5404 32.99 44.8285 34.0844 46.3333M64.057 46.3333C64.3576 45.7635 65.073 44.7708 66.1347 43.9393M68.4071 42.7424C67.5346 42.999 66.7722 43.4401 66.1347 43.9393M66.1347 43.9393C66.8352 44.3953 67.9625 45.6835 66.8681 47.1883M52.5519 35.5606C54.4899 35.1046 58.8446 34.9108 60.7597 37.7835C59.7338 37.1565 56.6558 35.8342 52.5519 35.5606ZM47.5931 35.5606C45.6551 35.1046 41.3004 34.9108 39.3853 37.7835C40.4113 37.1565 43.4892 35.8342 47.5931 35.5606ZM58.5368 40.5194C58.5368 41.4638 57.7712 42.2294 56.8268 42.2294C55.8825 42.2294 55.1169 41.4638 55.1169 40.5194C55.1169 39.5751 55.8825 38.8095 56.8268 38.8095C57.7712 38.8095 58.5368 39.5751 58.5368 40.5194ZM45.1991 40.5194C45.1991 41.4638 44.4336 42.2294 43.4892 42.2294C42.5448 42.2294 41.7792 41.4638 41.7792 40.5194C41.7792 39.5751 42.5448 38.8095 43.4892 38.8095C44.4336 38.8095 45.1991 39.5751 45.1991 40.5194Z" stroke="#242129" stroke-width="0.5" stroke-linecap="round" stroke-linejoin="round"/>
<path d="M54.4329 42.2295C55.1169 42.8565 56.4848 43.8984 57.8528 44.5823M46.0541 42.2295C45.3701 42.8565 43.8312 43.8984 42.4632 44.5823" stroke="black" stroke-opacity="0.75" stroke-width="0.5" stroke-linecap="round" stroke-linejoin="round"/>
</g>
</svg>
