<svg width="224" height="224" viewBox="0 0 224 224" fill="none" xmlns="http://www.w3.org/2000/svg">
<circle cx="112" cy="112" r="112" fill="#FF1369"/>
<mask id="mask0" mask-type="alpha" maskUnits="userSpaceOnUse" x="0" y="0" width="224" height="224">
<circle cx="112" cy="112" r="112" fill="#C4C4C4"/>
</mask>
<g mask="url(#mask0)">
<path d="M143.989 92.7152C144.546 91.595 145.61 89.9434 147.013 88.5875C147.013 86.5395 147.239 81.6064 148.143 78.2577C149.273 74.0718 149.273 67.9832 148.143 64.9389C151.909 60.3725 157.181 49.1847 148.143 40.9652C136.845 30.6907 115.756 37.9209 102.199 44.7705C101.445 44.0097 102.199 37.9211 97.3029 39.0628C92.4072 40.2044 82.2392 46.2929 83.369 57.3285C81.2349 59.2311 76.9669 64.3303 76.9669 69.5056C76.9669 75.9747 79.603 85.2168 79.603 88.9655C80.8201 90.2402 81.7451 91.6964 82.2504 92.7142C82.2213 89.8089 84.8753 82.3677 86.3817 79.019C87.8881 75.6703 88.0136 66.2076 87.8881 62.2754C98.1817 67.0956 122.836 76.0508 139.105 70.2667C139.23 72.9304 139.331 76.7358 140.235 79.7801C141.138 82.8244 144.005 91.1962 143.989 92.7152Z" fill="#242129"/>
<path fill-rule="evenodd" clip-rule="evenodd" d="M56.2542 179.857C40.2866 188.685 30.0182 212.963 26.8799 223.999H199.36C196.221 212.963 185.953 188.686 169.986 179.858C163.599 176.327 157.713 174.042 152.662 172.244C147.892 176.177 133.305 184.043 113.12 184.043C92.9344 184.043 78.3477 176.176 73.5775 172.243C68.5265 174.041 62.641 176.326 56.2542 179.857Z" fill="#242129"/>
<path d="M117.262 77.4966C121.782 76.3366 131.95 75.4738 136.469 81.302C134.084 80.0335 126.903 77.4966 117.262 77.4966Z" fill="#242129"/>
<path d="M108.977 77.4966C104.458 76.3366 94.2902 75.4738 89.7711 81.302C92.1562 80.0335 99.3365 77.4966 108.977 77.4966Z" fill="#242129"/>
<path d="M113.12 142.945C108.977 142.945 103.705 142.336 98.8093 138.379C96.0386 136.139 93.4717 133.95 91.2774 131.624L92.0306 136.302C95.2944 143.151 104.232 155.126 116.886 155.126C126.267 155.126 131.26 149.967 133.522 145.386C133.598 142.624 133.829 139.602 134.209 136.303L134.962 131.625C132.768 133.951 130.201 136.14 127.43 138.38C122.535 142.337 117.262 142.945 113.12 142.945Z" fill="#242129"/>
<path d="M101.445 91.0178C101.445 92.9093 99.928 94.4426 98.0561 94.4426C96.1842 94.4426 94.6668 92.9093 94.6668 91.0178C94.6668 89.1263 96.1842 87.593 98.0561 87.593C99.928 87.593 101.445 89.1263 101.445 91.0178Z" fill="#242129"/>
<path d="M130.82 91.0178C130.82 92.9093 129.302 94.4426 127.43 94.4426C125.559 94.4426 124.041 92.9093 124.041 91.0178C124.041 89.1263 125.559 87.593 127.43 87.593C129.302 87.593 130.82 89.1263 130.82 91.0178Z" fill="#242129"/>
<path d="M91.2774 131.624C93.4717 133.95 96.0386 136.139 98.8093 138.379C103.705 142.336 108.977 142.945 113.12 142.945C117.262 142.945 122.535 142.337 127.43 138.38C130.201 136.14 132.768 133.951 134.962 131.625M91.2774 131.624C87.5068 127.627 84.8363 123.222 84.1222 117.449C83.8592 115.323 83.6166 113.321 83.3991 111.361M91.2774 131.624C91.4791 132.877 91.8468 135.16 92.0306 136.302M91.2774 131.624L92.0306 136.302M82.2504 92.7142C82.3233 100.009 82.7487 105.496 83.3991 111.361M82.2504 92.7142C81.7451 91.6964 80.8201 90.2402 79.603 88.9655M82.2504 92.7142C82.2213 89.8089 84.8753 82.3677 86.3817 79.019C87.8881 75.6703 88.0136 66.2076 87.8881 62.2754C98.1817 67.0956 122.836 76.0508 139.105 70.2667C139.23 72.9304 139.331 76.7358 140.235 79.7801C141.138 82.8244 144.005 91.1962 143.989 92.7152M83.3991 111.361C83.3891 111.995 82.7664 113.263 80.3562 113.263C77.3435 113.263 70.5648 104.511 69.8116 99.5639C69.0584 94.617 69.0584 86.6256 73.9541 86.2451C76.1249 86.0763 78.0897 87.3805 79.603 88.9655M81.8626 169.304C84.6243 171.553 94.7421 176.814 113.12 176.814C131.498 176.814 141.615 171.555 144.377 169.305M81.8626 169.304C80.342 169.884 78.6636 170.467 76.8469 171.098C75.8016 171.461 74.7106 171.84 73.5775 172.243M81.8626 169.304C91.2774 165.714 94.2902 155.911 92.0306 136.302M73.5775 172.243C68.5265 174.041 62.641 176.326 56.2542 179.857C40.2866 188.685 30.0182 212.963 26.8799 223.999H199.36M73.5775 172.243C78.3477 176.176 92.9345 184.043 113.12 184.043C133.305 184.043 147.892 176.177 152.662 172.244M199.36 224L199.36 223.999M134.962 131.625C138.733 127.628 141.403 123.223 142.118 117.45C142.381 115.324 142.623 113.322 142.841 111.362M134.962 131.625L134.209 136.303C133.829 139.602 133.598 142.624 133.522 145.386M143.989 92.7152C143.916 100.01 143.491 105.498 142.841 111.362M143.989 92.7152C144.546 91.595 145.61 89.9434 147.013 88.5875M142.841 111.362C142.851 111.996 143.473 113.264 145.884 113.264C148.896 113.264 155.675 104.512 156.428 99.565C157.181 94.6181 157.181 86.6267 152.286 86.2461C150.291 86.0911 148.47 87.1799 147.013 88.5875M144.377 169.305C145.898 169.885 147.576 170.468 149.393 171.099C150.438 171.462 151.529 171.841 152.662 172.244M144.377 169.305C136.547 166.319 133.145 159.035 133.522 145.386M152.662 172.244C157.713 174.042 163.599 176.327 169.986 179.858C185.953 188.686 196.221 212.963 199.36 223.999M147.013 88.5875C147.013 86.5395 147.239 81.6064 148.143 78.2577C149.273 74.0718 149.273 67.9832 148.143 64.9389C151.909 60.3725 157.181 49.1847 148.143 40.9652C136.845 30.6907 115.756 37.9209 102.199 44.7705C101.445 44.0097 102.199 37.9211 97.3029 39.0628C92.4072 40.2044 82.2392 46.2929 83.369 57.3285C81.2349 59.2311 76.9669 64.3303 76.9669 69.5056C76.9669 75.9747 79.603 85.2168 79.603 88.9655M92.0306 136.302C95.2944 143.151 104.232 155.126 116.886 155.126C126.267 155.126 131.26 149.967 133.522 145.386M98.0561 114.789C103.454 116.819 117.036 119.66 128.184 114.789M110.86 99.9485V103.373C110.86 105.276 111.162 109.081 113.873 109.081C116.585 109.081 116.886 107.559 116.886 106.798M117.262 77.4966C121.782 76.3366 131.95 75.4738 136.469 81.302C134.084 80.0335 126.903 77.4966 117.262 77.4966ZM108.977 77.4966C104.458 76.3366 94.2902 75.4738 89.7711 81.302C92.1562 80.0335 99.3365 77.4966 108.977 77.4966ZM101.445 91.0178C101.445 92.9093 99.928 94.4426 98.0561 94.4426C96.1842 94.4426 94.6668 92.9093 94.6668 91.0178C94.6668 89.1263 96.1842 87.593 98.0561 87.593C99.928 87.593 101.445 89.1263 101.445 91.0178ZM130.82 91.0178C130.82 92.9093 129.302 94.4426 127.43 94.4426C125.559 94.4426 124.041 92.9093 124.041 91.0178C124.041 89.1263 125.559 87.593 127.43 87.593C129.302 87.593 130.82 89.1263 130.82 91.0178Z" stroke="#242129" stroke-width="2" stroke-linecap="round" stroke-linejoin="round"/>
</g>
</svg>
