<svg width="100" height="100" viewBox="0 0 100 100" fill="none" xmlns="http://www.w3.org/2000/svg">
<circle cx="50" cy="50" r="50" fill="#FF1369"/>
<mask id="mask0" mask-type="alpha" maskUnits="userSpaceOnUse" x="0" y="0" width="100" height="100">
<circle cx="50" cy="50" r="50" fill="#C4C4C4"/>
</mask>
<g mask="url(#mask0)">
<path d="M23.3023 57.1559C23.3023 57.7082 23.75 58.1559 24.3023 58.1559H41.4186V52.9848V52.0076C40.1094 50.7848 38.9539 49.4188 37.9225 48.1369C37.2437 47.2932 36.7345 46.0306 36.3569 44.5817C33.52 45.2281 31.5659 41.673 30.9302 39.7338C30.2946 37.7947 30.2946 34.8859 31.5659 33.5932C32.5829 32.5589 34.5216 34.2395 35.3638 35.2091C35.3648 34.9428 35.3683 34.6909 35.3739 34.4559C35.3774 34.3133 35.4118 34.1752 35.4737 34.0467C36.9701 30.9412 38.6974 25.903 39.6934 22.7712C39.9121 22.0837 40.7719 21.8262 41.3708 22.2283C44.7371 24.4887 51.8075 27.5529 61.0364 26.8672C61.4671 26.8352 61.8759 27.0739 62.0573 27.4659C62.5634 28.5595 63.3648 30.1675 63.9845 31.0076C64.7473 32.0418 65.1499 33.5932 65.2558 34.2395C65.2649 34.5342 65.2705 34.8593 65.2719 35.2091C65.6903 34.8859 66.7814 34.1103 67.7984 33.5932C69.0698 32.9468 70.6589 34.8859 70.6589 35.8555C70.6589 36.8251 70.6589 39.7338 69.7054 41.0266C68.7519 42.3194 66.845 46.0153 64.3023 44.4905C63.9224 45.9775 63.4062 47.2756 62.7132 48.1369C61.5744 49.5522 60.1838 51.07 58.5814 52.3843V55.8935V58.1559H77.3333V45.2281C77.3333 39.7338 75.4264 38.4411 72.2481 34.2395C69.0698 30.038 68.7519 22.2814 65.5736 17.1103C62.3954 11.9392 57.9457 10 51.2713 10C46.5039 10 38.876 11.616 35.3798 17.7567C31.8837 23.8973 32.2016 31.654 27.4341 36.5019C23.3023 40.7034 23.3023 44.9049 23.3023 47.4905V57.1559Z" fill="#242129"/>
<path d="M50 55.8935C46.5452 55.8935 43.7401 54.1758 41.4186 52.0076V52.9848C42.9018 55.6781 46.8853 61.1293 50.9535 61.3878C55.0217 61.6464 57.7339 57.8327 58.5814 55.8935V52.3843C56.1588 54.3714 53.2521 55.8935 50 55.8935Z" fill="#242129"/>
<path d="M57.6279 28.0989C56.7453 28.0989 55.7412 28.0989 54.803 28.3269C54.3227 28.4436 54.4756 28.9306 54.9689 28.9006V28.9006C56.9724 28.7786 58.7165 28.8903 59.9898 29.0582V29.0582C60.4794 29.1228 60.6947 28.6337 60.2275 28.4737C59.4395 28.2039 58.5337 28.0989 57.6279 28.0989Z" fill="#242129"/>
<path d="M45.6667 28.9006C46.16 28.9306 46.3129 28.4436 45.8327 28.3269C44.8944 28.0989 43.8904 28.0989 43.0078 28.0989C42.102 28.0989 41.1962 28.2039 40.4081 28.4737C39.9409 28.6337 40.1563 29.1228 40.6459 29.0582V29.0582C41.9192 28.8903 43.6633 28.7786 45.6667 28.9006V28.9006Z" fill="#242129"/>
<path d="M58.8992 34.5627C58.8992 35.4552 58.1877 36.1787 57.3101 36.1787C56.4324 36.1787 55.7209 35.4552 55.7209 34.5627C55.7209 33.6703 56.4324 32.9468 57.3101 32.9468C58.1877 32.9468 58.8992 33.6703 58.8992 34.5627Z" fill="#242129"/>
<path d="M44.9147 34.6972C44.9147 35.5897 44.2032 36.3132 43.3256 36.3132C42.4479 36.3132 41.7364 35.5897 41.7364 34.6972C41.7364 33.8047 42.4479 33.0812 43.3256 33.0812C44.2032 33.0812 44.9147 33.8047 44.9147 34.6972Z" fill="#242129"/>
<path d="M50 73.9924C46.186 73.9924 42.6899 72.0532 41.4186 71.0836V75.9316C42.584 76.6857 45.9318 78.1939 50 78.1939C54.0682 78.1939 57.416 76.6857 58.5814 75.9316V71.0836C57.3101 72.0532 53.814 73.9924 50 73.9924Z" fill="#242129"/>
<path d="M8.76103 101.927C8.72047 102.059 8.79458 102.198 8.92656 102.239C9.05854 102.28 9.19841 102.205 9.23897 102.073L8.76103 101.927ZM18.8527 79.4867L18.6996 79.2891L18.6996 79.2891L18.8527 79.4867ZM23.3023 47.4905L23.5523 47.4905L23.3023 47.4905ZM27.4341 36.5019L27.2559 36.3266L27.4341 36.5019ZM77.3333 58.1559V58.4059C77.4714 58.4059 77.5833 58.294 77.5833 58.1559H77.3333ZM90.761 102.073C90.8016 102.205 90.9415 102.28 91.0734 102.239C91.2054 102.198 91.2795 102.059 91.239 101.927L90.761 102.073ZM81.1473 79.4867L81.3004 79.2891L81.3004 79.2891L81.1473 79.4867ZM37.9225 48.1369L38.1173 47.9802L38.1173 47.9802L37.9225 48.1369ZM65.2558 34.2395L65.5057 34.2319C65.5054 34.2209 65.5043 34.2099 65.5025 34.1991L65.2558 34.2395ZM62.7132 48.1369L62.908 48.2936L62.908 48.2936L62.7132 48.1369ZM41.4186 52.0076L41.5892 51.8249L41.5892 51.8249L41.4186 52.0076ZM63.9845 31.0076L64.1857 30.8592L63.9845 31.0076ZM35.3638 35.2091L35.6138 35.2101L35.3638 35.2091ZM31.5659 33.5932L31.7441 33.7684L31.5659 33.5932ZM36.3569 44.5817L36.5988 44.5187L36.5988 44.5187L36.3569 44.5817ZM65.2719 35.2091L65.0219 35.2101L65.2719 35.2091ZM67.7984 33.5932L67.6851 33.3703L67.7984 33.5932ZM41.1686 102C41.1686 102.138 41.2805 102.25 41.4186 102.25C41.5567 102.25 41.6686 102.138 41.6686 102H41.1686ZM58.3314 102C58.3314 102.138 58.4433 102.25 58.5814 102.25C58.7195 102.25 58.8314 102.138 58.8314 102H58.3314ZM64.689 101.978C64.6767 102.115 64.7782 102.237 64.9157 102.249C65.0532 102.261 65.1747 102.16 65.187 102.022L64.689 101.978ZM34.813 102.022C34.8253 102.16 34.9468 102.261 35.0843 102.249C35.2218 102.237 35.3233 102.115 35.311 101.978L34.813 102.022ZM31.8468 36.901C31.7103 36.9214 31.6161 37.0486 31.6365 37.1852C31.6568 37.3218 31.7841 37.4159 31.9206 37.3955L31.8468 36.901ZM33.6124 41.5251C33.7093 41.6235 33.8675 41.6249 33.966 41.5281C34.0644 41.4312 34.0658 41.273 33.9689 41.1745L33.6124 41.5251ZM65.1507 38.7643L64.9013 38.7466L65.1507 38.7643ZM68.9295 37.3552C69.0438 37.4327 69.1992 37.4029 69.2767 37.2886C69.3542 37.1743 69.3243 37.0188 69.2101 36.9414L68.9295 37.3552ZM67.2653 40.8996C67.1951 41.0185 67.2347 41.1718 67.3536 41.2419C67.4725 41.3121 67.6258 41.2726 67.6959 41.1537L67.2653 40.8996ZM40.6459 29.0582L40.6132 28.8104L40.5711 28.8159L40.5333 28.835L40.6459 29.0582ZM54.9689 28.9006L54.9537 28.651L54.9104 28.6537L54.8706 28.6708L54.9689 28.9006ZM44.4132 43.7244C44.2966 43.6503 44.1421 43.6847 44.0681 43.8013C43.994 43.9178 44.0284 44.0723 44.145 44.1464L44.4132 43.7244ZM56.1617 44.153C56.2819 44.0851 56.3243 43.9326 56.2564 43.8124C56.1885 43.6922 56.036 43.6498 55.9158 43.7177L56.1617 44.153ZM50.2326 36.5934C50.2832 36.4649 50.22 36.3198 50.0915 36.2693C49.963 36.2187 49.8179 36.2819 49.7674 36.4104L50.2326 36.5934ZM52.4492 41.1369C52.5101 41.013 52.459 40.8632 52.3351 40.8023C52.2112 40.7413 52.0614 40.7924 52.0005 40.9163L52.4492 41.1369ZM60.2275 28.4737L60.3085 28.2372L60.2275 28.4737ZM54.803 28.3269L54.744 28.084L54.803 28.3269ZM31.9512 80.9623L32.1483 81.116L31.9512 80.9623ZM31.6034 82.7395L31.362 82.8047L31.6034 82.7395ZM68.0488 80.9623L68.2459 80.8085L68.0488 80.9623ZM68.3966 82.7395L68.638 82.8047L68.3966 82.7395ZM61.0364 26.8672L61.0179 26.6179L61.0364 26.8672ZM62.0573 27.4659L62.2842 27.3609L62.0573 27.4659ZM45.8327 28.3269L45.7736 28.5698L45.8327 28.3269ZM35.3739 34.4559L35.6239 34.4618L35.3739 34.4559ZM39.6934 22.7712L39.4552 22.6955L39.6934 22.7712ZM41.3708 22.2283L41.2314 22.4359L41.3708 22.2283ZM9.23897 102.073C9.77567 100.327 10.8949 95.7621 12.5569 91.0856C13.3863 88.7517 14.3469 86.4029 15.4299 84.383C16.5153 82.3586 17.7123 80.6865 19.0058 79.6843L18.6996 79.2891C17.3233 80.3554 16.0863 82.1007 14.9893 84.1467C13.8898 86.1973 12.9196 88.5718 12.0858 90.9182C10.4211 95.6023 9.28376 100.226 8.76103 101.927L9.23897 102.073ZM19.0058 79.6843C22.3233 77.114 27.384 74.4603 31.9253 71.9488C34.1898 70.6964 36.3238 69.4799 38.0321 68.3319C39.7297 67.1912 41.0472 66.0927 41.6355 65.0674L41.2018 64.8186C40.6776 65.7323 39.4525 66.7751 37.7532 67.9169C36.0648 69.0515 33.9478 70.2589 31.6833 71.5113C27.1664 74.0093 22.0565 76.6882 18.6996 79.2891L19.0058 79.6843ZM41.6686 64.943V58.1559H41.1686V64.943H41.6686ZM41.4186 57.9059H24.3023V58.4059H41.4186V57.9059ZM23.5523 57.1559V47.4905H23.0523V57.1559H23.5523ZM23.5523 47.4905C23.5523 44.9197 23.5529 40.8052 27.6124 36.6772L27.2559 36.3266C23.0518 40.6016 23.0523 44.8902 23.0523 47.4905L23.5523 47.4905ZM27.6124 36.6772C30.044 34.2045 31.1698 30.9983 32.124 27.6832C33.0831 24.3509 33.868 20.9173 35.5971 17.8803L35.1626 17.633C33.3955 20.7366 32.5913 24.2517 31.6435 27.5449C30.6907 30.8553 29.5917 33.9514 27.2559 36.3266L27.6124 36.6772ZM35.5971 17.8803C39.0243 11.8607 46.5299 10.25 51.2713 10.25V9.75C46.4778 9.75 38.7276 11.3712 35.1626 17.633L35.5971 17.8803ZM58.5814 58.4059H77.3333V57.9059H58.5814V58.4059ZM77.5833 58.1559C77.5833 58.1511 77.5833 58.1462 77.5833 58.1413C77.5833 58.1365 77.5833 58.1316 77.5833 58.1267C77.5833 58.1218 77.5833 58.1169 77.5833 58.112C77.5833 58.107 77.5833 58.1021 77.5833 58.0972C77.5833 58.0922 77.5833 58.0873 77.5833 58.0823C77.5833 58.0773 77.5833 58.0723 77.5833 58.0673C77.5833 58.0623 77.5833 58.0573 77.5833 58.0523C77.5833 58.0472 77.5833 58.0422 77.5833 58.0371C77.5833 58.0321 77.5833 58.027 77.5833 58.0219C77.5833 58.0169 77.5833 58.0118 77.5833 58.0067C77.5833 58.0015 77.5833 57.9964 77.5833 57.9913C77.5833 57.9862 77.5833 57.981 77.5833 57.9758C77.5833 57.9707 77.5833 57.9655 77.5833 57.9603C77.5833 57.9551 77.5833 57.9499 77.5833 57.9447C77.5833 57.9395 77.5833 57.9343 77.5833 57.929C77.5833 57.9238 77.5833 57.9185 77.5833 57.9133C77.5833 57.908 77.5833 57.9027 77.5833 57.8974C77.5833 57.8921 77.5833 57.8868 77.5833 57.8815C77.5833 57.8762 77.5833 57.8709 77.5833 57.8655C77.5833 57.8602 77.5833 57.8548 77.5833 57.8495C77.5833 57.8441 77.5833 57.8387 77.5833 57.8333C77.5833 57.8279 77.5833 57.8225 77.5833 57.8171C77.5833 57.8117 77.5833 57.8062 77.5833 57.8008C77.5833 57.7953 77.5833 57.7899 77.5833 57.7844C77.5833 57.7789 77.5833 57.7735 77.5833 57.768C77.5833 57.7625 77.5833 57.7569 77.5833 57.7514C77.5833 57.7459 77.5833 57.7404 77.5833 57.7348C77.5833 57.7293 77.5833 57.7237 77.5833 57.7181C77.5833 57.7126 77.5833 57.707 77.5833 57.7014C77.5833 57.6958 77.5833 57.6902 77.5833 57.6846C77.5833 57.6789 77.5833 57.6733 77.5833 57.6676C77.5833 57.662 77.5833 57.6563 77.5833 57.6507C77.5833 57.645 77.5833 57.6393 77.5833 57.6336C77.5833 57.6279 77.5833 57.6222 77.5833 57.6165C77.5833 57.6108 77.5833 57.605 77.5833 57.5993C77.5833 57.5935 77.5833 57.5878 77.5833 57.582C77.5833 57.5762 77.5833 57.5704 77.5833 57.5646C77.5833 57.5589 77.5833 57.553 77.5833 57.5472C77.5833 57.5414 77.5833 57.5356 77.5833 57.5297C77.5833 57.5239 77.5833 57.518 77.5833 57.5122C77.5833 57.5063 77.5833 57.5004 77.5833 57.4945C77.5833 57.4886 77.5833 57.4827 77.5833 57.4768C77.5833 57.4709 77.5833 57.465 77.5833 57.459C77.5833 57.4531 77.5833 57.4471 77.5833 57.4412C77.5833 57.4352 77.5833 57.4292 77.5833 57.4232C77.5833 57.4172 77.5833 57.4112 77.5833 57.4052C77.5833 57.3992 77.5833 57.3932 77.5833 57.3872C77.5833 57.3811 77.5833 57.3751 77.5833 57.369C77.5833 57.363 77.5833 57.3569 77.5833 57.3508C77.5833 57.3447 77.5833 57.3386 77.5833 57.3325C77.5833 57.3264 77.5833 57.3203 77.5833 57.3142C77.5833 57.308 77.5833 57.3019 77.5833 57.2957C77.5833 57.2896 77.5833 57.2834 77.5833 57.2772C77.5833 57.2711 77.5833 57.2649 77.5833 57.2587C77.5833 57.2525 77.5833 57.2463 77.5833 57.24C77.5833 57.2338 77.5833 57.2276 77.5833 57.2213C77.5833 57.2151 77.5833 57.2088 77.5833 57.2026C77.5833 57.1963 77.5833 57.19 77.5833 57.1837C77.5833 57.1774 77.5833 57.1711 77.5833 57.1648C77.5833 57.1585 77.5833 57.1522 77.5833 57.1459C77.5833 57.1395 77.5833 57.1332 77.5833 57.1268C77.5833 57.1205 77.5833 57.1141 77.5833 57.1077C77.5833 57.1013 77.5833 57.0949 77.5833 57.0885C77.5833 57.0821 77.5833 57.0757 77.5833 57.0693C77.5833 57.0629 77.5833 57.0564 77.5833 57.05C77.5833 57.0435 77.5833 57.0371 77.5833 57.0306C77.5833 57.0241 77.5833 57.0176 77.5833 57.0111C77.5833 57.0047 77.5833 56.9981 77.5833 56.9916C77.5833 56.9851 77.5833 56.9786 77.5833 56.9721C77.5833 56.9655 77.5833 56.959 77.5833 56.9524C77.5833 56.9459 77.5833 56.9393 77.5833 56.9327C77.5833 56.9261 77.5833 56.9195 77.5833 56.9129C77.5833 56.9063 77.5833 56.8997 77.5833 56.8931C77.5833 56.8865 77.5833 56.8798 77.5833 56.8732C77.5833 56.8665 77.5833 56.8599 77.5833 56.8532C77.5833 56.8466 77.5833 56.8399 77.5833 56.8332C77.5833 56.8265 77.5833 56.8198 77.5833 56.8131C77.5833 56.8064 77.5833 56.7997 77.5833 56.7929C77.5833 56.7862 77.5833 56.7795 77.5833 56.7727C77.5833 56.766 77.5833 56.7592 77.5833 56.7524C77.5833 56.7456 77.5833 56.7389 77.5833 56.7321C77.5833 56.7253 77.5833 56.7185 77.5833 56.7117C77.5833 56.7048 77.5833 56.698 77.5833 56.6912C77.5833 56.6843 77.5833 56.6775 77.5833 56.6706C77.5833 56.6638 77.5833 56.6569 77.5833 56.65C77.5833 56.6432 77.5833 56.6363 77.5833 56.6294C77.5833 56.6225 77.5833 56.6156 77.5833 56.6087C77.5833 56.6017 77.5833 56.5948 77.5833 56.5879C77.5833 56.5809 77.5833 56.574 77.5833 56.567C77.5833 56.5601 77.5833 56.5531 77.5833 56.5461C77.5833 56.5391 77.5833 56.5321 77.5833 56.5252C77.5833 56.5182 77.5833 56.5111 77.5833 56.5041C77.5833 56.4971 77.5833 56.4901 77.5833 56.483C77.5833 56.476 77.5833 56.4689 77.5833 56.4619C77.5833 56.4548 77.5833 56.4478 77.5833 56.4407C77.5833 56.4336 77.5833 56.4265 77.5833 56.4194C77.5833 56.4123 77.5833 56.4052 77.5833 56.3981C77.5833 56.391 77.5833 56.3838 77.5833 56.3767C77.5833 56.3695 77.5833 56.3624 77.5833 56.3552C77.5833 56.3481 77.5833 56.3409 77.5833 56.3337C77.5833 56.3266 77.5833 56.3194 77.5833 56.3122C77.5833 56.305 77.5833 56.2978 77.5833 56.2905C77.5833 56.2833 77.5833 56.2761 77.5833 56.2689C77.5833 56.2616 77.5833 56.2544 77.5833 56.2471C77.5833 56.2399 77.5833 56.2326 77.5833 56.2253C77.5833 56.2181 77.5833 56.2108 77.5833 56.2035C77.5833 56.1962 77.5833 56.1889 77.5833 56.1816C77.5833 56.1743 77.5833 56.1669 77.5833 56.1596C77.5833 56.1523 77.5833 56.1449 77.5833 56.1376C77.5833 56.1302 77.5833 56.1229 77.5833 56.1155C77.5833 56.1081 77.5833 56.1008 77.5833 56.0934C77.5833 56.086 77.5833 56.0786 77.5833 56.0712C77.5833 56.0638 77.5833 56.0564 77.5833 56.0489C77.5833 56.0415 77.5833 56.0341 77.5833 56.0266C77.5833 56.0192 77.5833 56.0117 77.5833 56.0043C77.5833 55.9968 77.5833 55.9893 77.5833 55.9819C77.5833 55.9744 77.5833 55.9669 77.5833 55.9594C77.5833 55.9519 77.5833 55.9444 77.5833 55.9369C77.5833 55.9294 77.5833 55.9218 77.5833 55.9143C77.5833 55.9068 77.5833 55.8992 77.5833 55.8917C77.5833 55.8841 77.5833 55.8766 77.5833 55.869C77.5833 55.8614 77.5833 55.8538 77.5833 55.8462C77.5833 55.8387 77.5833 55.8311 77.5833 55.8235C77.5833 55.8158 77.5833 55.8082 77.5833 55.8006C77.5833 55.793 77.5833 55.7854 77.5833 55.7777C77.5833 55.7701 77.5833 55.7624 77.5833 55.7548C77.5833 55.7471 77.5833 55.7394 77.5833 55.7318C77.5833 55.7241 77.5833 55.7164 77.5833 55.7087C77.5833 55.701 77.5833 55.6933 77.5833 55.6856C77.5833 55.6779 77.5833 55.6702 77.5833 55.6624C77.5833 55.6547 77.5833 55.647 77.5833 55.6392C77.5833 55.6315 77.5833 55.6237 77.5833 55.616C77.5833 55.6082 77.5833 55.6004 77.5833 55.5927C77.5833 55.5849 77.5833 55.5771 77.5833 55.5693C77.5833 55.5615 77.5833 55.5537 77.5833 55.5459C77.5833 55.5381 77.5833 55.5303 77.5833 55.5224C77.5833 55.5146 77.5833 55.5068 77.5833 55.4989C77.5833 55.4911 77.5833 55.4832 77.5833 55.4754C77.5833 55.4675 77.5833 55.4596 77.5833 55.4517C77.5833 55.4439 77.5833 55.436 77.5833 55.4281C77.5833 55.4202 77.5833 55.4123 77.5833 55.4044C77.5833 55.3965 77.5833 55.3885 77.5833 55.3806C77.5833 55.3727 77.5833 55.3647 77.5833 55.3568C77.5833 55.3489 77.5833 55.3409 77.5833 55.3329C77.5833 55.325 77.5833 55.317 77.5833 55.309C77.5833 55.3011 77.5833 55.2931 77.5833 55.2851C77.5833 55.2771 77.5833 55.2691 77.5833 55.2611C77.5833 55.2531 77.5833 55.2451 77.5833 55.237C77.5833 55.229 77.5833 55.221 77.5833 55.213C77.5833 55.2049 77.5833 55.1969 77.5833 55.1888C77.5833 55.1808 77.5833 55.1727 77.5833 55.1646C77.5833 55.1566 77.5833 55.1485 77.5833 55.1404C77.5833 55.1323 77.5833 55.1242 77.5833 55.1161C77.5833 55.108 77.5833 55.0999 77.5833 55.0918C77.5833 55.0837 77.5833 55.0755 77.5833 55.0674C77.5833 55.0593 77.5833 55.0511 77.5833 55.043C77.5833 55.0348 77.5833 55.0267 77.5833 55.0185C77.5833 55.0104 77.5833 55.0022 77.5833 54.994C77.5833 54.9858 77.5833 54.9777 77.5833 54.9695C77.5833 54.9613 77.5833 54.9531 77.5833 54.9449C77.5833 54.9367 77.5833 54.9284 77.5833 54.9202C77.5833 54.912 77.5833 54.9038 77.5833 54.8955C77.5833 54.8873 77.5833 54.8791 77.5833 54.8708C77.5833 54.8626 77.5833 54.8543 77.5833 54.846C77.5833 54.8378 77.5833 54.8295 77.5833 54.8212C77.5833 54.8129 77.5833 54.8046 77.5833 54.7963C77.5833 54.7881 77.5833 54.7798 77.5833 54.7714C77.5833 54.7631 77.5833 54.7548 77.5833 54.7465C77.5833 54.7382 77.5833 54.7298 77.5833 54.7215C77.5833 54.7132 77.5833 54.7048 77.5833 54.6965C77.5833 54.6881 77.5833 54.6798 77.5833 54.6714C77.5833 54.663 77.5833 54.6547 77.5833 54.6463C77.5833 54.6379 77.5833 54.6295 77.5833 54.6211C77.5833 54.6127 77.5833 54.6043 77.5833 54.5959C77.5833 54.5875 77.5833 54.5791 77.5833 54.5707C77.5833 54.5623 77.5833 54.5538 77.5833 54.5454C77.5833 54.537 77.5833 54.5285 77.5833 54.5201C77.5833 54.5116 77.5833 54.5032 77.5833 54.4947C77.5833 54.4863 77.5833 54.4778 77.5833 54.4693C77.5833 54.4608 77.5833 54.4524 77.5833 54.4439C77.5833 54.4354 77.5833 54.4269 77.5833 54.4184C77.5833 54.4099 77.5833 54.4014 77.5833 54.3929C77.5833 54.3844 77.5833 54.3758 77.5833 54.3673C77.5833 54.3588 77.5833 54.3503 77.5833 54.3417C77.5833 54.3332 77.5833 54.3246 77.5833 54.3161C77.5833 54.3075 77.5833 54.299 77.5833 54.2904C77.5833 54.2818 77.5833 54.2733 77.5833 54.2647C77.5833 54.2561 77.5833 54.2475 77.5833 54.2389C77.5833 54.2303 77.5833 54.2217 77.5833 54.2131C77.5833 54.2045 77.5833 54.1959 77.5833 54.1873C77.5833 54.1787 77.5833 54.1701 77.5833 54.1614C77.5833 54.1528 77.5833 54.1442 77.5833 54.1355C77.5833 54.1269 77.5833 54.1182 77.5833 54.1096C77.5833 54.1009 77.5833 54.0923 77.5833 54.0836C77.5833 54.075 77.5833 54.0663 77.5833 54.0576C77.5833 54.0489 77.5833 54.0402 77.5833 54.0316C77.5833 54.0229 77.5833 54.0142 77.5833 54.0055C77.5833 53.9968 77.5833 53.9881 77.5833 53.9793C77.5833 53.9706 77.5833 53.9619 77.5833 53.9532C77.5833 53.9445 77.5833 53.9357 77.5833 53.927C77.5833 53.9183 77.5833 53.9095 77.5833 53.9008C77.5833 53.892 77.5833 53.8833 77.5833 53.8745C77.5833 53.8657 77.5833 53.857 77.5833 53.8482C77.5833 53.8394 77.5833 53.8307 77.5833 53.8219C77.5833 53.8131 77.5833 53.8043 77.5833 53.7955C77.5833 53.7867 77.5833 53.7779 77.5833 53.7691C77.5833 53.7603 77.5833 53.7515 77.5833 53.7427C77.5833 53.7339 77.5833 53.725 77.5833 53.7162C77.5833 53.7074 77.5833 53.6986 77.5833 53.6897C77.5833 53.6809 77.5833 53.672 77.5833 53.6632C77.5833 53.6543 77.5833 53.6455 77.5833 53.6366C77.5833 53.6278 77.5833 53.6189 77.5833 53.61C77.5833 53.6011 77.5833 53.5923 77.5833 53.5834C77.5833 53.5745 77.5833 53.5656 77.5833 53.5567C77.5833 53.5478 77.5833 53.5389 77.5833 53.53C77.5833 53.5211 77.5833 53.5122 77.5833 53.5033C77.5833 53.4944 77.5833 53.4855 77.5833 53.4766C77.5833 53.4676 77.5833 53.4587 77.5833 53.4498C77.5833 53.4408 77.5833 53.4319 77.5833 53.4229C77.5833 53.414 77.5833 53.4051 77.5833 53.3961C77.5833 53.3871 77.5833 53.3782 77.5833 53.3692C77.5833 53.3603 77.5833 53.3513 77.5833 53.3423C77.5833 53.3333 77.5833 53.3244 77.5833 53.3154C77.5833 53.3064 77.5833 53.2974 77.5833 53.2884C77.5833 53.2794 77.5833 53.2704 77.5833 53.2614C77.5833 53.2524 77.5833 53.2434 77.5833 53.2344C77.5833 53.2254 77.5833 53.2163 77.5833 53.2073C77.5833 53.1983 77.5833 53.1893 77.5833 53.1802C77.5833 53.1712 77.5833 53.1622 77.5833 53.1531C77.5833 53.1441 77.5833 53.135 77.5833 53.126C77.5833 53.1169 77.5833 53.1079 77.5833 53.0988C77.5833 53.0897 77.5833 53.0807 77.5833 53.0716C77.5833 53.0625 77.5833 53.0535 77.5833 53.0444C77.5833 53.0353 77.5833 53.0262 77.5833 53.0171C77.5833 53.008 77.5833 52.9989 77.5833 52.9898C77.5833 52.9807 77.5833 52.9716 77.5833 52.9625C77.5833 52.9534 77.5833 52.9443 77.5833 52.9352C77.5833 52.9261 77.5833 52.917 77.5833 52.9078C77.5833 52.8987 77.5833 52.8896 77.5833 52.8805C77.5833 52.8713 77.5833 52.8622 77.5833 52.853C77.5833 52.8439 77.5833 52.8348 77.5833 52.8256C77.5833 52.8165 77.5833 52.8073 77.5833 52.7981C77.5833 52.789 77.5833 52.7798 77.5833 52.7707C77.5833 52.7615 77.5833 52.7523 77.5833 52.7431C77.5833 52.734 77.5833 52.7248 77.5833 52.7156C77.5833 52.7064 77.5833 52.6972 77.5833 52.688C77.5833 52.6789 77.5833 52.6697 77.5833 52.6605C77.5833 52.6513 77.5833 52.6421 77.5833 52.6328C77.5833 52.6236 77.5833 52.6144 77.5833 52.6052C77.5833 52.596 77.5833 52.5868 77.5833 52.5776C77.5833 52.5683 77.5833 52.5591 77.5833 52.5499C77.5833 52.5406 77.5833 52.5314 77.5833 52.5222C77.5833 52.5129 77.5833 52.5037 77.5833 52.4944C77.5833 52.4852 77.5833 52.4759 77.5833 52.4667C77.5833 52.4574 77.5833 52.4482 77.5833 52.4389C77.5833 52.4297 77.5833 52.4204 77.5833 52.4111C77.5833 52.4019 77.5833 52.3926 77.5833 52.3833C77.5833 52.374 77.5833 52.3647 77.5833 52.3555C77.5833 52.3462 77.5833 52.3369 77.5833 52.3276C77.5833 52.3183 77.5833 52.309 77.5833 52.2997C77.5833 52.2904 77.5833 52.2811 77.5833 52.2718C77.5833 52.2625 77.5833 52.2532 77.5833 52.2439C77.5833 52.2346 77.5833 52.2253 77.5833 52.216C77.5833 52.2066 77.5833 52.1973 77.5833 52.188C77.5833 52.1787 77.5833 52.1693 77.5833 52.16C77.5833 52.1507 77.5833 52.1413 77.5833 52.132C77.5833 52.1227 77.5833 52.1133 77.5833 52.104C77.5833 52.0946 77.5833 52.0853 77.5833 52.0759C77.5833 52.0666 77.5833 52.0572 77.5833 52.0479C77.5833 52.0385 77.5833 52.0292 77.5833 52.0198C77.5833 52.0104 77.5833 52.0011 77.5833 51.9917C77.5833 51.9823 77.5833 51.973 77.5833 51.9636C77.5833 51.9542 77.5833 51.9448 77.5833 51.9354C77.5833 51.9261 77.5833 51.9167 77.5833 51.9073C77.5833 51.8979 77.5833 51.8885 77.5833 51.8791C77.5833 51.8697 77.5833 51.8603 77.5833 51.8509C77.5833 51.8415 77.5833 51.8321 77.5833 51.8227C77.5833 51.8133 77.5833 51.8039 77.5833 51.7945C77.5833 51.7851 77.5833 51.7757 77.5833 51.7663C77.5833 51.7568 77.5833 51.7474 77.5833 51.738C77.5833 51.7286 77.5833 51.7191 77.5833 51.7097C77.5833 51.7003 77.5833 51.6909 77.5833 51.6814C77.5833 51.672 77.5833 51.6626 77.5833 51.6531C77.5833 51.6437 77.5833 51.6342 77.5833 51.6248C77.5833 51.6154 77.5833 51.6059 77.5833 51.5965C77.5833 51.587 77.5833 51.5776 77.5833 51.5681C77.5833 51.5587 77.5833 51.5492 77.5833 51.5398C77.5833 51.5303 77.5833 51.5208 77.5833 51.5114C77.5833 51.5019 77.5833 51.4924 77.5833 51.483C77.5833 51.4735 77.5833 51.464 77.5833 51.4546C77.5833 51.4451 77.5833 51.4356 77.5833 51.4261C77.5833 51.4167 77.5833 51.4072 77.5833 51.3977C77.5833 51.3882 77.5833 51.3787 77.5833 51.3693C77.5833 51.3598 77.5833 51.3503 77.5833 51.3408C77.5833 51.3313 77.5833 51.3218 77.5833 51.3123C77.5833 51.3028 77.5833 51.2933 77.5833 51.2838C77.5833 51.2743 77.5833 51.2648 77.5833 51.2553C77.5833 51.2458 77.5833 51.2363 77.5833 51.2268C77.5833 51.2173 77.5833 51.2078 77.5833 51.1983C77.5833 51.1888 77.5833 51.1793 77.5833 51.1697C77.5833 51.1602 77.5833 51.1507 77.5833 51.1412C77.5833 51.1317 77.5833 51.1221 77.5833 51.1126C77.5833 51.1031 77.5833 51.0936 77.5833 51.084C77.5833 51.0745 77.5833 51.065 77.5833 51.0555C77.5833 51.0459 77.5833 51.0364 77.5833 51.0269C77.5833 51.0173 77.5833 51.0078 77.5833 50.9983C77.5833 50.9887 77.5833 50.9792 77.5833 50.9696C77.5833 50.9601 77.5833 50.9506 77.5833 50.941C77.5833 50.9315 77.5833 50.9219 77.5833 50.9124C77.5833 50.9028 77.5833 50.8933 77.5833 50.8837C77.5833 50.8742 77.5833 50.8646 77.5833 50.8551C77.5833 50.8455 77.5833 50.836 77.5833 50.8264C77.5833 50.8169 77.5833 50.8073 77.5833 50.7978C77.5833 50.7882 77.5833 50.7786 77.5833 50.7691C77.5833 50.7595 77.5833 50.7499 77.5833 50.7404C77.5833 50.7308 77.5833 50.7213 77.5833 50.7117C77.5833 50.7021 77.5833 50.6925 77.5833 50.683C77.5833 50.6734 77.5833 50.6638 77.5833 50.6543C77.5833 50.6447 77.5833 50.6351 77.5833 50.6255C77.5833 50.616 77.5833 50.6064 77.5833 50.5968C77.5833 50.5872 77.5833 50.5777 77.5833 50.5681C77.5833 50.5585 77.5833 50.5489 77.5833 50.5393C77.5833 50.5298 77.5833 50.5202 77.5833 50.5106C77.5833 50.501 77.5833 50.4914 77.5833 50.4818C77.5833 50.4723 77.5833 50.4627 77.5833 50.4531C77.5833 50.4435 77.5833 50.4339 77.5833 50.4243C77.5833 50.4147 77.5833 50.4051 77.5833 50.3955C77.5833 50.386 77.5833 50.3764 77.5833 50.3668C77.5833 50.3572 77.5833 50.3476 77.5833 50.338C77.5833 50.3284 77.5833 50.3188 77.5833 50.3092C77.5833 50.2996 77.5833 50.29 77.5833 50.2804C77.5833 50.2708 77.5833 50.2612 77.5833 50.2516C77.5833 50.242 77.5833 50.2324 77.5833 50.2228C77.5833 50.2132 77.5833 50.2036 77.5833 50.194C77.5833 50.1844 77.5833 50.1748 77.5833 50.1652C77.5833 50.1556 77.5833 50.146 77.5833 50.1364C77.5833 50.1268 77.5833 50.1172 77.5833 50.1076C77.5833 50.098 77.5833 50.0884 77.5833 50.0788C77.5833 50.0691 77.5833 50.0595 77.5833 50.0499C77.5833 50.0403 77.5833 50.0307 77.5833 50.0211C77.5833 50.0115 77.5833 50.0019 77.5833 49.9923C77.5833 49.9827 77.5833 49.9731 77.5833 49.9635C77.5833 49.9539 77.5833 49.9442 77.5833 49.9346C77.5833 49.925 77.5833 49.9154 77.5833 49.9058C77.5833 49.8962 77.5833 49.8866 77.5833 49.877C77.5833 49.8674 77.5833 49.8577 77.5833 49.8481C77.5833 49.8385 77.5833 49.8289 77.5833 49.8193C77.5833 49.8097 77.5833 49.8001 77.5833 49.7905C77.5833 49.7809 77.5833 49.7712 77.5833 49.7616C77.5833 49.752 77.5833 49.7424 77.5833 49.7328C77.5833 49.7232 77.5833 49.7136 77.5833 49.704C77.5833 49.6944 77.5833 49.6847 77.5833 49.6751C77.5833 49.6655 77.5833 49.6559 77.5833 49.6463C77.5833 49.6367 77.5833 49.6271 77.5833 49.6175C77.5833 49.6079 77.5833 49.5982 77.5833 49.5886C77.5833 49.579 77.5833 49.5694 77.5833 49.5598C77.5833 49.5502 77.5833 49.5406 77.5833 49.531C77.5833 49.5214 77.5833 49.5118 77.5833 49.5021C77.5833 49.4925 77.5833 49.4829 77.5833 49.4733C77.5833 49.4637 77.5833 49.4541 77.5833 49.4445C77.5833 49.4349 77.5833 49.4253 77.5833 49.4157C77.5833 49.4061 77.5833 49.3965 77.5833 49.3869C77.5833 49.3772 77.5833 49.3676 77.5833 49.358C77.5833 49.3484 77.5833 49.3388 77.5833 49.3292C77.5833 49.3196 77.5833 49.31 77.5833 49.3004C77.5833 49.2908 77.5833 49.2812 77.5833 49.2716C77.5833 49.262 77.5833 49.2524 77.5833 49.2428C77.5833 49.2332 77.5833 49.2236 77.5833 49.214C77.5833 49.2044 77.5833 49.1948 77.5833 49.1852C77.5833 49.1756 77.5833 49.166 77.5833 49.1564C77.5833 49.1468 77.5833 49.1372 77.5833 49.1276C77.5833 49.118 77.5833 49.1085 77.5833 49.0989C77.5833 49.0893 77.5833 49.0797 77.5833 49.0701C77.5833 49.0605 77.5833 49.0509 77.5833 49.0413C77.5833 49.0317 77.5833 49.0221 77.5833 49.0126C77.5833 49.003 77.5833 48.9934 77.5833 48.9838C77.5833 48.9742 77.5833 48.9646 77.5833 48.955C77.5833 48.9455 77.5833 48.9359 77.5833 48.9263C77.5833 48.9167 77.5833 48.9071 77.5833 48.8976C77.5833 48.888 77.5833 48.8784 77.5833 48.8688C77.5833 48.8593 77.5833 48.8497 77.5833 48.8401C77.5833 48.8305 77.5833 48.821 77.5833 48.8114C77.5833 48.8018 77.5833 48.7923 77.5833 48.7827C77.5833 48.7731 77.5833 48.7635 77.5833 48.754C77.5833 48.7444 77.5833 48.7349 77.5833 48.7253C77.5833 48.7157 77.5833 48.7062 77.5833 48.6966C77.5833 48.687 77.5833 48.6775 77.5833 48.6679C77.5833 48.6584 77.5833 48.6488 77.5833 48.6393C77.5833 48.6297 77.5833 48.6201 77.5833 48.6106C77.5833 48.601 77.5833 48.5915 77.5833 48.5819C77.5833 48.5724 77.5833 48.5629 77.5833 48.5533C77.5833 48.5438 77.5833 48.5342 77.5833 48.5247C77.5833 48.5151 77.5833 48.5056 77.5833 48.4961C77.5833 48.4865 77.5833 48.477 77.5833 48.4674C77.5833 48.4579 77.5833 48.4484 77.5833 48.4388C77.5833 48.4293 77.5833 48.4198 77.5833 48.4103C77.5833 48.4007 77.5833 48.3912 77.5833 48.3817C77.5833 48.3721 77.5833 48.3626 77.5833 48.3531C77.5833 48.3436 77.5833 48.3341 77.5833 48.3245C77.5833 48.315 77.5833 48.3055 77.5833 48.296C77.5833 48.2865 77.5833 48.277 77.5833 48.2675C77.5833 48.258 77.5833 48.2485 77.5833 48.2389C77.5833 48.2294 77.5833 48.2199 77.5833 48.2104C77.5833 48.2009 77.5833 48.1914 77.5833 48.1819C77.5833 48.1724 77.5833 48.163 77.5833 48.1535C77.5833 48.144 77.5833 48.1345 77.5833 48.125C77.5833 48.1155 77.5833 48.106 77.5833 48.0965C77.5833 48.087 77.5833 48.0776 77.5833 48.0681C77.5833 48.0586 77.5833 48.0491 77.5833 48.0397C77.5833 48.0302 77.5833 48.0207 77.5833 48.0112C77.5833 48.0018 77.5833 47.9923 77.5833 47.9828C77.5833 47.9734 77.5833 47.9639 77.5833 47.9544C77.5833 47.945 77.5833 47.9355 77.5833 47.9261C77.5833 47.9166 77.5833 47.9072 77.5833 47.8977C77.5833 47.8883 77.5833 47.8788 77.5833 47.8694C77.5833 47.8599 77.5833 47.8505 77.5833 47.841C77.5833 47.8316 77.5833 47.8222 77.5833 47.8127C77.5833 47.8033 77.5833 47.7939 77.5833 47.7844C77.5833 47.775 77.5833 47.7656 77.5833 47.7561C77.5833 47.7467 77.5833 47.7373 77.5833 47.7279C77.5833 47.7185 77.5833 47.709 77.5833 47.6996C77.5833 47.6902 77.5833 47.6808 77.5833 47.6714C77.5833 47.662 77.5833 47.6526 77.5833 47.6432C77.5833 47.6338 77.5833 47.6244 77.5833 47.615C77.5833 47.6056 77.5833 47.5962 77.5833 47.5868C77.5833 47.5774 77.5833 47.568 77.5833 47.5586C77.5833 47.5493 77.5833 47.5399 77.5833 47.5305C77.5833 47.5211 77.5833 47.5117 77.5833 47.5024C77.5833 47.493 77.5833 47.4836 77.5833 47.4743C77.5833 47.4649 77.5833 47.4555 77.5833 47.4462C77.5833 47.4368 77.5833 47.4274 77.5833 47.4181C77.5833 47.4087 77.5833 47.3994 77.5833 47.39C77.5833 47.3807 77.5833 47.3713 77.5833 47.362C77.5833 47.3527 77.5833 47.3433 77.5833 47.334C77.5833 47.3247 77.5833 47.3153 77.5833 47.306C77.5833 47.2967 77.5833 47.2873 77.5833 47.278C77.5833 47.2687 77.5833 47.2594 77.5833 47.2501C77.5833 47.2408 77.5833 47.2314 77.5833 47.2221C77.5833 47.2128 77.5833 47.2035 77.5833 47.1942C77.5833 47.1849 77.5833 47.1756 77.5833 47.1663C77.5833 47.157 77.5833 47.1477 77.5833 47.1385C77.5833 47.1292 77.5833 47.1199 77.5833 47.1106C77.5833 47.1013 77.5833 47.0921 77.5833 47.0828C77.5833 47.0735 77.5833 47.0642 77.5833 47.055C77.5833 47.0457 77.5833 47.0364 77.5833 47.0272C77.5833 47.0179 77.5833 47.0087 77.5833 46.9994C77.5833 46.9902 77.5833 46.9809 77.5833 46.9717C77.5833 46.9624 77.5833 46.9532 77.5833 46.944C77.5833 46.9347 77.5833 46.9255 77.5833 46.9163C77.5833 46.907 77.5833 46.8978 77.5833 46.8886C77.5833 46.8794 77.5833 46.8702 77.5833 46.861C77.5833 46.8517 77.5833 46.8425 77.5833 46.8333C77.5833 46.8241 77.5833 46.8149 77.5833 46.8057C77.5833 46.7965 77.5833 46.7873 77.5833 46.7782C77.5833 46.769 77.5833 46.7598 77.5833 46.7506C77.5833 46.7414 77.5833 46.7323 77.5833 46.7231C77.5833 46.7139 77.5833 46.7047 77.5833 46.6956C77.5833 46.6864 77.5833 46.6773 77.5833 46.6681C77.5833 46.6589 77.5833 46.6498 77.5833 46.6407C77.5833 46.6315 77.5833 46.6224 77.5833 46.6132C77.5833 46.6041 77.5833 46.595 77.5833 46.5858C77.5833 46.5767 77.5833 46.5676 77.5833 46.5585C77.5833 46.5493 77.5833 46.5402 77.5833 46.5311C77.5833 46.522 77.5833 46.5129 77.5833 46.5038C77.5833 46.4947 77.5833 46.4856 77.5833 46.4765C77.5833 46.4674 77.5833 46.4583 77.5833 46.4492C77.5833 46.4401 77.5833 46.4311 77.5833 46.422C77.5833 46.4129 77.5833 46.4038 77.5833 46.3948C77.5833 46.3857 77.5833 46.3766 77.5833 46.3676C77.5833 46.3585 77.5833 46.3495 77.5833 46.3404C77.5833 46.3314 77.5833 46.3223 77.5833 46.3133C77.5833 46.3043 77.5833 46.2952 77.5833 46.2862C77.5833 46.2772 77.5833 46.2681 77.5833 46.2591C77.5833 46.2501 77.5833 46.2411 77.5833 46.2321C77.5833 46.2231 77.5833 46.2141 77.5833 46.2051C77.5833 46.1961 77.5833 46.1871 77.5833 46.1781C77.5833 46.1691 77.5833 46.1601 77.5833 46.1511C77.5833 46.1422 77.5833 46.1332 77.5833 46.1242C77.5833 46.1152 77.5833 46.1063 77.5833 46.0973C77.5833 46.0884 77.5833 46.0794 77.5833 46.0704C77.5833 46.0615 77.5833 46.0526 77.5833 46.0436C77.5833 46.0347 77.5833 46.0257 77.5833 46.0168C77.5833 46.0079 77.5833 45.999 77.5833 45.99C77.5833 45.9811 77.5833 45.9722 77.5833 45.9633C77.5833 45.9544 77.5833 45.9455 77.5833 45.9366C77.5833 45.9277 77.5833 45.9188 77.5833 45.9099C77.5833 45.901 77.5833 45.8921 77.5833 45.8833C77.5833 45.8744 77.5833 45.8655 77.5833 45.8566C77.5833 45.8478 77.5833 45.8389 77.5833 45.8301C77.5833 45.8212 77.5833 45.8124 77.5833 45.8035C77.5833 45.7947 77.5833 45.7858 77.5833 45.777C77.5833 45.7682 77.5833 45.7593 77.5833 45.7505C77.5833 45.7417 77.5833 45.7329 77.5833 45.7241C77.5833 45.7152 77.5833 45.7064 77.5833 45.6976C77.5833 45.6888 77.5833 45.68 77.5833 45.6713C77.5833 45.6625 77.5833 45.6537 77.5833 45.6449C77.5833 45.6361 77.5833 45.6274 77.5833 45.6186C77.5833 45.6098 77.5833 45.6011 77.5833 45.5923C77.5833 45.5836 77.5833 45.5748 77.5833 45.5661C77.5833 45.5573 77.5833 45.5486 77.5833 45.5399C77.5833 45.5311 77.5833 45.5224 77.5833 45.5137C77.5833 45.505 77.5833 45.4963 77.5833 45.4875C77.5833 45.4788 77.5833 45.4701 77.5833 45.4614C77.5833 45.4527 77.5833 45.4441 77.5833 45.4354C77.5833 45.4267 77.5833 45.418 77.5833 45.4093C77.5833 45.4007 77.5833 45.392 77.5833 45.3833C77.5833 45.3747 77.5833 45.366 77.5833 45.3574C77.5833 45.3487 77.5833 45.3401 77.5833 45.3315C77.5833 45.3228 77.5833 45.3142 77.5833 45.3056C77.5833 45.2969 77.5833 45.2883 77.5833 45.2797C77.5833 45.2711 77.5833 45.2625 77.5833 45.2539C77.5833 45.2453 77.5833 45.2367 77.5833 45.2281H77.0833C77.0833 45.2367 77.0833 45.2453 77.0833 45.2539C77.0833 45.2625 77.0833 45.2711 77.0833 45.2797C77.0833 45.2883 77.0833 45.2969 77.0833 45.3056C77.0833 45.3142 77.0833 45.3228 77.0833 45.3315C77.0833 45.3401 77.0833 45.3487 77.0833 45.3574C77.0833 45.366 77.0833 45.3747 77.0833 45.3833C77.0833 45.392 77.0833 45.4007 77.0833 45.4093C77.0833 45.418 77.0833 45.4267 77.0833 45.4354C77.0833 45.4441 77.0833 45.4527 77.0833 45.4614C77.0833 45.4701 77.0833 45.4788 77.0833 45.4875C77.0833 45.4963 77.0833 45.505 77.0833 45.5137C77.0833 45.5224 77.0833 45.5311 77.0833 45.5399C77.0833 45.5486 77.0833 45.5573 77.0833 45.5661C77.0833 45.5748 77.0833 45.5836 77.0833 45.5923C77.0833 45.6011 77.0833 45.6098 77.0833 45.6186C77.0833 45.6274 77.0833 45.6361 77.0833 45.6449C77.0833 45.6537 77.0833 45.6625 77.0833 45.6713C77.0833 45.68 77.0833 45.6888 77.0833 45.6976C77.0833 45.7064 77.0833 45.7152 77.0833 45.7241C77.0833 45.7329 77.0833 45.7417 77.0833 45.7505C77.0833 45.7593 77.0833 45.7682 77.0833 45.777C77.0833 45.7858 77.0833 45.7947 77.0833 45.8035C77.0833 45.8124 77.0833 45.8212 77.0833 45.8301C77.0833 45.8389 77.0833 45.8478 77.0833 45.8566C77.0833 45.8655 77.0833 45.8744 77.0833 45.8833C77.0833 45.8921 77.0833 45.901 77.0833 45.9099C77.0833 45.9188 77.0833 45.9277 77.0833 45.9366C77.0833 45.9455 77.0833 45.9544 77.0833 45.9633C77.0833 45.9722 77.0833 45.9811 77.0833 45.99C77.0833 45.999 77.0833 46.0079 77.0833 46.0168C77.0833 46.0257 77.0833 46.0347 77.0833 46.0436C77.0833 46.0526 77.0833 46.0615 77.0833 46.0704C77.0833 46.0794 77.0833 46.0884 77.0833 46.0973C77.0833 46.1063 77.0833 46.1152 77.0833 46.1242C77.0833 46.1332 77.0833 46.1422 77.0833 46.1511C77.0833 46.1601 77.0833 46.1691 77.0833 46.1781C77.0833 46.1871 77.0833 46.1961 77.0833 46.2051C77.0833 46.2141 77.0833 46.2231 77.0833 46.2321C77.0833 46.2411 77.0833 46.2501 77.0833 46.2591C77.0833 46.2681 77.0833 46.2772 77.0833 46.2862C77.0833 46.2952 77.0833 46.3043 77.0833 46.3133C77.0833 46.3223 77.0833 46.3314 77.0833 46.3404C77.0833 46.3495 77.0833 46.3585 77.0833 46.3676C77.0833 46.3766 77.0833 46.3857 77.0833 46.3948C77.0833 46.4038 77.0833 46.4129 77.0833 46.422C77.0833 46.4311 77.0833 46.4401 77.0833 46.4492C77.0833 46.4583 77.0833 46.4674 77.0833 46.4765C77.0833 46.4856 77.0833 46.4947 77.0833 46.5038C77.0833 46.5129 77.0833 46.522 77.0833 46.5311C77.0833 46.5402 77.0833 46.5493 77.0833 46.5585C77.0833 46.5676 77.0833 46.5767 77.0833 46.5858C77.0833 46.595 77.0833 46.6041 77.0833 46.6132C77.0833 46.6224 77.0833 46.6315 77.0833 46.6407C77.0833 46.6498 77.0833 46.6589 77.0833 46.6681C77.0833 46.6773 77.0833 46.6864 77.0833 46.6956C77.0833 46.7047 77.0833 46.7139 77.0833 46.7231C77.0833 46.7323 77.0833 46.7414 77.0833 46.7506C77.0833 46.7598 77.0833 46.769 77.0833 46.7782C77.0833 46.7873 77.0833 46.7965 77.0833 46.8057C77.0833 46.8149 77.0833 46.8241 77.0833 46.8333C77.0833 46.8425 77.0833 46.8517 77.0833 46.861C77.0833 46.8702 77.0833 46.8794 77.0833 46.8886C77.0833 46.8978 77.0833 46.907 77.0833 46.9163C77.0833 46.9255 77.0833 46.9347 77.0833 46.944C77.0833 46.9532 77.0833 46.9624 77.0833 46.9717C77.0833 46.9809 77.0833 46.9902 77.0833 46.9994C77.0833 47.0087 77.0833 47.0179 77.0833 47.0272C77.0833 47.0364 77.0833 47.0457 77.0833 47.055C77.0833 47.0642 77.0833 47.0735 77.0833 47.0828C77.0833 47.0921 77.0833 47.1013 77.0833 47.1106C77.0833 47.1199 77.0833 47.1292 77.0833 47.1385C77.0833 47.1477 77.0833 47.157 77.0833 47.1663C77.0833 47.1756 77.0833 47.1849 77.0833 47.1942C77.0833 47.2035 77.0833 47.2128 77.0833 47.2221C77.0833 47.2314 77.0833 47.2408 77.0833 47.2501C77.0833 47.2594 77.0833 47.2687 77.0833 47.278C77.0833 47.2873 77.0833 47.2967 77.0833 47.306C77.0833 47.3153 77.0833 47.3247 77.0833 47.334C77.0833 47.3433 77.0833 47.3527 77.0833 47.362C77.0833 47.3713 77.0833 47.3807 77.0833 47.39C77.0833 47.3994 77.0833 47.4087 77.0833 47.4181C77.0833 47.4274 77.0833 47.4368 77.0833 47.4462C77.0833 47.4555 77.0833 47.4649 77.0833 47.4743C77.0833 47.4836 77.0833 47.493 77.0833 47.5024C77.0833 47.5117 77.0833 47.5211 77.0833 47.5305C77.0833 47.5399 77.0833 47.5493 77.0833 47.5586C77.0833 47.568 77.0833 47.5774 77.0833 47.5868C77.0833 47.5962 77.0833 47.6056 77.0833 47.615C77.0833 47.6244 77.0833 47.6338 77.0833 47.6432C77.0833 47.6526 77.0833 47.662 77.0833 47.6714C77.0833 47.6808 77.0833 47.6902 77.0833 47.6996C77.0833 47.709 77.0833 47.7185 77.0833 47.7279C77.0833 47.7373 77.0833 47.7467 77.0833 47.7561C77.0833 47.7656 77.0833 47.775 77.0833 47.7844C77.0833 47.7939 77.0833 47.8033 77.0833 47.8127C77.0833 47.8222 77.0833 47.8316 77.0833 47.841C77.0833 47.8505 77.0833 47.8599 77.0833 47.8694C77.0833 47.8788 77.0833 47.8883 77.0833 47.8977C77.0833 47.9072 77.0833 47.9166 77.0833 47.9261C77.0833 47.9355 77.0833 47.945 77.0833 47.9544C77.0833 47.9639 77.0833 47.9734 77.0833 47.9828C77.0833 47.9923 77.0833 48.0018 77.0833 48.0112C77.0833 48.0207 77.0833 48.0302 77.0833 48.0397C77.0833 48.0491 77.0833 48.0586 77.0833 48.0681C77.0833 48.0776 77.0833 48.087 77.0833 48.0965C77.0833 48.106 77.0833 48.1155 77.0833 48.125C77.0833 48.1345 77.0833 48.144 77.0833 48.1535C77.0833 48.163 77.0833 48.1724 77.0833 48.1819C77.0833 48.1914 77.0833 48.2009 77.0833 48.2104C77.0833 48.2199 77.0833 48.2294 77.0833 48.2389C77.0833 48.2485 77.0833 48.258 77.0833 48.2675C77.0833 48.277 77.0833 48.2865 77.0833 48.296C77.0833 48.3055 77.0833 48.315 77.0833 48.3245C77.0833 48.3341 77.0833 48.3436 77.0833 48.3531C77.0833 48.3626 77.0833 48.3721 77.0833 48.3817C77.0833 48.3912 77.0833 48.4007 77.0833 48.4103C77.0833 48.4198 77.0833 48.4293 77.0833 48.4388C77.0833 48.4484 77.0833 48.4579 77.0833 48.4674C77.0833 48.477 77.0833 48.4865 77.0833 48.4961C77.0833 48.5056 77.0833 48.5151 77.0833 48.5247C77.0833 48.5342 77.0833 48.5438 77.0833 48.5533C77.0833 48.5629 77.0833 48.5724 77.0833 48.5819C77.0833 48.5915 77.0833 48.601 77.0833 48.6106C77.0833 48.6201 77.0833 48.6297 77.0833 48.6393C77.0833 48.6488 77.0833 48.6584 77.0833 48.6679C77.0833 48.6775 77.0833 48.687 77.0833 48.6966C77.0833 48.7062 77.0833 48.7157 77.0833 48.7253C77.0833 48.7349 77.0833 48.7444 77.0833 48.754C77.0833 48.7635 77.0833 48.7731 77.0833 48.7827C77.0833 48.7923 77.0833 48.8018 77.0833 48.8114C77.0833 48.821 77.0833 48.8305 77.0833 48.8401C77.0833 48.8497 77.0833 48.8593 77.0833 48.8688C77.0833 48.8784 77.0833 48.888 77.0833 48.8976C77.0833 48.9071 77.0833 48.9167 77.0833 48.9263C77.0833 48.9359 77.0833 48.9455 77.0833 48.955C77.0833 48.9646 77.0833 48.9742 77.0833 48.9838C77.0833 48.9934 77.0833 49.003 77.0833 49.0126C77.0833 49.0221 77.0833 49.0317 77.0833 49.0413C77.0833 49.0509 77.0833 49.0605 77.0833 49.0701C77.0833 49.0797 77.0833 49.0893 77.0833 49.0989C77.0833 49.1085 77.0833 49.118 77.0833 49.1276C77.0833 49.1372 77.0833 49.1468 77.0833 49.1564C77.0833 49.166 77.0833 49.1756 77.0833 49.1852C77.0833 49.1948 77.0833 49.2044 77.0833 49.214C77.0833 49.2236 77.0833 49.2332 77.0833 49.2428C77.0833 49.2524 77.0833 49.262 77.0833 49.2716C77.0833 49.2812 77.0833 49.2908 77.0833 49.3004C77.0833 49.31 77.0833 49.3196 77.0833 49.3292C77.0833 49.3388 77.0833 49.3484 77.0833 49.358C77.0833 49.3676 77.0833 49.3772 77.0833 49.3869C77.0833 49.3965 77.0833 49.4061 77.0833 49.4157C77.0833 49.4253 77.0833 49.4349 77.0833 49.4445C77.0833 49.4541 77.0833 49.4637 77.0833 49.4733C77.0833 49.4829 77.0833 49.4925 77.0833 49.5021C77.0833 49.5118 77.0833 49.5214 77.0833 49.531C77.0833 49.5406 77.0833 49.5502 77.0833 49.5598C77.0833 49.5694 77.0833 49.579 77.0833 49.5886C77.0833 49.5982 77.0833 49.6079 77.0833 49.6175C77.0833 49.6271 77.0833 49.6367 77.0833 49.6463C77.0833 49.6559 77.0833 49.6655 77.0833 49.6751C77.0833 49.6847 77.0833 49.6944 77.0833 49.704C77.0833 49.7136 77.0833 49.7232 77.0833 49.7328C77.0833 49.7424 77.0833 49.752 77.0833 49.7616C77.0833 49.7712 77.0833 49.7809 77.0833 49.7905C77.0833 49.8001 77.0833 49.8097 77.0833 49.8193C77.0833 49.8289 77.0833 49.8385 77.0833 49.8481C77.0833 49.8577 77.0833 49.8674 77.0833 49.877C77.0833 49.8866 77.0833 49.8962 77.0833 49.9058C77.0833 49.9154 77.0833 49.925 77.0833 49.9346C77.0833 49.9442 77.0833 49.9539 77.0833 49.9635C77.0833 49.9731 77.0833 49.9827 77.0833 49.9923C77.0833 50.0019 77.0833 50.0115 77.0833 50.0211C77.0833 50.0307 77.0833 50.0403 77.0833 50.0499C77.0833 50.0595 77.0833 50.0691 77.0833 50.0788C77.0833 50.0884 77.0833 50.098 77.0833 50.1076C77.0833 50.1172 77.0833 50.1268 77.0833 50.1364C77.0833 50.146 77.0833 50.1556 77.0833 50.1652C77.0833 50.1748 77.0833 50.1844 77.0833 50.194C77.0833 50.2036 77.0833 50.2132 77.0833 50.2228C77.0833 50.2324 77.0833 50.242 77.0833 50.2516C77.0833 50.2612 77.0833 50.2708 77.0833 50.2804C77.0833 50.29 77.0833 50.2996 77.0833 50.3092C77.0833 50.3188 77.0833 50.3284 77.0833 50.338C77.0833 50.3476 77.0833 50.3572 77.0833 50.3668C77.0833 50.3764 77.0833 50.386 77.0833 50.3955C77.0833 50.4051 77.0833 50.4147 77.0833 50.4243C77.0833 50.4339 77.0833 50.4435 77.0833 50.4531C77.0833 50.4627 77.0833 50.4723 77.0833 50.4818C77.0833 50.4914 77.0833 50.501 77.0833 50.5106C77.0833 50.5202 77.0833 50.5298 77.0833 50.5393C77.0833 50.5489 77.0833 50.5585 77.0833 50.5681C77.0833 50.5777 77.0833 50.5872 77.0833 50.5968C77.0833 50.6064 77.0833 50.616 77.0833 50.6255C77.0833 50.6351 77.0833 50.6447 77.0833 50.6543C77.0833 50.6638 77.0833 50.6734 77.0833 50.683C77.0833 50.6925 77.0833 50.7021 77.0833 50.7117C77.0833 50.7213 77.0833 50.7308 77.0833 50.7404C77.0833 50.7499 77.0833 50.7595 77.0833 50.7691C77.0833 50.7786 77.0833 50.7882 77.0833 50.7978C77.0833 50.8073 77.0833 50.8169 77.0833 50.8264C77.0833 50.836 77.0833 50.8455 77.0833 50.8551C77.0833 50.8646 77.0833 50.8742 77.0833 50.8837C77.0833 50.8933 77.0833 50.9028 77.0833 50.9124C77.0833 50.9219 77.0833 50.9315 77.0833 50.941C77.0833 50.9506 77.0833 50.9601 77.0833 50.9696C77.0833 50.9792 77.0833 50.9887 77.0833 50.9983C77.0833 51.0078 77.0833 51.0173 77.0833 51.0269C77.0833 51.0364 77.0833 51.0459 77.0833 51.0555C77.0833 51.065 77.0833 51.0745 77.0833 51.084C77.0833 51.0936 77.0833 51.1031 77.0833 51.1126C77.0833 51.1221 77.0833 51.1317 77.0833 51.1412C77.0833 51.1507 77.0833 51.1602 77.0833 51.1697C77.0833 51.1793 77.0833 51.1888 77.0833 51.1983C77.0833 51.2078 77.0833 51.2173 77.0833 51.2268C77.0833 51.2363 77.0833 51.2458 77.0833 51.2553C77.0833 51.2648 77.0833 51.2743 77.0833 51.2838C77.0833 51.2933 77.0833 51.3028 77.0833 51.3123C77.0833 51.3218 77.0833 51.3313 77.0833 51.3408C77.0833 51.3503 77.0833 51.3598 77.0833 51.3693C77.0833 51.3787 77.0833 51.3882 77.0833 51.3977C77.0833 51.4072 77.0833 51.4167 77.0833 51.4261C77.0833 51.4356 77.0833 51.4451 77.0833 51.4546C77.0833 51.464 77.0833 51.4735 77.0833 51.483C77.0833 51.4924 77.0833 51.5019 77.0833 51.5114C77.0833 51.5208 77.0833 51.5303 77.0833 51.5398C77.0833 51.5492 77.0833 51.5587 77.0833 51.5681C77.0833 51.5776 77.0833 51.587 77.0833 51.5965C77.0833 51.6059 77.0833 51.6154 77.0833 51.6248C77.0833 51.6342 77.0833 51.6437 77.0833 51.6531C77.0833 51.6626 77.0833 51.672 77.0833 51.6814C77.0833 51.6909 77.0833 51.7003 77.0833 51.7097C77.0833 51.7191 77.0833 51.7286 77.0833 51.738C77.0833 51.7474 77.0833 51.7568 77.0833 51.7663C77.0833 51.7757 77.0833 51.7851 77.0833 51.7945C77.0833 51.8039 77.0833 51.8133 77.0833 51.8227C77.0833 51.8321 77.0833 51.8415 77.0833 51.8509C77.0833 51.8603 77.0833 51.8697 77.0833 51.8791C77.0833 51.8885 77.0833 51.8979 77.0833 51.9073C77.0833 51.9167 77.0833 51.9261 77.0833 51.9354C77.0833 51.9448 77.0833 51.9542 77.0833 51.9636C77.0833 51.973 77.0833 51.9823 77.0833 51.9917C77.0833 52.0011 77.0833 52.0104 77.0833 52.0198C77.0833 52.0292 77.0833 52.0385 77.0833 52.0479C77.0833 52.0572 77.0833 52.0666 77.0833 52.0759C77.0833 52.0853 77.0833 52.0946 77.0833 52.104C77.0833 52.1133 77.0833 52.1227 77.0833 52.132C77.0833 52.1413 77.0833 52.1507 77.0833 52.16C77.0833 52.1693 77.0833 52.1787 77.0833 52.188C77.0833 52.1973 77.0833 52.2066 77.0833 52.216C77.0833 52.2253 77.0833 52.2346 77.0833 52.2439C77.0833 52.2532 77.0833 52.2625 77.0833 52.2718C77.0833 52.2811 77.0833 52.2904 77.0833 52.2997C77.0833 52.309 77.0833 52.3183 77.0833 52.3276C77.0833 52.3369 77.0833 52.3462 77.0833 52.3555C77.0833 52.3647 77.0833 52.374 77.0833 52.3833C77.0833 52.3926 77.0833 52.4019 77.0833 52.4111C77.0833 52.4204 77.0833 52.4297 77.0833 52.4389C77.0833 52.4482 77.0833 52.4574 77.0833 52.4667C77.0833 52.4759 77.0833 52.4852 77.0833 52.4944C77.0833 52.5037 77.0833 52.5129 77.0833 52.5222C77.0833 52.5314 77.0833 52.5406 77.0833 52.5499C77.0833 52.5591 77.0833 52.5683 77.0833 52.5776C77.0833 52.5868 77.0833 52.596 77.0833 52.6052C77.0833 52.6144 77.0833 52.6236 77.0833 52.6328C77.0833 52.6421 77.0833 52.6513 77.0833 52.6605C77.0833 52.6697 77.0833 52.6789 77.0833 52.688C77.0833 52.6972 77.0833 52.7064 77.0833 52.7156C77.0833 52.7248 77.0833 52.734 77.0833 52.7431C77.0833 52.7523 77.0833 52.7615 77.0833 52.7707C77.0833 52.7798 77.0833 52.789 77.0833 52.7981C77.0833 52.8073 77.0833 52.8165 77.0833 52.8256C77.0833 52.8348 77.0833 52.8439 77.0833 52.853C77.0833 52.8622 77.0833 52.8713 77.0833 52.8805C77.0833 52.8896 77.0833 52.8987 77.0833 52.9078C77.0833 52.917 77.0833 52.9261 77.0833 52.9352C77.0833 52.9443 77.0833 52.9534 77.0833 52.9625C77.0833 52.9716 77.0833 52.9807 77.0833 52.9898C77.0833 52.9989 77.0833 53.008 77.0833 53.0171C77.0833 53.0262 77.0833 53.0353 77.0833 53.0444C77.0833 53.0535 77.0833 53.0625 77.0833 53.0716C77.0833 53.0807 77.0833 53.0897 77.0833 53.0988C77.0833 53.1079 77.0833 53.1169 77.0833 53.126C77.0833 53.135 77.0833 53.1441 77.0833 53.1531C77.0833 53.1622 77.0833 53.1712 77.0833 53.1802C77.0833 53.1893 77.0833 53.1983 77.0833 53.2073C77.0833 53.2163 77.0833 53.2254 77.0833 53.2344C77.0833 53.2434 77.0833 53.2524 77.0833 53.2614C77.0833 53.2704 77.0833 53.2794 77.0833 53.2884C77.0833 53.2974 77.0833 53.3064 77.0833 53.3154C77.0833 53.3244 77.0833 53.3333 77.0833 53.3423C77.0833 53.3513 77.0833 53.3603 77.0833 53.3692C77.0833 53.3782 77.0833 53.3871 77.0833 53.3961C77.0833 53.4051 77.0833 53.414 77.0833 53.4229C77.0833 53.4319 77.0833 53.4408 77.0833 53.4498C77.0833 53.4587 77.0833 53.4676 77.0833 53.4766C77.0833 53.4855 77.0833 53.4944 77.0833 53.5033C77.0833 53.5122 77.0833 53.5211 77.0833 53.53C77.0833 53.5389 77.0833 53.5478 77.0833 53.5567C77.0833 53.5656 77.0833 53.5745 77.0833 53.5834C77.0833 53.5923 77.0833 53.6011 77.0833 53.61C77.0833 53.6189 77.0833 53.6278 77.0833 53.6366C77.0833 53.6455 77.0833 53.6543 77.0833 53.6632C77.0833 53.672 77.0833 53.6809 77.0833 53.6897C77.0833 53.6986 77.0833 53.7074 77.0833 53.7162C77.0833 53.725 77.0833 53.7339 77.0833 53.7427C77.0833 53.7515 77.0833 53.7603 77.0833 53.7691C77.0833 53.7779 77.0833 53.7867 77.0833 53.7955C77.0833 53.8043 77.0833 53.8131 77.0833 53.8219C77.0833 53.8307 77.0833 53.8394 77.0833 53.8482C77.0833 53.857 77.0833 53.8657 77.0833 53.8745C77.0833 53.8833 77.0833 53.892 77.0833 53.9008C77.0833 53.9095 77.0833 53.9183 77.0833 53.927C77.0833 53.9357 77.0833 53.9445 77.0833 53.9532C77.0833 53.9619 77.0833 53.9706 77.0833 53.9793C77.0833 53.9881 77.0833 53.9968 77.0833 54.0055C77.0833 54.0142 77.0833 54.0229 77.0833 54.0316C77.0833 54.0402 77.0833 54.0489 77.0833 54.0576C77.0833 54.0663 77.0833 54.075 77.0833 54.0836C77.0833 54.0923 77.0833 54.1009 77.0833 54.1096C77.0833 54.1182 77.0833 54.1269 77.0833 54.1355C77.0833 54.1442 77.0833 54.1528 77.0833 54.1614C77.0833 54.1701 77.0833 54.1787 77.0833 54.1873C77.0833 54.1959 77.0833 54.2045 77.0833 54.2131C77.0833 54.2217 77.0833 54.2303 77.0833 54.2389C77.0833 54.2475 77.0833 54.2561 77.0833 54.2647C77.0833 54.2733 77.0833 54.2818 77.0833 54.2904C77.0833 54.299 77.0833 54.3075 77.0833 54.3161C77.0833 54.3246 77.0833 54.3332 77.0833 54.3417C77.0833 54.3503 77.0833 54.3588 77.0833 54.3673C77.0833 54.3758 77.0833 54.3844 77.0833 54.3929C77.0833 54.4014 77.0833 54.4099 77.0833 54.4184C77.0833 54.4269 77.0833 54.4354 77.0833 54.4439C77.0833 54.4524 77.0833 54.4608 77.0833 54.4693C77.0833 54.4778 77.0833 54.4863 77.0833 54.4947C77.0833 54.5032 77.0833 54.5116 77.0833 54.5201C77.0833 54.5285 77.0833 54.537 77.0833 54.5454C77.0833 54.5538 77.0833 54.5623 77.0833 54.5707C77.0833 54.5791 77.0833 54.5875 77.0833 54.5959C77.0833 54.6043 77.0833 54.6127 77.0833 54.6211C77.0833 54.6295 77.0833 54.6379 77.0833 54.6463C77.0833 54.6547 77.0833 54.663 77.0833 54.6714C77.0833 54.6798 77.0833 54.6881 77.0833 54.6965C77.0833 54.7048 77.0833 54.7132 77.0833 54.7215C77.0833 54.7298 77.0833 54.7382 77.0833 54.7465C77.0833 54.7548 77.0833 54.7631 77.0833 54.7714C77.0833 54.7798 77.0833 54.7881 77.0833 54.7963C77.0833 54.8046 77.0833 54.8129 77.0833 54.8212C77.0833 54.8295 77.0833 54.8378 77.0833 54.846C77.0833 54.8543 77.0833 54.8626 77.0833 54.8708C77.0833 54.8791 77.0833 54.8873 77.0833 54.8955C77.0833 54.9038 77.0833 54.912 77.0833 54.9202C77.0833 54.9284 77.0833 54.9367 77.0833 54.9449C77.0833 54.9531 77.0833 54.9613 77.0833 54.9695C77.0833 54.9777 77.0833 54.9858 77.0833 54.994C77.0833 55.0022 77.0833 55.0104 77.0833 55.0185C77.0833 55.0267 77.0833 55.0348 77.0833 55.043C77.0833 55.0511 77.0833 55.0593 77.0833 55.0674C77.0833 55.0755 77.0833 55.0837 77.0833 55.0918C77.0833 55.0999 77.0833 55.108 77.0833 55.1161C77.0833 55.1242 77.0833 55.1323 77.0833 55.1404C77.0833 55.1485 77.0833 55.1566 77.0833 55.1646C77.0833 55.1727 77.0833 55.1808 77.0833 55.1888C77.0833 55.1969 77.0833 55.2049 77.0833 55.213C77.0833 55.221 77.0833 55.229 77.0833 55.237C77.0833 55.2451 77.0833 55.2531 77.0833 55.2611C77.0833 55.2691 77.0833 55.2771 77.0833 55.2851C77.0833 55.2931 77.0833 55.3011 77.0833 55.309C77.0833 55.317 77.0833 55.325 77.0833 55.3329C77.0833 55.3409 77.0833 55.3489 77.0833 55.3568C77.0833 55.3647 77.0833 55.3727 77.0833 55.3806C77.0833 55.3885 77.0833 55.3965 77.0833 55.4044C77.0833 55.4123 77.0833 55.4202 77.0833 55.4281C77.0833 55.436 77.0833 55.4439 77.0833 55.4517C77.0833 55.4596 77.0833 55.4675 77.0833 55.4754C77.0833 55.4832 77.0833 55.4911 77.0833 55.4989C77.0833 55.5068 77.0833 55.5146 77.0833 55.5224C77.0833 55.5303 77.0833 55.5381 77.0833 55.5459C77.0833 55.5537 77.0833 55.5615 77.0833 55.5693C77.0833 55.5771 77.0833 55.5849 77.0833 55.5927C77.0833 55.6004 77.0833 55.6082 77.0833 55.616C77.0833 55.6237 77.0833 55.6315 77.0833 55.6392C77.0833 55.647 77.0833 55.6547 77.0833 55.6624C77.0833 55.6702 77.0833 55.6779 77.0833 55.6856C77.0833 55.6933 77.0833 55.701 77.0833 55.7087C77.0833 55.7164 77.0833 55.7241 77.0833 55.7318C77.0833 55.7394 77.0833 55.7471 77.0833 55.7548C77.0833 55.7624 77.0833 55.7701 77.0833 55.7777C77.0833 55.7854 77.0833 55.793 77.0833 55.8006C77.0833 55.8082 77.0833 55.8158 77.0833 55.8235C77.0833 55.8311 77.0833 55.8387 77.0833 55.8462C77.0833 55.8538 77.0833 55.8614 77.0833 55.869C77.0833 55.8766 77.0833 55.8841 77.0833 55.8917C77.0833 55.8992 77.0833 55.9068 77.0833 55.9143C77.0833 55.9218 77.0833 55.9294 77.0833 55.9369C77.0833 55.9444 77.0833 55.9519 77.0833 55.9594C77.0833 55.9669 77.0833 55.9744 77.0833 55.9819C77.0833 55.9893 77.0833 55.9968 77.0833 56.0043C77.0833 56.0117 77.0833 56.0192 77.0833 56.0266C77.0833 56.0341 77.0833 56.0415 77.0833 56.0489C77.0833 56.0564 77.0833 56.0638 77.0833 56.0712C77.0833 56.0786 77.0833 56.086 77.0833 56.0934C77.0833 56.1008 77.0833 56.1081 77.0833 56.1155C77.0833 56.1229 77.0833 56.1302 77.0833 56.1376C77.0833 56.1449 77.0833 56.1523 77.0833 56.1596C77.0833 56.1669 77.0833 56.1743 77.0833 56.1816C77.0833 56.1889 77.0833 56.1962 77.0833 56.2035C77.0833 56.2108 77.0833 56.2181 77.0833 56.2253C77.0833 56.2326 77.0833 56.2399 77.0833 56.2471C77.0833 56.2544 77.0833 56.2616 77.0833 56.2689C77.0833 56.2761 77.0833 56.2833 77.0833 56.2905C77.0833 56.2978 77.0833 56.305 77.0833 56.3122C77.0833 56.3194 77.0833 56.3266 77.0833 56.3337C77.0833 56.3409 77.0833 56.3481 77.0833 56.3552C77.0833 56.3624 77.0833 56.3695 77.0833 56.3767C77.0833 56.3838 77.0833 56.391 77.0833 56.3981C77.0833 56.4052 77.0833 56.4123 77.0833 56.4194C77.0833 56.4265 77.0833 56.4336 77.0833 56.4407C77.0833 56.4478 77.0833 56.4548 77.0833 56.4619C77.0833 56.4689 77.0833 56.476 77.0833 56.483C77.0833 56.4901 77.0833 56.4971 77.0833 56.5041C77.0833 56.5111 77.0833 56.5182 77.0833 56.5252C77.0833 56.5321 77.0833 56.5391 77.0833 56.5461C77.0833 56.5531 77.0833 56.5601 77.0833 56.567C77.0833 56.574 77.0833 56.5809 77.0833 56.5879C77.0833 56.5948 77.0833 56.6017 77.0833 56.6087C77.0833 56.6156 77.0833 56.6225 77.0833 56.6294C77.0833 56.6363 77.0833 56.6432 77.0833 56.65C77.0833 56.6569 77.0833 56.6638 77.0833 56.6706C77.0833 56.6775 77.0833 56.6843 77.0833 56.6912C77.0833 56.698 77.0833 56.7048 77.0833 56.7117C77.0833 56.7185 77.0833 56.7253 77.0833 56.7321C77.0833 56.7389 77.0833 56.7456 77.0833 56.7524C77.0833 56.7592 77.0833 56.766 77.0833 56.7727C77.0833 56.7795 77.0833 56.7862 77.0833 56.7929C77.0833 56.7997 77.0833 56.8064 77.0833 56.8131C77.0833 56.8198 77.0833 56.8265 77.0833 56.8332C77.0833 56.8399 77.0833 56.8466 77.0833 56.8532C77.0833 56.8599 77.0833 56.8665 77.0833 56.8732C77.0833 56.8798 77.0833 56.8865 77.0833 56.8931C77.0833 56.8997 77.0833 56.9063 77.0833 56.9129C77.0833 56.9195 77.0833 56.9261 77.0833 56.9327C77.0833 56.9393 77.0833 56.9459 77.0833 56.9524C77.0833 56.959 77.0833 56.9655 77.0833 56.9721C77.0833 56.9786 77.0833 56.9851 77.0833 56.9916C77.0833 56.9981 77.0833 57.0047 77.0833 57.0111C77.0833 57.0176 77.0833 57.0241 77.0833 57.0306C77.0833 57.0371 77.0833 57.0435 77.0833 57.05C77.0833 57.0564 77.0833 57.0629 77.0833 57.0693C77.0833 57.0757 77.0833 57.0821 77.0833 57.0885C77.0833 57.0949 77.0833 57.1013 77.0833 57.1077C77.0833 57.1141 77.0833 57.1205 77.0833 57.1268C77.0833 57.1332 77.0833 57.1395 77.0833 57.1459C77.0833 57.1522 77.0833 57.1585 77.0833 57.1648C77.0833 57.1711 77.0833 57.1774 77.0833 57.1837C77.0833 57.19 77.0833 57.1963 77.0833 57.2026C77.0833 57.2088 77.0833 57.2151 77.0833 57.2213C77.0833 57.2276 77.0833 57.2338 77.0833 57.24C77.0833 57.2463 77.0833 57.2525 77.0833 57.2587C77.0833 57.2649 77.0833 57.2711 77.0833 57.2772C77.0833 57.2834 77.0833 57.2896 77.0833 57.2957C77.0833 57.3019 77.0833 57.308 77.0833 57.3142C77.0833 57.3203 77.0833 57.3264 77.0833 57.3325C77.0833 57.3386 77.0833 57.3447 77.0833 57.3508C77.0833 57.3569 77.0833 57.363 77.0833 57.369C77.0833 57.3751 77.0833 57.3811 77.0833 57.3872C77.0833 57.3932 77.0833 57.3992 77.0833 57.4052C77.0833 57.4112 77.0833 57.4172 77.0833 57.4232C77.0833 57.4292 77.0833 57.4352 77.0833 57.4412C77.0833 57.4471 77.0833 57.4531 77.0833 57.459C77.0833 57.465 77.0833 57.4709 77.0833 57.4768C77.0833 57.4827 77.0833 57.4886 77.0833 57.4945C77.0833 57.5004 77.0833 57.5063 77.0833 57.5122C77.0833 57.518 77.0833 57.5239 77.0833 57.5297C77.0833 57.5356 77.0833 57.5414 77.0833 57.5472C77.0833 57.553 77.0833 57.5589 77.0833 57.5646C77.0833 57.5704 77.0833 57.5762 77.0833 57.582C77.0833 57.5878 77.0833 57.5935 77.0833 57.5993C77.0833 57.605 77.0833 57.6108 77.0833 57.6165C77.0833 57.6222 77.0833 57.6279 77.0833 57.6336C77.0833 57.6393 77.0833 57.645 77.0833 57.6507C77.0833 57.6563 77.0833 57.662 77.0833 57.6676C77.0833 57.6733 77.0833 57.6789 77.0833 57.6846C77.0833 57.6902 77.0833 57.6958 77.0833 57.7014C77.0833 57.707 77.0833 57.7126 77.0833 57.7181C77.0833 57.7237 77.0833 57.7293 77.0833 57.7348C77.0833 57.7404 77.0833 57.7459 77.0833 57.7514C77.0833 57.7569 77.0833 57.7625 77.0833 57.768C77.0833 57.7735 77.0833 57.7789 77.0833 57.7844C77.0833 57.7899 77.0833 57.7953 77.0833 57.8008C77.0833 57.8062 77.0833 57.8117 77.0833 57.8171C77.0833 57.8225 77.0833 57.8279 77.0833 57.8333C77.0833 57.8387 77.0833 57.8441 77.0833 57.8495C77.0833 57.8548 77.0833 57.8602 77.0833 57.8655C77.0833 57.8709 77.0833 57.8762 77.0833 57.8815C77.0833 57.8868 77.0833 57.8921 77.0833 57.8974C77.0833 57.9027 77.0833 57.908 77.0833 57.9133C77.0833 57.9185 77.0833 57.9238 77.0833 57.929C77.0833 57.9343 77.0833 57.9395 77.0833 57.9447C77.0833 57.9499 77.0833 57.9551 77.0833 57.9603C77.0833 57.9655 77.0833 57.9707 77.0833 57.9758C77.0833 57.981 77.0833 57.9862 77.0833 57.9913C77.0833 57.9964 77.0833 58.0015 77.0833 58.0067C77.0833 58.0118 77.0833 58.0169 77.0833 58.0219C77.0833 58.027 77.0833 58.0321 77.0833 58.0371C77.0833 58.0422 77.0833 58.0472 77.0833 58.0523C77.0833 58.0573 77.0833 58.0623 77.0833 58.0673C77.0833 58.0723 77.0833 58.0773 77.0833 58.0823C77.0833 58.0873 77.0833 58.0922 77.0833 58.0972C77.0833 58.1021 77.0833 58.107 77.0833 58.112C77.0833 58.1169 77.0833 58.1218 77.0833 58.1267C77.0833 58.1316 77.0833 58.1365 77.0833 58.1413C77.0833 58.1462 77.0833 58.1511 77.0833 58.1559H77.5833ZM77.5833 45.2281C77.5833 42.4467 77.0994 40.7054 76.1998 39.1254C75.7534 38.3412 75.2077 37.6023 74.5802 36.8021C73.9494 35.9978 73.2408 35.1375 72.4474 34.0887L72.0487 34.3904C72.8445 35.4424 73.5661 36.3192 74.1868 37.1107C74.8107 37.9063 75.3377 38.6217 75.7653 39.3727C76.6138 40.8631 77.0833 42.5153 77.0833 45.2281H77.5833ZM72.4474 34.0887C70.8922 32.0328 70.0288 29.0932 69.1515 25.9709C68.2805 22.8707 67.3979 19.6009 65.7866 16.9794L65.3607 17.2412C66.9277 19.7908 67.7932 22.9848 68.6702 26.1061C69.5409 29.2053 70.4256 32.2447 72.0487 34.3904L72.4474 34.0887ZM65.7866 16.9794C64.176 14.3589 62.235 12.5456 59.8422 11.3908C57.453 10.2378 54.6312 9.75 51.2713 9.75V10.25C54.5858 10.25 57.326 10.7317 59.6249 11.8411C61.92 12.9487 63.793 14.6905 65.3607 17.2412L65.7866 16.9794ZM91.239 101.927C90.7162 100.226 89.5789 95.6023 87.9142 90.9182C87.0804 88.5718 86.1102 86.1973 85.0107 84.1467C83.9137 82.1007 82.6767 80.3554 81.3004 79.2891L80.9942 79.6843C82.2877 80.6865 83.4847 82.3586 84.5701 84.383C85.6531 86.4029 86.6137 88.7517 87.4431 91.0856C89.1051 95.7621 90.2243 100.327 90.761 102.073L91.239 101.927ZM81.3004 79.2891C77.9435 76.6882 72.8336 74.0093 68.3167 71.5113C66.0522 70.2589 63.9352 69.0515 62.2468 67.9169C60.5475 66.7751 59.3224 65.7323 58.7983 64.8186L58.3645 65.0674C58.9528 66.0927 60.2703 67.1912 61.9679 68.3319C63.6762 69.4799 65.8102 70.6964 68.0747 71.9488C72.616 74.4603 77.6767 77.114 80.9942 79.6843L81.3004 79.2891ZM58.8314 64.943V58.1559H58.3314V64.943H58.8314ZM39.4552 22.6955C38.4592 25.8271 36.7364 30.8502 35.2485 33.9381L35.6989 34.1552C37.2037 31.0322 38.9356 25.9789 39.9317 22.847L39.4552 22.6955ZM37.7277 48.2936C38.7612 49.5781 39.9255 50.9552 41.248 52.1903L41.5892 51.8249C40.2933 50.6145 39.1467 49.2596 38.1173 47.9802L37.7277 48.2936ZM41.248 52.1903C43.5922 54.3797 46.4556 56.1435 50 56.1435V55.6435C46.6348 55.6435 43.8881 53.9719 41.5892 51.8249L41.248 52.1903ZM62.5184 47.9802C61.3866 49.3868 60.0079 50.8909 58.4229 52.191L58.7399 52.5776C60.3596 51.2491 61.7622 49.7176 62.908 48.2936L62.5184 47.9802ZM58.4229 52.191C56.0241 54.1585 53.1721 55.6435 50 55.6435V56.1435C53.3321 56.1435 56.2934 54.5843 58.7399 52.5776L58.4229 52.191ZM41.2314 22.4359C44.6376 24.723 51.7628 27.8069 61.0549 27.1165L61.0179 26.6179C51.8523 27.2988 44.8367 24.2544 41.5102 22.0208L41.2314 22.4359ZM61.8304 27.5709C62.3354 28.6621 63.1464 30.2925 63.7833 31.156L64.1857 30.8592C63.5832 30.0424 62.7914 28.4569 62.2842 27.3609L61.8304 27.5709ZM63.7833 31.156C64.5115 32.1434 64.9057 33.6489 65.0091 34.28L65.5025 34.1991C65.3941 33.5374 64.983 31.9403 64.1857 30.8592L63.7833 31.156ZM35.124 34.4499C35.1184 34.6867 35.1148 34.9403 35.1138 35.2082L35.6138 35.2101C35.6148 34.9454 35.6183 34.6952 35.6239 34.4618L35.124 34.4499ZM35.5525 35.0452C35.121 34.5484 34.4048 33.8639 33.655 33.433C33.2806 33.2178 32.8796 33.0552 32.4901 33.0238C32.0905 32.9916 31.7018 33.0984 31.3876 33.4179L31.7441 33.7684C31.9385 33.5708 32.1735 33.4999 32.4498 33.5222C32.7361 33.5453 33.0632 33.6696 33.4059 33.8665C34.0902 34.2597 34.7644 34.9003 35.1751 35.3731L35.5525 35.0452ZM31.3876 33.4179C30.6909 34.1264 30.3647 35.2481 30.2836 36.4036C30.2019 37.5667 30.3647 38.8111 30.6927 39.8117L31.1678 39.656C30.8601 38.7174 30.7051 37.5379 30.7823 36.4386C30.8601 35.3318 31.1696 34.3527 31.7441 33.7684L31.3876 33.4179ZM36.115 44.6448C36.4957 46.1054 37.0158 47.4088 37.7277 48.2936L38.1173 47.9802C37.4716 47.1777 36.9734 45.9557 36.5988 44.5187L36.115 44.6448ZM30.6927 39.8117C31.0176 40.803 31.6791 42.2095 32.6302 43.2924C33.5801 44.3737 34.8642 45.1783 36.4124 44.8255L36.3013 44.338C35.0126 44.6316 33.9013 43.9818 33.0059 42.9624C32.1119 41.9445 31.4785 40.6038 31.1678 39.656L30.6927 39.8117ZM65.0059 34.2472C65.0149 34.5395 65.0205 34.8623 65.0219 35.2101L65.5218 35.2082C65.5205 34.8562 65.5148 34.5289 65.5057 34.2319L65.0059 34.2472ZM65.4247 35.407C65.8366 35.0888 66.914 34.3233 67.9118 33.816L67.6851 33.3703C66.6488 33.8972 65.5439 34.6831 65.119 35.0113L65.4247 35.407ZM67.9118 33.816C68.3993 33.5681 68.9982 33.7944 69.5338 34.3001C69.7928 34.5447 70.0152 34.837 70.1715 35.1222C70.3306 35.4126 70.4089 35.6725 70.4089 35.8555H70.9089C70.9089 35.5537 70.7885 35.2077 70.61 34.8819C70.4286 34.5511 70.1743 34.2172 69.8771 33.9366C69.3002 33.3919 68.4689 32.9718 67.6851 33.3703L67.9118 33.816ZM70.4089 35.8555C70.4089 36.3402 70.4087 37.2967 70.2915 38.2906C70.1726 39.2973 69.9388 40.289 69.5042 40.8782L69.9066 41.175C70.4255 40.4715 70.6684 39.3624 70.788 38.3492C70.9091 37.3231 70.9089 36.3404 70.9089 35.8555H70.4089ZM64.0601 44.4286C63.6831 45.9041 63.1778 47.1607 62.5184 47.9802L62.908 48.2936C63.6346 47.3904 64.1616 46.0509 64.5445 44.5524L64.0601 44.4286ZM69.5042 40.8782C69.2666 41.2004 68.9508 41.6991 68.6116 42.1844C68.2621 42.6845 67.8652 43.2052 67.4249 43.6365C66.983 44.0693 66.5125 44.3969 66.0186 44.5334C65.5354 44.6668 65.0098 44.6233 64.4309 44.2761L64.1738 44.7049C64.8662 45.1201 65.5324 45.1864 66.1517 45.0153C66.7603 44.8472 67.3028 44.456 67.7747 43.9937C68.2481 43.5301 68.6657 42.9797 69.0214 42.4709C69.3874 41.9472 69.6675 41.4992 69.9066 41.175L69.5042 40.8782ZM77.5833 58.1559V45.2281H77.0833V58.1559H77.5833ZM41.6686 58.1559V52.9848H41.1686V58.1559H41.6686ZM41.6686 52.9848V52.0076H41.1686V52.9848H41.6686ZM41.1996 53.1054C41.9499 54.4678 43.3294 56.5231 45.0377 58.2739C46.7375 60.0159 48.8067 61.5019 50.9376 61.6373L50.9693 61.1383C49.032 61.0152 47.0754 59.6463 45.3956 57.9247C43.7244 56.212 42.3705 54.195 41.6376 52.8642L41.1996 53.1054ZM58.8314 58.1559V55.8935H58.3314V58.1559H58.8314ZM58.8314 55.8935V52.3843H58.3314V55.8935H58.8314ZM50.9376 61.6373C53.0595 61.7722 54.8178 60.8431 56.1425 59.6506C57.4653 58.4599 58.3747 56.9908 58.8105 55.9937L58.3523 55.7934C57.9406 56.7354 57.0701 58.1428 55.8079 59.279C54.5476 60.4135 52.9157 61.262 50.9693 61.1383L50.9376 61.6373ZM58.3609 65.0608C59.5438 67.274 61.3429 70.5517 63.1315 73.6419C64.917 76.7267 66.7012 79.641 67.8517 81.116L68.2459 80.8085C67.1201 79.3651 65.3525 76.481 63.5642 73.3914C61.7791 70.3072 59.9827 67.0345 58.8019 64.8251L58.3609 65.0608ZM68.1553 82.6743C67.1628 86.349 64.9663 98.8757 64.689 101.978L65.187 102.022C65.4617 98.9489 67.6532 86.451 68.638 82.8047L68.1553 82.6743ZM41.1981 64.8251C40.0173 67.0345 38.2209 70.3072 36.4358 73.3914C34.6475 76.481 32.8799 79.3651 31.7541 80.8085L32.1483 81.116C33.2988 79.641 35.083 76.7267 36.8685 73.6419C38.6571 70.5517 40.4562 67.274 41.6391 65.0608L41.1981 64.8251ZM31.362 82.8047C32.3468 86.451 34.5383 98.9489 34.813 102.022L35.311 101.978C35.0337 98.8757 32.8372 86.349 31.8447 82.6743L31.362 82.8047ZM41.1686 64.943V71.0836H41.6686V64.943H41.1686ZM41.267 71.2824C42.5649 72.2723 46.1132 74.2424 50 74.2424V73.7424C46.2589 73.7424 42.8149 71.8341 41.5702 70.8849L41.267 71.2824ZM58.4298 70.8849C57.1851 71.8341 53.7411 73.7424 50 73.7424V74.2424C53.8868 74.2424 57.4351 72.2723 58.733 71.2824L58.4298 70.8849ZM58.8314 71.0836V64.943H58.3314V71.0836H58.8314ZM41.1686 71.0836V75.9316H41.6686V71.0836H41.1686ZM41.1686 75.9316V102H41.6686V75.9316H41.1686ZM41.2828 76.1414C42.4829 76.918 45.8772 78.4439 50 78.4439V77.9439C45.9864 77.9439 42.6851 76.4533 41.5544 75.7217L41.2828 76.1414ZM58.4456 75.7217C57.3149 76.4533 54.0136 77.9439 50 77.9439V78.4439C54.1228 78.4439 57.5171 76.918 58.7172 76.1414L58.4456 75.7217ZM58.8314 102V75.9316H58.3314V102H58.8314ZM58.8314 75.9316V71.0836H58.3314V75.9316H58.8314ZM45.8917 28.084C44.9195 27.8477 43.8853 27.8489 43.0078 27.8489V28.3489C43.8955 28.3489 44.8693 28.35 45.7736 28.5698L45.8917 28.084ZM43.0078 27.8489C42.085 27.8489 41.1497 27.9555 40.3271 28.2372L40.4891 28.7102C41.2427 28.4522 42.1189 28.3489 43.0078 28.3489V27.8489ZM54.862 28.5698C55.7663 28.35 56.7401 28.3489 57.6279 28.3489V27.8489C56.7504 27.8489 55.7161 27.8477 54.744 28.084L54.862 28.5698ZM57.6279 28.3489C58.5167 28.3489 59.393 28.4522 60.1465 28.7102L60.3085 28.2372C59.4859 27.9555 58.5506 27.8489 57.6279 27.8489V28.3489ZM35.1138 35.2082C35.1096 36.3184 35.1486 37.6764 35.2597 39.1068L35.7582 39.0681C35.6482 37.6523 35.6096 36.3079 35.6138 35.2101L35.1138 35.2082ZM35.2597 39.1068C35.4029 40.9517 35.6666 42.9247 36.115 44.6448L36.5988 44.5187C36.1607 42.8379 35.9002 40.897 35.7582 39.0681L35.2597 39.1068ZM31.9206 37.3955C32.3275 37.3348 33.149 37.3968 33.9779 37.905L34.2392 37.4787C33.3071 36.9073 32.3665 36.8235 31.8468 36.901L31.9206 37.3955ZM33.9779 37.905C34.4376 38.1868 34.9012 38.6069 35.2989 39.223L35.719 38.9519C35.2801 38.2719 34.7618 37.7991 34.2392 37.4787L33.9779 37.905ZM33.8935 37.5644C33.5881 38.0795 33.1627 38.7126 32.9924 39.376C32.9051 39.7159 32.8804 40.0753 32.972 40.444C33.0638 40.8134 33.2681 41.175 33.6124 41.5251L33.9689 41.1745C33.6776 40.8783 33.5244 40.5935 33.4573 40.3234C33.39 40.0526 33.405 39.7793 33.4766 39.5004C33.6241 38.9261 33.9932 38.3766 34.3236 37.8193L33.8935 37.5644ZM65.0219 35.2101C65.0257 36.2244 64.9931 37.4493 64.9013 38.7466L65.4001 38.7819C65.4927 37.4714 65.5258 36.2341 65.5218 35.2082L65.0219 35.2101ZM64.9013 38.7466C64.7678 40.6349 64.5097 42.6689 64.0601 44.4286L64.5445 44.5524C65.0044 42.7528 65.2655 40.6861 65.4001 38.7819L64.9013 38.7466ZM65.3563 38.9065C65.6363 38.5018 66.1096 37.9665 66.6696 37.578L66.3846 37.1672C65.7645 37.5973 65.2509 38.18 64.9451 38.622L65.3563 38.9065ZM66.6696 37.578C67.3966 37.0738 68.1972 36.8588 68.9295 37.3552L69.2101 36.9414C68.2235 36.2726 67.1801 36.6154 66.3846 37.1672L66.6696 37.578ZM66.3446 37.5434C66.6454 37.8649 67.0544 38.4282 67.2947 39.0586C67.5357 39.6909 67.5919 40.3461 67.2653 40.8996L67.6959 41.1537C68.1322 40.4143 68.0294 39.5822 67.7619 38.8805C67.4937 38.177 67.0446 37.5597 66.7097 37.2018L66.3446 37.5434ZM49.1143 34.5627C49.1143 37.82 46.5187 40.4534 43.3256 40.4534V40.9534C46.8027 40.9534 49.6143 38.0883 49.6143 34.5627H49.1143ZM43.3256 40.4534C40.1325 40.4534 37.5368 37.82 37.5368 34.5627H37.0368C37.0368 38.0883 39.8485 40.9534 43.3256 40.9534V40.4534ZM63.0988 34.5627C63.0988 37.82 60.5032 40.4534 57.3101 40.4534V40.9534C60.7872 40.9534 63.5988 38.0883 63.5988 34.5627H63.0988ZM57.3101 40.4534C54.117 40.4534 51.5213 37.82 51.5213 34.5627H51.0213C51.0213 38.0883 53.833 40.9534 57.3101 40.9534V40.4534ZM45.5683 29.1304C47.6503 30.0216 49.1143 32.1172 49.1143 34.5627H49.6143C49.6143 31.9138 48.028 29.6394 45.7651 28.6708L45.5683 29.1304ZM37.5368 34.5627C37.5368 32.2464 38.8503 30.2439 40.7584 29.2815L40.5333 28.835C38.4602 29.8806 37.0368 32.0536 37.0368 34.5627H37.5368ZM40.6786 29.3061C41.9376 29.1401 43.6656 29.0292 45.6515 29.1501L45.6819 28.651C43.661 28.528 41.9008 28.6406 40.6132 28.8104L40.6786 29.3061ZM59.8772 29.2815C61.7854 30.2439 63.0988 32.2464 63.0988 34.5627H63.5988C63.5988 32.0536 62.1755 29.8806 60.1024 28.835L59.8772 29.2815ZM51.5213 34.5627C51.5213 32.1172 52.9854 30.0216 55.0673 29.1304L54.8706 28.6708C52.6077 29.6394 51.0213 31.9138 51.0213 34.5627H51.5213ZM60.0225 28.8104C58.7349 28.6406 56.9747 28.528 54.9537 28.651L54.9841 29.1501C56.9701 29.0292 58.6981 29.1401 59.9571 29.3061L60.0225 28.8104ZM49.5046 34.7697C49.7773 34.5848 50.4865 34.3328 51.131 34.7697L51.4116 34.3558C50.5305 33.7585 49.5871 34.1097 49.2241 34.3558L49.5046 34.7697ZM44.145 44.1464C45.0202 44.7026 47.397 45.8013 50 45.8013V45.3013C47.5177 45.3013 45.2331 44.2454 44.4132 43.7244L44.145 44.1464ZM50 45.8013C52.6005 45.8013 55.1861 44.7042 56.1617 44.153L55.9158 43.7177C54.9845 44.2438 52.4848 45.3013 50 45.3013V45.8013ZM49.7674 36.4104C49.1264 38.0397 48.8697 39.3805 48.9974 40.3327C49.0617 40.8122 49.2265 41.2138 49.5108 41.4967C49.7991 41.7837 50.1846 41.923 50.6357 41.923V41.423C50.2921 41.423 50.042 41.32 49.8635 41.1423C49.681 40.9607 49.5478 40.6754 49.4929 40.2662C49.3822 39.4407 49.6023 38.196 50.2326 36.5934L49.7674 36.4104ZM50.6357 41.923C51.7172 41.923 52.2891 41.4624 52.4492 41.1369L52.0005 40.9163C51.9486 41.0217 51.5882 41.423 50.6357 41.423V41.923ZM58.6492 34.5627C58.6492 35.3211 58.0457 35.9287 57.3101 35.9287V36.4287C58.3297 36.4287 59.1492 35.5893 59.1492 34.5627H58.6492ZM57.3101 35.9287C56.5744 35.9287 55.9709 35.3211 55.9709 34.5627H55.4709C55.4709 35.5893 56.2904 36.4287 57.3101 36.4287V35.9287ZM55.9709 34.5627C55.9709 33.8044 56.5744 33.1968 57.3101 33.1968V32.6968C56.2904 32.6968 55.4709 33.5361 55.4709 34.5627H55.9709ZM57.3101 33.1968C58.0457 33.1968 58.6492 33.8044 58.6492 34.5627H59.1492C59.1492 33.5362 58.3297 32.6968 57.3101 32.6968V33.1968ZM44.6647 34.6972C44.6647 35.4556 44.0612 36.0632 43.3256 36.0632V36.5632C44.3452 36.5632 45.1647 35.7238 45.1647 34.6972H44.6647ZM43.3256 36.0632C42.5899 36.0632 41.9864 35.4556 41.9864 34.6972H41.4864C41.4864 35.7238 42.3059 36.5632 43.3256 36.5632V36.0632ZM41.9864 34.6972C41.9864 33.9388 42.5899 33.3312 43.3256 33.3312V32.8312C42.3059 32.8312 41.4864 33.6706 41.4864 34.6972H41.9864ZM43.3256 33.3312C44.0612 33.3312 44.6647 33.9388 44.6647 34.6972H45.1647C45.1647 33.6706 44.3452 32.8312 43.3256 32.8312V33.3312ZM60.1465 28.7102C60.184 28.723 60.2073 28.7367 60.221 28.747C60.2344 28.7571 60.2382 28.7637 60.2384 28.7641C60.2385 28.7642 60.2372 28.7616 60.237 28.7572C60.2368 28.7532 60.2377 28.7515 60.2371 28.753C60.2354 28.7569 60.1871 28.8321 60.0225 28.8104L59.9571 29.3061C60.2821 29.349 60.5862 29.2118 60.6978 28.9474C60.7545 28.813 60.7521 28.6575 60.6743 28.5191C60.5984 28.3842 60.4662 28.2912 60.3085 28.2372L60.1465 28.7102ZM40.3271 28.2372C40.1695 28.2912 40.0372 28.3842 39.9614 28.5191C39.8836 28.6575 39.8812 28.813 39.9379 28.9474C40.0495 29.2118 40.3536 29.349 40.6786 29.3061L40.6132 28.8104C40.4486 28.8321 40.4002 28.7569 40.3985 28.753C40.3979 28.7515 40.3989 28.7532 40.3987 28.7572C40.3985 28.7616 40.3972 28.7642 40.3973 28.7641C40.3975 28.7637 40.4013 28.7571 40.4147 28.747C40.4283 28.7367 40.4517 28.723 40.4891 28.7102L40.3271 28.2372ZM54.744 28.084C54.5843 28.1228 54.4455 28.2002 54.3558 28.3215C54.2633 28.4468 54.239 28.5994 54.2815 28.7408C54.3654 29.0199 54.6633 29.1697 54.9841 29.1501L54.9537 28.651C54.8718 28.656 54.8192 28.6388 54.7908 28.6226C54.7614 28.6059 54.7589 28.5921 54.7603 28.5968C54.761 28.5992 54.7618 28.6041 54.7607 28.6102C54.7596 28.6164 54.7574 28.6193 54.758 28.6185C54.7594 28.6167 54.7816 28.5894 54.862 28.5698L54.744 28.084ZM31.7541 80.8085C31.5473 81.0737 31.4098 81.4182 31.3427 81.7653C31.2756 82.1125 31.275 82.4827 31.362 82.8047L31.8447 82.6743C31.7815 82.4403 31.7778 82.1489 31.8336 81.8601C31.8895 81.5711 32.001 81.305 32.1483 81.116L31.7541 80.8085ZM67.8517 81.116C67.999 81.305 68.1105 81.5711 68.1664 81.8601C68.2222 82.1489 68.2185 82.4403 68.1553 82.6743L68.638 82.8047C68.725 82.4827 68.7244 82.1125 68.6573 81.7653C68.5902 81.4182 68.4527 81.0737 68.2459 80.8085L67.8517 81.116ZM61.0549 27.1165C61.3825 27.0921 61.693 27.274 61.8304 27.5709L62.2842 27.3609C62.0587 26.8737 61.5518 26.5782 61.0179 26.6179L61.0549 27.1165ZM45.7736 28.5698C45.8541 28.5894 45.8762 28.6167 45.8776 28.6185C45.8782 28.6193 45.876 28.6164 45.8749 28.6102C45.8739 28.6041 45.8747 28.5992 45.8754 28.5968C45.8768 28.5921 45.8743 28.6059 45.8449 28.6226C45.8165 28.6388 45.7638 28.656 45.6819 28.651L45.6515 29.1501C45.9724 29.1697 46.2703 29.0199 46.3542 28.7408C46.3967 28.5994 46.3723 28.4468 46.2798 28.3215C46.1902 28.2002 46.0514 28.1228 45.8917 28.084L45.7736 28.5698ZM35.2485 33.9381C35.1718 34.0974 35.1283 34.2704 35.124 34.4499L35.6239 34.4618C35.6264 34.3562 35.6519 34.2529 35.6989 34.1552L35.2485 33.9381ZM39.9317 22.847C40.0948 22.3341 40.7567 22.1172 41.2314 22.4359L41.5102 22.0208C40.787 21.5352 39.7293 21.8334 39.4552 22.6955L39.9317 22.847ZM24.3023 57.9059C23.8881 57.9059 23.5523 57.5701 23.5523 57.1559H23.0523C23.0523 57.8462 23.612 58.4059 24.3023 58.4059V57.9059Z" fill="#242129"/>
</g>
</svg>
