<svg width="224" height="224" viewBox="0 0 224 224" fill="none" xmlns="http://www.w3.org/2000/svg">
<path d="M112 224C173.856 224 224 173.856 224 112C224 50.1441 173.856 0 112 0C50.1441 0 0 50.1441 0 112C0 173.856 50.1441 224 112 224Z" fill="#FF1369"/>
<mask id="mask0" mask-type="alpha" maskUnits="userSpaceOnUse" x="0" y="0" width="224" height="224">
<path d="M112 224C173.856 224 224 173.856 224 112C224 50.1441 173.856 0 112 0C50.1441 0 0 50.1441 0 112C0 173.856 50.1441 224 112 224Z" fill="#C4C4C4"/>
</mask>
<g mask="url(#mask0)">
<path d="M50.3029 182.69C34.6753 193.721 26.6828 214.099 24.6399 222.908H201.6C199.557 214.099 191.564 193.721 175.937 182.69C168.508 177.446 160.802 174.252 154.104 171.696C148.742 175.413 130.28 184.988 113.12 184.988C95.9601 184.988 77.4981 175.413 72.1357 171.696C65.4379 174.252 57.7319 177.446 50.3029 182.69Z" fill="#242129"/>
<path d="M113.12 142.471C108.141 142.471 100.863 141.323 96.2666 136.726C94.6187 135.078 92.9075 133.399 91.2871 131.543V134.046C95.2452 141.068 105.842 155.112 116.567 155.112C127.292 155.112 133.293 146.685 134.953 142.471V131.543C133.332 133.399 131.621 135.078 129.973 136.726C125.377 141.323 118.099 142.471 113.12 142.471Z" fill="#242129"/>
<path d="M82.2042 93.4442C82.1569 92.4825 82.1199 91.7075 82.0946 91.1459C81.9459 87.8782 87.0739 78.8898 87.0739 63.9514C96.6497 66.7604 120.168 70.3865 137.634 62.4195C137.634 84.6351 144.145 87.0588 144.145 91.1459C144.12 91.7075 144.083 92.4825 144.036 93.4439C144.877 91.6322 146.778 88.5735 149.125 87.0588C148.742 83.9528 147.976 77.7406 149.125 67.7818C150.274 57.823 142.963 34.62 129.973 33.6922C113.886 32.543 107.375 42.5019 101.629 44.034C95.8836 45.5662 84.3532 48.6489 79.4133 57.823C74.0508 67.7818 79.6443 82.3125 78.1883 87.8782C80.0343 89.5058 81.4954 91.9176 82.2042 93.4442Z" fill="#242129"/>
<path d="M117.716 79.6556C122.057 78.6342 131.812 78.2 136.102 84.6349C133.804 83.2304 126.909 80.2685 117.716 79.6556Z" fill="#242129"/>
<path d="M106.608 79.6556C102.267 78.6342 92.5127 78.2 88.2229 84.6349C90.5211 83.2304 97.4156 80.2685 106.608 79.6556Z" fill="#242129"/>
<path d="M131.122 90.7635C131.122 92.879 129.408 94.5939 127.292 94.5939C125.177 94.5939 123.462 92.879 123.462 90.7635C123.462 88.6483 125.177 86.9333 127.292 86.9333C129.408 86.9333 131.122 88.6483 131.122 90.7635Z" fill="#242129"/>
<path d="M101.246 90.7635C101.246 92.879 99.5311 94.5939 97.4156 94.5939C95.3001 94.5939 93.5852 92.879 93.5852 90.7635C93.5852 88.6483 95.3001 86.9333 97.4156 86.9333C99.5311 86.9333 101.246 88.6483 101.246 90.7635Z" fill="#242129"/>
<path d="M103.161 114.512C104.183 115.661 107.604 117.959 113.12 117.959C118.635 117.959 121.802 116.171 122.696 115.278L112.928 114.895L103.161 114.512Z" fill="#242129"/>
<path d="M91.2871 158.176C91.2871 165.06 83.0499 167.53 72.1357 171.696M91.2871 158.176V134.046M91.2871 158.176C91.2871 152.508 91.2871 141.121 91.2871 134.046M72.1357 171.696C65.4379 174.252 57.7319 177.446 50.3029 182.69C34.6753 193.721 26.6828 214.099 24.6399 222.908H201.6C199.557 214.099 191.564 193.721 175.937 182.69C168.508 177.446 160.802 174.252 154.104 171.696M72.1357 171.696C77.4981 175.412 95.9601 184.988 113.12 184.988C130.28 184.988 148.742 175.412 154.104 171.696M91.2871 134.046V131.543M91.2871 134.046C91.2871 133.133 91.2871 132.291 91.2871 131.543M91.2871 134.046C95.2451 141.068 105.842 155.113 116.567 155.113C127.292 155.113 133.293 146.685 134.953 142.471M83.2434 112.213C83.7898 121.227 87.2584 126.93 91.2871 131.543M83.2434 112.213C76.732 114.128 70.9866 105.318 69.4545 99.5726C67.9223 93.8272 69.4545 86.5494 74.0507 86.1664C75.5298 86.0432 76.9461 86.7833 78.1882 87.8782M83.2434 112.213C83.0143 108.432 82.8138 104.926 82.6458 101.871M83.2434 112.213L82.6458 101.871M91.2871 131.543C92.9075 133.399 94.6186 135.079 96.2666 136.727C100.863 141.323 108.141 142.471 113.12 142.471C118.099 142.471 125.377 141.323 129.973 136.727C131.621 135.078 133.332 133.399 134.953 131.543M78.1882 87.8782C80.0342 89.5058 81.4953 91.9176 82.2041 93.4442M78.1882 87.8782C79.6442 82.3125 74.0507 67.7818 79.4133 57.823C84.3531 48.6489 95.8835 45.5662 101.629 44.034C107.375 42.5019 113.886 32.543 129.973 33.6922C142.963 34.62 150.274 57.823 149.125 67.7818C147.976 77.7406 148.742 83.9528 149.125 87.0588M82.6458 101.871C82.4543 98.3894 82.3051 95.4933 82.2041 93.4442M82.6458 101.871L82.2041 93.4442M82.6458 101.871C81.9725 100.595 80.3702 98.3715 77.9918 96.5092M134.953 131.543C138.981 126.929 142.45 121.227 142.996 112.212M134.953 131.543V142.471M134.953 131.543C134.953 134.285 134.953 138.282 134.953 142.471M154.104 171.696C143.19 167.53 134.953 165.06 134.953 158.176M82.2041 93.4442C82.1568 92.4825 82.1199 91.7075 82.0945 91.1459C81.9458 87.8782 87.0738 78.8898 87.0738 63.9514C96.6496 66.7604 120.168 70.3865 137.634 62.4195C137.634 84.6351 144.145 87.0588 144.145 91.1459C144.12 91.7075 144.083 92.4825 144.036 93.4439M144.036 93.4439C143.846 97.2909 143.486 104.122 142.996 112.212M144.036 93.4439L142.996 112.212M144.036 93.4439C144.877 91.6322 146.778 88.5735 149.125 87.0588M134.953 158.176V142.471M134.953 158.176C134.953 154.458 134.953 148.279 134.953 142.471M142.996 112.212C149.508 114.128 155.253 105.318 156.785 99.5726C158.317 93.8272 156.785 86.5494 152.189 86.1664C151.121 86.0775 150.085 86.4388 149.125 87.0588M110.439 93.4442V104.936C110.439 106.851 110.745 109.915 113.503 109.915C116.261 109.915 117.716 108.766 117.716 106.851M77.9918 96.5092C76.5638 95.3907 74.856 94.4027 72.9018 93.8279M77.9918 96.5092C76.4229 97.5306 73.8975 100.416 76.3489 103.787M143.488 103.787C144.161 102.51 145.763 100.287 148.142 98.4241M148.142 98.4241C149.57 97.3059 151.277 96.3179 153.232 95.7431M148.142 98.4241C149.711 99.4456 152.236 102.331 149.784 105.702M103.161 114.512C104.183 115.661 107.604 117.959 113.12 117.959C118.635 117.959 121.802 116.171 122.696 115.278L112.928 114.895L103.161 114.512ZM117.716 79.6558C122.057 78.6344 131.812 78.2003 136.102 84.6351C133.804 83.2307 126.909 80.2687 117.716 79.6558ZM106.608 79.6558C102.267 78.6344 92.5128 78.2003 88.223 84.6351C90.5212 83.2307 97.4157 80.2687 106.608 79.6558ZM131.122 90.7636C131.122 92.879 129.407 94.594 127.292 94.594C125.177 94.594 123.462 92.879 123.462 90.7636C123.462 88.6483 125.177 86.9334 127.292 86.9334C129.407 86.9334 131.122 88.6483 131.122 90.7636ZM101.246 90.7636C101.246 92.879 99.5312 94.594 97.4157 94.594C95.3002 94.594 93.5853 92.879 93.5853 90.7636C93.5853 88.6483 95.3002 86.9334 97.4157 86.9334C99.5312 86.9334 101.246 88.6483 101.246 90.7636Z" stroke="#242129" stroke-linecap="round" stroke-linejoin="round"/>
<path d="M103.161 94.5942C101.629 95.9987 98.1818 98.3326 95.1174 99.8645M121.93 94.5942C123.462 95.9987 126.526 98.3326 129.59 99.8645L121.93 94.5942Z" stroke="#242129" stroke-width="0.5" stroke-linecap="round" stroke-linejoin="round"/>
</g>
</svg>
