<svg width="224" height="224" viewBox="0 0 224 224" fill="none" xmlns="http://www.w3.org/2000/svg">
<circle cx="112" cy="112" r="112" fill="#FF1369"/>
<mask id="mask0" mask-type="alpha" maskUnits="userSpaceOnUse" x="0" y="0" width="224" height="224">
<circle cx="112" cy="112" r="112" fill="#C4C4C4"/>
</mask>
<g mask="url(#mask0)">
<path d="M52.1971 129.269C52.1971 129.821 52.6448 130.269 53.1971 130.269H92.7776V118.686V116.497C89.8449 113.758 87.2567 110.698 84.9463 107.827C83.4257 105.937 82.2852 103.108 81.4393 99.863C75.0846 101.311 70.7075 93.3474 69.2836 89.0037C67.8598 84.66 67.8598 78.1444 70.7075 75.2486C72.9857 72.9319 77.3283 76.6965 79.2148 78.8683C79.2175 78.1693 79.2279 77.5145 79.2445 76.9128C79.2484 76.7702 79.282 76.6333 79.3445 76.505C83.0281 68.9442 87.3718 55.9944 89.4824 49.1969C89.6963 48.5079 90.5465 48.2579 91.1226 48.6923C97.9649 53.8517 114.953 62.0488 137.616 60.1109C138.046 60.0741 138.458 60.3128 138.635 60.7066C139.711 63.0963 141.773 67.3522 143.325 69.4569C145.034 71.7736 145.936 75.2486 146.173 76.6965C146.193 77.3565 146.206 78.0847 146.209 78.8683C147.146 78.1444 149.59 76.4069 151.868 75.2486C154.716 73.8007 158.276 78.1444 158.276 80.3163C158.276 82.4881 158.276 89.0037 156.14 91.8995C154.004 94.7953 149.733 103.074 144.037 99.6587C143.186 102.99 142.03 105.897 140.477 107.827C137.927 110.997 134.812 114.397 131.222 117.341V125.201V130.269H173.227V101.311C173.227 89.0037 168.955 86.1079 161.836 76.6965C154.716 67.2851 154.004 49.9102 146.885 38.3269C139.766 26.7436 129.798 22.3999 114.848 22.3999C104.169 22.3999 87.0821 26.0197 79.2508 39.7748C71.4194 53.5299 72.1314 70.9048 61.4523 81.7642C52.1971 91.1756 52.1971 100.587 52.1971 106.379V129.269Z" fill="#242129"/>
<path d="M112 125.201C104.261 125.201 97.9778 121.354 92.7776 116.497V118.686C96.1 124.719 105.023 136.929 114.136 137.509C123.249 138.088 129.324 129.545 131.222 125.201V117.341C125.796 121.792 119.285 125.201 112 125.201Z" fill="#242129"/>
<path d="M129.086 62.9413C127.015 62.9413 124.646 62.9413 122.46 63.5286C121.472 63.7939 121.802 64.8239 122.822 64.7567C122.925 64.7499 123.028 64.7434 123.13 64.7372C127.618 64.4639 131.525 64.7142 134.377 65.0904C134.478 65.1037 134.578 65.1173 134.677 65.1309C135.691 65.2713 136.154 64.239 135.194 63.8826C133.364 63.2027 131.225 62.9413 129.086 62.9413Z" fill="#242129"/>
<path d="M102.601 64.7567C103.621 64.8239 103.951 63.7939 102.964 63.5286C100.778 62.9413 98.4085 62.9413 96.3373 62.9413C94.1983 62.9413 92.0593 63.2027 90.2293 63.8826C89.2701 64.2389 89.7332 65.2713 90.7468 65.1309C90.8454 65.1173 90.9454 65.1037 91.0467 65.0904C93.8989 64.7142 97.8056 64.4639 102.293 64.7372C102.396 64.7434 102.498 64.7499 102.601 64.7567Z" fill="#242129"/>
<path d="M131.934 77.4204C131.934 79.4196 130.34 81.0402 128.374 81.0402C126.409 81.0402 124.815 79.4196 124.815 77.4204C124.815 75.4213 126.409 73.8007 128.374 73.8007C130.34 73.8007 131.934 75.4213 131.934 77.4204Z" fill="#242129"/>
<path d="M100.609 77.7216C100.609 79.7208 99.0152 81.3414 97.0492 81.3414C95.0833 81.3414 93.4895 79.7208 93.4895 77.7216C93.4895 75.7225 95.0833 74.1019 97.0492 74.1019C99.0152 74.1019 100.609 75.7225 100.609 77.7216Z" fill="#242129"/>
<path d="M112 165.743C103.457 165.743 95.6253 161.399 92.7776 159.227V170.087C95.388 171.776 102.887 175.154 112 175.154C121.113 175.154 128.612 171.776 131.222 170.087V159.227C128.374 161.399 120.543 165.743 112 165.743Z" fill="#242129"/>
<path d="M19.3235 228.223C19.1816 228.685 19.4409 229.174 19.9029 229.316C20.3648 229.458 20.8544 229.199 20.9963 228.737L19.3235 228.223ZM42.23 178.05L41.6941 177.358L41.6941 177.358L42.23 178.05ZM52.1971 106.379L53.0721 106.379L52.1971 106.379ZM61.4523 81.7642L60.8284 81.1506L61.4523 81.7642ZM173.227 130.269V131.144C173.71 131.144 174.102 130.752 174.102 130.269H173.227ZM203.004 228.737C203.145 229.199 203.635 229.458 204.097 229.316C204.559 229.174 204.818 228.685 204.676 228.223L203.004 228.737ZM181.77 178.05L182.306 177.358L182.306 177.358L181.77 178.05ZM84.9463 107.827L85.628 107.278L85.628 107.278L84.9463 107.827ZM146.173 76.6965L147.048 76.6696C147.046 76.6312 147.043 76.5929 147.036 76.555L146.173 76.6965ZM140.477 107.827L141.159 108.375L141.159 108.375L140.477 107.827ZM92.7776 116.497L93.3748 115.857L93.3748 115.857L92.7776 116.497ZM79.2148 78.8683L80.0898 78.8717L80.0898 78.8717L79.2148 78.8683ZM70.7075 75.2486L71.3314 75.8621L70.7075 75.2486ZM81.4393 99.863L82.286 99.6423L82.286 99.6423L81.4393 99.863ZM146.209 78.8683L145.334 78.8717L146.209 78.8683ZM151.868 75.2486L151.472 74.4686L151.472 74.4686L151.868 75.2486ZM91.9026 228.48C91.9026 228.963 92.2943 229.355 92.7776 229.355C93.2608 229.355 93.6526 228.963 93.6526 228.48H91.9026ZM130.347 228.48C130.347 228.963 130.739 229.355 131.222 229.355C131.705 229.355 132.097 228.963 132.097 228.48H130.347ZM144.589 228.402C144.546 228.883 144.902 229.308 145.383 229.351C145.864 229.394 146.289 229.039 146.333 228.558L144.589 228.402ZM77.6673 228.558C77.7103 229.039 78.1354 229.394 78.6167 229.351C79.0981 229.308 79.4534 228.883 79.4104 228.402L77.6673 228.558ZM71.2903 82.3467C70.8123 82.418 70.4827 82.8633 70.554 83.3412C70.6254 83.8192 71.0707 84.1488 71.5486 84.0775L71.2903 82.3467ZM75.0672 93.237C75.406 93.5816 75.96 93.5862 76.3046 93.2474C76.6492 92.9085 76.6538 92.3545 76.315 92.01L75.0672 93.237ZM145.937 86.8318L145.065 86.7701L145.937 86.8318ZM154.225 83.9363C154.625 84.2075 155.169 84.1031 155.44 83.7031C155.712 83.3031 155.607 82.759 155.207 82.4878L154.225 83.9363ZM150.403 91.4549C150.157 91.8711 150.296 92.4075 150.712 92.6531C151.128 92.8987 151.665 92.7604 151.91 92.3442L150.403 91.4549ZM99.6544 97.6766C99.2465 97.4174 98.7058 97.5379 98.4465 97.9458C98.1873 98.3536 98.3078 98.8944 98.7157 99.1536L99.6544 97.6766ZM125.957 99.1769C126.378 98.9392 126.526 98.4055 126.289 97.9847C126.051 97.564 125.517 97.4156 125.096 97.6533L125.957 99.1769ZM112.814 82.0845C112.991 81.6348 112.77 81.1268 112.32 80.9499C111.871 80.773 111.363 80.9941 111.186 81.4439L112.814 82.0845ZM117.769 92.2856C117.982 91.8519 117.803 91.3275 117.37 91.1143C116.936 90.9011 116.411 91.0798 116.198 91.5134L117.769 92.2856ZM135.194 63.8826L134.89 64.7028L135.194 63.8826ZM134.677 65.1309L134.797 64.2642L134.677 65.1309ZM90.2293 63.8826L89.9246 63.0624L90.2293 63.8826ZM90.7468 65.1309L90.8669 65.9976L90.7468 65.1309ZM122.46 63.5286L122.687 64.3737L122.46 63.5286ZM122.822 64.7567L122.88 65.6298L122.822 64.7567ZM70.7339 182.369L70.0795 181.788L70.0795 181.788L70.7339 182.369ZM70.4172 184.064L69.5864 184.339L70.4172 184.064ZM153.266 182.369L152.611 182.95L153.266 182.369ZM153.583 184.064L152.752 183.79L153.583 184.064ZM137.616 60.1109L137.541 59.2391L137.616 60.1109ZM138.635 60.7066L139.433 60.3473L138.635 60.7066ZM102.964 63.5286L102.737 64.3737L102.964 63.5286ZM102.601 64.7567L102.544 65.6298L102.601 64.7567ZM79.3445 76.505L80.1311 76.8883L79.3445 76.505ZM79.2445 76.9128L78.3698 76.8886L79.2445 76.9128ZM89.4824 49.1969L90.318 49.4564L89.4824 49.1969ZM91.1226 48.6923L91.6494 47.9936L91.1226 48.6923ZM20.9963 228.737C22.2073 224.796 24.7031 214.608 28.4241 204.137C30.2793 198.917 32.425 193.672 34.8406 189.167C37.2646 184.646 39.9206 180.946 42.7659 178.742L41.6941 177.358C38.5591 179.787 35.7628 183.743 33.2983 188.34C30.8252 192.952 28.6458 198.288 26.7752 203.551C23.0446 214.048 20.4856 224.441 19.3235 228.223L20.9963 228.737ZM42.7659 178.742C50.1722 173.004 61.4771 167.075 71.6649 161.441C76.7374 158.636 81.5284 155.905 85.3676 153.325C89.169 150.77 92.1786 148.275 93.5366 145.908L92.0186 145.037C90.8848 147.013 88.1989 149.314 84.3915 151.872C80.6218 154.405 75.8907 157.104 70.818 159.909C60.7156 165.497 49.2385 171.513 41.6941 177.358L42.7659 178.742ZM93.6526 145.472V130.269H91.9026V145.472H93.6526ZM92.7776 129.394H53.1971V131.144H92.7776V129.394ZM53.0721 129.269V106.379H51.3221V129.269H53.0721ZM53.0721 106.379C53.0721 100.639 53.074 91.5318 62.0762 82.3777L60.8284 81.1506C51.3202 90.8193 51.3221 100.535 51.3221 106.379L53.0721 106.379ZM62.0762 82.3777C67.5833 76.7776 70.1221 69.5263 72.2603 62.0974C74.4158 54.6085 76.1619 46.9686 80.0112 40.2077L78.4904 39.3419C74.5083 46.3361 72.6947 54.2612 70.5786 61.6134C68.4452 69.0256 66.0004 75.8914 60.8284 81.1506L62.0762 82.3777ZM80.0112 40.2077C87.6013 26.8763 104.26 23.2749 114.848 23.2749V21.5249C104.077 21.5249 86.5629 25.1631 78.4904 39.3419L80.0112 40.2077ZM131.222 131.144H173.227V129.394H131.222V131.144ZM174.102 130.269C174.102 130.258 174.102 130.247 174.102 130.236C174.102 130.226 174.102 130.215 174.102 130.204C174.102 130.193 174.102 130.182 174.102 130.171C174.102 130.16 174.102 130.149 174.102 130.138C174.102 130.126 174.102 130.115 174.102 130.104C174.102 130.093 174.102 130.082 174.102 130.071C174.102 130.059 174.102 130.048 174.102 130.037C174.102 130.026 174.102 130.014 174.102 130.003C174.102 129.992 174.102 129.98 174.102 129.969C174.102 129.958 174.102 129.946 174.102 129.935C174.102 129.923 174.102 129.912 174.102 129.9C174.102 129.889 174.102 129.877 174.102 129.866C174.102 129.854 174.102 129.843 174.102 129.831C174.102 129.819 174.102 129.808 174.102 129.796C174.102 129.784 174.102 129.773 174.102 129.761C174.102 129.749 174.102 129.737 174.102 129.726C174.102 129.714 174.102 129.702 174.102 129.69C174.102 129.678 174.102 129.666 174.102 129.655C174.102 129.643 174.102 129.631 174.102 129.619C174.102 129.607 174.102 129.595 174.102 129.583C174.102 129.571 174.102 129.559 174.102 129.547C174.102 129.534 174.102 129.522 174.102 129.51C174.102 129.498 174.102 129.486 174.102 129.474C174.102 129.461 174.102 129.449 174.102 129.437C174.102 129.425 174.102 129.412 174.102 129.4C174.102 129.388 174.102 129.375 174.102 129.363C174.102 129.351 174.102 129.338 174.102 129.326C174.102 129.313 174.102 129.301 174.102 129.289C174.102 129.276 174.102 129.264 174.102 129.251C174.102 129.238 174.102 129.226 174.102 129.213C174.102 129.201 174.102 129.188 174.102 129.175C174.102 129.163 174.102 129.15 174.102 129.137C174.102 129.125 174.102 129.112 174.102 129.099C174.102 129.086 174.102 129.074 174.102 129.061C174.102 129.048 174.102 129.035 174.102 129.022C174.102 129.009 174.102 128.997 174.102 128.984C174.102 128.971 174.102 128.958 174.102 128.945C174.102 128.932 174.102 128.919 174.102 128.906C174.102 128.893 174.102 128.88 174.102 128.866C174.102 128.853 174.102 128.84 174.102 128.827C174.102 128.814 174.102 128.801 174.102 128.788C174.102 128.774 174.102 128.761 174.102 128.748C174.102 128.735 174.102 128.721 174.102 128.708C174.102 128.695 174.102 128.681 174.102 128.668C174.102 128.655 174.102 128.641 174.102 128.628C174.102 128.615 174.102 128.601 174.102 128.588C174.102 128.574 174.102 128.561 174.102 128.547C174.102 128.534 174.102 128.52 174.102 128.506C174.102 128.493 174.102 128.479 174.102 128.466C174.102 128.452 174.102 128.438 174.102 128.425C174.102 128.411 174.102 128.397 174.102 128.384C174.102 128.37 174.102 128.356 174.102 128.342C174.102 128.329 174.102 128.315 174.102 128.301C174.102 128.287 174.102 128.273 174.102 128.259C174.102 128.245 174.102 128.232 174.102 128.218C174.102 128.204 174.102 128.19 174.102 128.176C174.102 128.162 174.102 128.148 174.102 128.134C174.102 128.12 174.102 128.106 174.102 128.091C174.102 128.077 174.102 128.063 174.102 128.049C174.102 128.035 174.102 128.021 174.102 128.007C174.102 127.992 174.102 127.978 174.102 127.964C174.102 127.95 174.102 127.935 174.102 127.921C174.102 127.907 174.102 127.893 174.102 127.878C174.102 127.864 174.102 127.849 174.102 127.835C174.102 127.821 174.102 127.806 174.102 127.792C174.102 127.777 174.102 127.763 174.102 127.748C174.102 127.734 174.102 127.719 174.102 127.705C174.102 127.69 174.102 127.676 174.102 127.661C174.102 127.647 174.102 127.632 174.102 127.617C174.102 127.603 174.102 127.588 174.102 127.573C174.102 127.559 174.102 127.544 174.102 127.529C174.102 127.514 174.102 127.5 174.102 127.485C174.102 127.47 174.102 127.455 174.102 127.44C174.102 127.426 174.102 127.411 174.102 127.396C174.102 127.381 174.102 127.366 174.102 127.351C174.102 127.336 174.102 127.321 174.102 127.306C174.102 127.291 174.102 127.276 174.102 127.261C174.102 127.246 174.102 127.231 174.102 127.216C174.102 127.201 174.102 127.186 174.102 127.171C174.102 127.156 174.102 127.141 174.102 127.125C174.102 127.11 174.102 127.095 174.102 127.08C174.102 127.065 174.102 127.049 174.102 127.034C174.102 127.019 174.102 127.003 174.102 126.988C174.102 126.973 174.102 126.958 174.102 126.942C174.102 126.927 174.102 126.911 174.102 126.896C174.102 126.881 174.102 126.865 174.102 126.85C174.102 126.834 174.102 126.819 174.102 126.803C174.102 126.788 174.102 126.772 174.102 126.757C174.102 126.741 174.102 126.726 174.102 126.71C174.102 126.694 174.102 126.679 174.102 126.663C174.102 126.648 174.102 126.632 174.102 126.616C174.102 126.601 174.102 126.585 174.102 126.569C174.102 126.553 174.102 126.538 174.102 126.522C174.102 126.506 174.102 126.49 174.102 126.475C174.102 126.459 174.102 126.443 174.102 126.427C174.102 126.411 174.102 126.395 174.102 126.379C174.102 126.363 174.102 126.348 174.102 126.332C174.102 126.316 174.102 126.3 174.102 126.284C174.102 126.268 174.102 126.252 174.102 126.236C174.102 126.22 174.102 126.204 174.102 126.187C174.102 126.171 174.102 126.155 174.102 126.139C174.102 126.123 174.102 126.107 174.102 126.091C174.102 126.075 174.102 126.058 174.102 126.042C174.102 126.026 174.102 126.01 174.102 125.993C174.102 125.977 174.102 125.961 174.102 125.945C174.102 125.928 174.102 125.912 174.102 125.896C174.102 125.879 174.102 125.863 174.102 125.847C174.102 125.83 174.102 125.814 174.102 125.797C174.102 125.781 174.102 125.765 174.102 125.748C174.102 125.732 174.102 125.715 174.102 125.699C174.102 125.682 174.102 125.666 174.102 125.649C174.102 125.633 174.102 125.616 174.102 125.599C174.102 125.583 174.102 125.566 174.102 125.55C174.102 125.533 174.102 125.516 174.102 125.5C174.102 125.483 174.102 125.466 174.102 125.449C174.102 125.433 174.102 125.416 174.102 125.399C174.102 125.383 174.102 125.366 174.102 125.349C174.102 125.332 174.102 125.315 174.102 125.298C174.102 125.282 174.102 125.265 174.102 125.248C174.102 125.231 174.102 125.214 174.102 125.197C174.102 125.18 174.102 125.163 174.102 125.146C174.102 125.129 174.102 125.112 174.102 125.095C174.102 125.078 174.102 125.061 174.102 125.044C174.102 125.027 174.102 125.01 174.102 124.993C174.102 124.976 174.102 124.959 174.102 124.942C174.102 124.925 174.102 124.908 174.102 124.891C174.102 124.873 174.102 124.856 174.102 124.839C174.102 124.822 174.102 124.805 174.102 124.787C174.102 124.77 174.102 124.753 174.102 124.736C174.102 124.718 174.102 124.701 174.102 124.684C174.102 124.666 174.102 124.649 174.102 124.632C174.102 124.614 174.102 124.597 174.102 124.58C174.102 124.562 174.102 124.545 174.102 124.527C174.102 124.51 174.102 124.493 174.102 124.475C174.102 124.458 174.102 124.44 174.102 124.423C174.102 124.405 174.102 124.388 174.102 124.37C174.102 124.353 174.102 124.335 174.102 124.317C174.102 124.3 174.102 124.282 174.102 124.265C174.102 124.247 174.102 124.229 174.102 124.212C174.102 124.194 174.102 124.176 174.102 124.159C174.102 124.141 174.102 124.123 174.102 124.106C174.102 124.088 174.102 124.07 174.102 124.052C174.102 124.035 174.102 124.017 174.102 123.999C174.102 123.981 174.102 123.964 174.102 123.946C174.102 123.928 174.102 123.91 174.102 123.892C174.102 123.874 174.102 123.856 174.102 123.839C174.102 123.821 174.102 123.803 174.102 123.785C174.102 123.767 174.102 123.749 174.102 123.731C174.102 123.713 174.102 123.695 174.102 123.677C174.102 123.659 174.102 123.641 174.102 123.623C174.102 123.605 174.102 123.587 174.102 123.569C174.102 123.551 174.102 123.532 174.102 123.514C174.102 123.496 174.102 123.478 174.102 123.46C174.102 123.442 174.102 123.424 174.102 123.405C174.102 123.387 174.102 123.369 174.102 123.351C174.102 123.333 174.102 123.314 174.102 123.296C174.102 123.278 174.102 123.26 174.102 123.241C174.102 123.223 174.102 123.205 174.102 123.186C174.102 123.168 174.102 123.15 174.102 123.131C174.102 123.113 174.102 123.095 174.102 123.076C174.102 123.058 174.102 123.04 174.102 123.021C174.102 123.003 174.102 122.984 174.102 122.966C174.102 122.947 174.102 122.929 174.102 122.91C174.102 122.892 174.102 122.874 174.102 122.855C174.102 122.836 174.102 122.818 174.102 122.799C174.102 122.781 174.102 122.762 174.102 122.744C174.102 122.725 174.102 122.707 174.102 122.688C174.102 122.669 174.102 122.651 174.102 122.632C174.102 122.613 174.102 122.595 174.102 122.576C174.102 122.557 174.102 122.539 174.102 122.52C174.102 122.501 174.102 122.483 174.102 122.464C174.102 122.445 174.102 122.426 174.102 122.408C174.102 122.389 174.102 122.37 174.102 122.351C174.102 122.332 174.102 122.314 174.102 122.295C174.102 122.276 174.102 122.257 174.102 122.238C174.102 122.219 174.102 122.201 174.102 122.182C174.102 122.163 174.102 122.144 174.102 122.125C174.102 122.106 174.102 122.087 174.102 122.068C174.102 122.049 174.102 122.03 174.102 122.011C174.102 121.992 174.102 121.973 174.102 121.954C174.102 121.935 174.102 121.916 174.102 121.897C174.102 121.878 174.102 121.859 174.102 121.84C174.102 121.821 174.102 121.802 174.102 121.783C174.102 121.764 174.102 121.744 174.102 121.725C174.102 121.706 174.102 121.687 174.102 121.668C174.102 121.649 174.102 121.63 174.102 121.61C174.102 121.591 174.102 121.572 174.102 121.553C174.102 121.534 174.102 121.514 174.102 121.495C174.102 121.476 174.102 121.457 174.102 121.437C174.102 121.418 174.102 121.399 174.102 121.379C174.102 121.36 174.102 121.341 174.102 121.322C174.102 121.302 174.102 121.283 174.102 121.264C174.102 121.244 174.102 121.225 174.102 121.205C174.102 121.186 174.102 121.167 174.102 121.147C174.102 121.128 174.102 121.108 174.102 121.089C174.102 121.07 174.102 121.05 174.102 121.031C174.102 121.011 174.102 120.992 174.102 120.972C174.102 120.953 174.102 120.933 174.102 120.914C174.102 120.894 174.102 120.875 174.102 120.855C174.102 120.836 174.102 120.816 174.102 120.796C174.102 120.777 174.102 120.757 174.102 120.738C174.102 120.718 174.102 120.698 174.102 120.679C174.102 120.659 174.102 120.64 174.102 120.62C174.102 120.6 174.102 120.581 174.102 120.561C174.102 120.541 174.102 120.522 174.102 120.502C174.102 120.482 174.102 120.462 174.102 120.443C174.102 120.423 174.102 120.403 174.102 120.384C174.102 120.364 174.102 120.344 174.102 120.324C174.102 120.304 174.102 120.285 174.102 120.265C174.102 120.245 174.102 120.225 174.102 120.205C174.102 120.186 174.102 120.166 174.102 120.146C174.102 120.126 174.102 120.106 174.102 120.086C174.102 120.066 174.102 120.047 174.102 120.027C174.102 120.007 174.102 119.987 174.102 119.967C174.102 119.947 174.102 119.927 174.102 119.907C174.102 119.887 174.102 119.867 174.102 119.847C174.102 119.827 174.102 119.807 174.102 119.787C174.102 119.767 174.102 119.747 174.102 119.727C174.102 119.707 174.102 119.687 174.102 119.667C174.102 119.647 174.102 119.627 174.102 119.607C174.102 119.587 174.102 119.567 174.102 119.547C174.102 119.527 174.102 119.507 174.102 119.487C174.102 119.467 174.102 119.446 174.102 119.426C174.102 119.406 174.102 119.386 174.102 119.366C174.102 119.346 174.102 119.326 174.102 119.305C174.102 119.285 174.102 119.265 174.102 119.245C174.102 119.225 174.102 119.205 174.102 119.184C174.102 119.164 174.102 119.144 174.102 119.124C174.102 119.103 174.102 119.083 174.102 119.063C174.102 119.043 174.102 119.022 174.102 119.002C174.102 118.982 174.102 118.962 174.102 118.941C174.102 118.921 174.102 118.901 174.102 118.88C174.102 118.86 174.102 118.84 174.102 118.819C174.102 118.799 174.102 118.779 174.102 118.758C174.102 118.738 174.102 118.718 174.102 118.697C174.102 118.677 174.102 118.656 174.102 118.636C174.102 118.616 174.102 118.595 174.102 118.575C174.102 118.554 174.102 118.534 174.102 118.513C174.102 118.493 174.102 118.473 174.102 118.452C174.102 118.432 174.102 118.411 174.102 118.391C174.102 118.37 174.102 118.35 174.102 118.329C174.102 118.309 174.102 118.288 174.102 118.268C174.102 118.247 174.102 118.227 174.102 118.206C174.102 118.186 174.102 118.165 174.102 118.145C174.102 118.124 174.102 118.103 174.102 118.083C174.102 118.062 174.102 118.042 174.102 118.021C174.102 118.001 174.102 117.98 174.102 117.959C174.102 117.939 174.102 117.918 174.102 117.897C174.102 117.877 174.102 117.856 174.102 117.836C174.102 117.815 174.102 117.794 174.102 117.774C174.102 117.753 174.102 117.732 174.102 117.712C174.102 117.691 174.102 117.67 174.102 117.65C174.102 117.629 174.102 117.608 174.102 117.587C174.102 117.567 174.102 117.546 174.102 117.525C174.102 117.505 174.102 117.484 174.102 117.463C174.102 117.442 174.102 117.422 174.102 117.401C174.102 117.38 174.102 117.359 174.102 117.339C174.102 117.318 174.102 117.297 174.102 117.276C174.102 117.255 174.102 117.235 174.102 117.214C174.102 117.193 174.102 117.172 174.102 117.151C174.102 117.13 174.102 117.11 174.102 117.089C174.102 117.068 174.102 117.047 174.102 117.026C174.102 117.005 174.102 116.985 174.102 116.964C174.102 116.943 174.102 116.922 174.102 116.901C174.102 116.88 174.102 116.859 174.102 116.838C174.102 116.817 174.102 116.797 174.102 116.776C174.102 116.755 174.102 116.734 174.102 116.713C174.102 116.692 174.102 116.671 174.102 116.65C174.102 116.629 174.102 116.608 174.102 116.587C174.102 116.566 174.102 116.545 174.102 116.524C174.102 116.503 174.102 116.482 174.102 116.461C174.102 116.44 174.102 116.419 174.102 116.398C174.102 116.377 174.102 116.356 174.102 116.335C174.102 116.314 174.102 116.293 174.102 116.272C174.102 116.251 174.102 116.23 174.102 116.209C174.102 116.188 174.102 116.167 174.102 116.146C174.102 116.125 174.102 116.104 174.102 116.083C174.102 116.062 174.102 116.041 174.102 116.02C174.102 115.998 174.102 115.977 174.102 115.956C174.102 115.935 174.102 115.914 174.102 115.893C174.102 115.872 174.102 115.851 174.102 115.83C174.102 115.809 174.102 115.787 174.102 115.766C174.102 115.745 174.102 115.724 174.102 115.703C174.102 115.682 174.102 115.661 174.102 115.639C174.102 115.618 174.102 115.597 174.102 115.576C174.102 115.555 174.102 115.534 174.102 115.512C174.102 115.491 174.102 115.47 174.102 115.449C174.102 115.428 174.102 115.407 174.102 115.385C174.102 115.364 174.102 115.343 174.102 115.322C174.102 115.301 174.102 115.279 174.102 115.258C174.102 115.237 174.102 115.216 174.102 115.194C174.102 115.173 174.102 115.152 174.102 115.131C174.102 115.11 174.102 115.088 174.102 115.067C174.102 115.046 174.102 115.025 174.102 115.003C174.102 114.982 174.102 114.961 174.102 114.939C174.102 114.918 174.102 114.897 174.102 114.876C174.102 114.854 174.102 114.833 174.102 114.812C174.102 114.791 174.102 114.769 174.102 114.748C174.102 114.727 174.102 114.705 174.102 114.684C174.102 114.663 174.102 114.641 174.102 114.62C174.102 114.599 174.102 114.577 174.102 114.556C174.102 114.535 174.102 114.514 174.102 114.492C174.102 114.471 174.102 114.45 174.102 114.428C174.102 114.407 174.102 114.385 174.102 114.364C174.102 114.343 174.102 114.321 174.102 114.3C174.102 114.279 174.102 114.257 174.102 114.236C174.102 114.215 174.102 114.193 174.102 114.172C174.102 114.151 174.102 114.129 174.102 114.108C174.102 114.086 174.102 114.065 174.102 114.044C174.102 114.022 174.102 114.001 174.102 113.979C174.102 113.958 174.102 113.937 174.102 113.915C174.102 113.894 174.102 113.872 174.102 113.851C174.102 113.83 174.102 113.808 174.102 113.787C174.102 113.765 174.102 113.744 174.102 113.723C174.102 113.701 174.102 113.68 174.102 113.658C174.102 113.637 174.102 113.616 174.102 113.594C174.102 113.573 174.102 113.551 174.102 113.53C174.102 113.508 174.102 113.487 174.102 113.465C174.102 113.444 174.102 113.423 174.102 113.401C174.102 113.38 174.102 113.358 174.102 113.337C174.102 113.315 174.102 113.294 174.102 113.272C174.102 113.251 174.102 113.229 174.102 113.208C174.102 113.187 174.102 113.165 174.102 113.144C174.102 113.122 174.102 113.101 174.102 113.079C174.102 113.058 174.102 113.036 174.102 113.015C174.102 112.993 174.102 112.972 174.102 112.95C174.102 112.929 174.102 112.907 174.102 112.886C174.102 112.864 174.102 112.843 174.102 112.821C174.102 112.8 174.102 112.778 174.102 112.757C174.102 112.735 174.102 112.714 174.102 112.693C174.102 112.671 174.102 112.65 174.102 112.628C174.102 112.607 174.102 112.585 174.102 112.564C174.102 112.542 174.102 112.52 174.102 112.499C174.102 112.477 174.102 112.456 174.102 112.434C174.102 112.413 174.102 112.391 174.102 112.37C174.102 112.348 174.102 112.327 174.102 112.305C174.102 112.284 174.102 112.262 174.102 112.241C174.102 112.219 174.102 112.198 174.102 112.176C174.102 112.155 174.102 112.133 174.102 112.112C174.102 112.09 174.102 112.069 174.102 112.047C174.102 112.026 174.102 112.004 174.102 111.983C174.102 111.961 174.102 111.94 174.102 111.918C174.102 111.897 174.102 111.875 174.102 111.853C174.102 111.832 174.102 111.81 174.102 111.789C174.102 111.767 174.102 111.746 174.102 111.724C174.102 111.703 174.102 111.681 174.102 111.66C174.102 111.638 174.102 111.617 174.102 111.595C174.102 111.574 174.102 111.552 174.102 111.531C174.102 111.509 174.102 111.487 174.102 111.466C174.102 111.444 174.102 111.423 174.102 111.401C174.102 111.38 174.102 111.358 174.102 111.337C174.102 111.315 174.102 111.294 174.102 111.272C174.102 111.251 174.102 111.229 174.102 111.208C174.102 111.186 174.102 111.165 174.102 111.143C174.102 111.121 174.102 111.1 174.102 111.078C174.102 111.057 174.102 111.035 174.102 111.014C174.102 110.992 174.102 110.971 174.102 110.949C174.102 110.928 174.102 110.906 174.102 110.885C174.102 110.863 174.102 110.842 174.102 110.82C174.102 110.799 174.102 110.777 174.102 110.756C174.102 110.734 174.102 110.713 174.102 110.691C174.102 110.669 174.102 110.648 174.102 110.626C174.102 110.605 174.102 110.583 174.102 110.562C174.102 110.54 174.102 110.519 174.102 110.497C174.102 110.476 174.102 110.454 174.102 110.433C174.102 110.411 174.102 110.39 174.102 110.368C174.102 110.347 174.102 110.325 174.102 110.304C174.102 110.282 174.102 110.261 174.102 110.239C174.102 110.218 174.102 110.196 174.102 110.175C174.102 110.153 174.102 110.132 174.102 110.11C174.102 110.089 174.102 110.067 174.102 110.046C174.102 110.024 174.102 110.003 174.102 109.981C174.102 109.96 174.102 109.938 174.102 109.917C174.102 109.895 174.102 109.874 174.102 109.852C174.102 109.831 174.102 109.81 174.102 109.788C174.102 109.767 174.102 109.745 174.102 109.724C174.102 109.702 174.102 109.681 174.102 109.659C174.102 109.638 174.102 109.616 174.102 109.595C174.102 109.573 174.102 109.552 174.102 109.53C174.102 109.509 174.102 109.488 174.102 109.466C174.102 109.445 174.102 109.423 174.102 109.402C174.102 109.38 174.102 109.359 174.102 109.337C174.102 109.316 174.102 109.295 174.102 109.273C174.102 109.252 174.102 109.23 174.102 109.209C174.102 109.187 174.102 109.166 174.102 109.145C174.102 109.123 174.102 109.102 174.102 109.08C174.102 109.059 174.102 109.037 174.102 109.016C174.102 108.995 174.102 108.973 174.102 108.952C174.102 108.93 174.102 108.909 174.102 108.888C174.102 108.866 174.102 108.845 174.102 108.823C174.102 108.802 174.102 108.781 174.102 108.759C174.102 108.738 174.102 108.717 174.102 108.695C174.102 108.674 174.102 108.652 174.102 108.631C174.102 108.61 174.102 108.588 174.102 108.567C174.102 108.546 174.102 108.524 174.102 108.503C174.102 108.482 174.102 108.46 174.102 108.439C174.102 108.418 174.102 108.396 174.102 108.375C174.102 108.354 174.102 108.332 174.102 108.311C174.102 108.29 174.102 108.268 174.102 108.247C174.102 108.226 174.102 108.204 174.102 108.183C174.102 108.162 174.102 108.14 174.102 108.119C174.102 108.098 174.102 108.076 174.102 108.055C174.102 108.034 174.102 108.013 174.102 107.991C174.102 107.97 174.102 107.949 174.102 107.927C174.102 107.906 174.102 107.885 174.102 107.864C174.102 107.842 174.102 107.821 174.102 107.8C174.102 107.779 174.102 107.757 174.102 107.736C174.102 107.715 174.102 107.694 174.102 107.672C174.102 107.651 174.102 107.63 174.102 107.609C174.102 107.588 174.102 107.566 174.102 107.545C174.102 107.524 174.102 107.503 174.102 107.481C174.102 107.46 174.102 107.439 174.102 107.418C174.102 107.397 174.102 107.375 174.102 107.354C174.102 107.333 174.102 107.312 174.102 107.291C174.102 107.27 174.102 107.248 174.102 107.227C174.102 107.206 174.102 107.185 174.102 107.164C174.102 107.143 174.102 107.122 174.102 107.1C174.102 107.079 174.102 107.058 174.102 107.037C174.102 107.016 174.102 106.995 174.102 106.974C174.102 106.953 174.102 106.931 174.102 106.91C174.102 106.889 174.102 106.868 174.102 106.847C174.102 106.826 174.102 106.805 174.102 106.784C174.102 106.763 174.102 106.742 174.102 106.721C174.102 106.7 174.102 106.679 174.102 106.657C174.102 106.636 174.102 106.615 174.102 106.594C174.102 106.573 174.102 106.552 174.102 106.531C174.102 106.51 174.102 106.489 174.102 106.468C174.102 106.447 174.102 106.426 174.102 106.405C174.102 106.384 174.102 106.363 174.102 106.342C174.102 106.321 174.102 106.3 174.102 106.279C174.102 106.258 174.102 106.237 174.102 106.216C174.102 106.195 174.102 106.175 174.102 106.154C174.102 106.133 174.102 106.112 174.102 106.091C174.102 106.07 174.102 106.049 174.102 106.028C174.102 106.007 174.102 105.986 174.102 105.965C174.102 105.944 174.102 105.924 174.102 105.903C174.102 105.882 174.102 105.861 174.102 105.84C174.102 105.819 174.102 105.798 174.102 105.777C174.102 105.757 174.102 105.736 174.102 105.715C174.102 105.694 174.102 105.673 174.102 105.652C174.102 105.632 174.102 105.611 174.102 105.59C174.102 105.569 174.102 105.548 174.102 105.528C174.102 105.507 174.102 105.486 174.102 105.465C174.102 105.445 174.102 105.424 174.102 105.403C174.102 105.382 174.102 105.362 174.102 105.341C174.102 105.32 174.102 105.299 174.102 105.279C174.102 105.258 174.102 105.237 174.102 105.216C174.102 105.196 174.102 105.175 174.102 105.154C174.102 105.134 174.102 105.113 174.102 105.092C174.102 105.072 174.102 105.051 174.102 105.03C174.102 105.01 174.102 104.989 174.102 104.968C174.102 104.948 174.102 104.927 174.102 104.907C174.102 104.886 174.102 104.865 174.102 104.845C174.102 104.824 174.102 104.804 174.102 104.783C174.102 104.762 174.102 104.742 174.102 104.721C174.102 104.701 174.102 104.68 174.102 104.66C174.102 104.639 174.102 104.619 174.102 104.598C174.102 104.577 174.102 104.557 174.102 104.536C174.102 104.516 174.102 104.495 174.102 104.475C174.102 104.454 174.102 104.434 174.102 104.414C174.102 104.393 174.102 104.373 174.102 104.352C174.102 104.332 174.102 104.311 174.102 104.291C174.102 104.27 174.102 104.25 174.102 104.23C174.102 104.209 174.102 104.189 174.102 104.168C174.102 104.148 174.102 104.128 174.102 104.107C174.102 104.087 174.102 104.067 174.102 104.046C174.102 104.026 174.102 104.005 174.102 103.985C174.102 103.965 174.102 103.944 174.102 103.924C174.102 103.904 174.102 103.884 174.102 103.863C174.102 103.843 174.102 103.823 174.102 103.802C174.102 103.782 174.102 103.762 174.102 103.742C174.102 103.721 174.102 103.701 174.102 103.681C174.102 103.661 174.102 103.641 174.102 103.62C174.102 103.6 174.102 103.58 174.102 103.56C174.102 103.54 174.102 103.519 174.102 103.499C174.102 103.479 174.102 103.459 174.102 103.439C174.102 103.419 174.102 103.399 174.102 103.378C174.102 103.358 174.102 103.338 174.102 103.318C174.102 103.298 174.102 103.278 174.102 103.258C174.102 103.238 174.102 103.218 174.102 103.198C174.102 103.178 174.102 103.158 174.102 103.138C174.102 103.118 174.102 103.098 174.102 103.078C174.102 103.058 174.102 103.038 174.102 103.018C174.102 102.998 174.102 102.978 174.102 102.958C174.102 102.938 174.102 102.918 174.102 102.898C174.102 102.878 174.102 102.858 174.102 102.838C174.102 102.818 174.102 102.798 174.102 102.778C174.102 102.759 174.102 102.739 174.102 102.719C174.102 102.699 174.102 102.679 174.102 102.659C174.102 102.639 174.102 102.62 174.102 102.6C174.102 102.58 174.102 102.56 174.102 102.54C174.102 102.521 174.102 102.501 174.102 102.481C174.102 102.461 174.102 102.442 174.102 102.422C174.102 102.402 174.102 102.382 174.102 102.363C174.102 102.343 174.102 102.323 174.102 102.304C174.102 102.284 174.102 102.264 174.102 102.245C174.102 102.225 174.102 102.205 174.102 102.186C174.102 102.166 174.102 102.146 174.102 102.127C174.102 102.107 174.102 102.087 174.102 102.068C174.102 102.048 174.102 102.029 174.102 102.009C174.102 101.99 174.102 101.97 174.102 101.951C174.102 101.931 174.102 101.912 174.102 101.892C174.102 101.872 174.102 101.853 174.102 101.834C174.102 101.814 174.102 101.795 174.102 101.775C174.102 101.756 174.102 101.736 174.102 101.717C174.102 101.697 174.102 101.678 174.102 101.659C174.102 101.639 174.102 101.62 174.102 101.6C174.102 101.581 174.102 101.562 174.102 101.542C174.102 101.523 174.102 101.504 174.102 101.484C174.102 101.465 174.102 101.446 174.102 101.426C174.102 101.407 174.102 101.388 174.102 101.369C174.102 101.349 174.102 101.33 174.102 101.311H172.352C172.352 101.33 172.352 101.349 172.352 101.369C172.352 101.388 172.352 101.407 172.352 101.426C172.352 101.446 172.352 101.465 172.352 101.484C172.352 101.504 172.352 101.523 172.352 101.542C172.352 101.562 172.352 101.581 172.352 101.6C172.352 101.62 172.352 101.639 172.352 101.659C172.352 101.678 172.352 101.697 172.352 101.717C172.352 101.736 172.352 101.756 172.352 101.775C172.352 101.795 172.352 101.814 172.352 101.834C172.352 101.853 172.352 101.872 172.352 101.892C172.352 101.912 172.352 101.931 172.352 101.951C172.352 101.97 172.352 101.99 172.352 102.009C172.352 102.029 172.352 102.048 172.352 102.068C172.352 102.087 172.352 102.107 172.352 102.127C172.352 102.146 172.352 102.166 172.352 102.186C172.352 102.205 172.352 102.225 172.352 102.245C172.352 102.264 172.352 102.284 172.352 102.304C172.352 102.323 172.352 102.343 172.352 102.363C172.352 102.382 172.352 102.402 172.352 102.422C172.352 102.442 172.352 102.461 172.352 102.481C172.352 102.501 172.352 102.521 172.352 102.54C172.352 102.56 172.352 102.58 172.352 102.6C172.352 102.62 172.352 102.639 172.352 102.659C172.352 102.679 172.352 102.699 172.352 102.719C172.352 102.739 172.352 102.759 172.352 102.778C172.352 102.798 172.352 102.818 172.352 102.838C172.352 102.858 172.352 102.878 172.352 102.898C172.352 102.918 172.352 102.938 172.352 102.958C172.352 102.978 172.352 102.998 172.352 103.018C172.352 103.038 172.352 103.058 172.352 103.078C172.352 103.098 172.352 103.118 172.352 103.138C172.352 103.158 172.352 103.178 172.352 103.198C172.352 103.218 172.352 103.238 172.352 103.258C172.352 103.278 172.352 103.298 172.352 103.318C172.352 103.338 172.352 103.358 172.352 103.378C172.352 103.399 172.352 103.419 172.352 103.439C172.352 103.459 172.352 103.479 172.352 103.499C172.352 103.519 172.352 103.54 172.352 103.56C172.352 103.58 172.352 103.6 172.352 103.62C172.352 103.641 172.352 103.661 172.352 103.681C172.352 103.701 172.352 103.721 172.352 103.742C172.352 103.762 172.352 103.782 172.352 103.802C172.352 103.823 172.352 103.843 172.352 103.863C172.352 103.884 172.352 103.904 172.352 103.924C172.352 103.944 172.352 103.965 172.352 103.985C172.352 104.005 172.352 104.026 172.352 104.046C172.352 104.067 172.352 104.087 172.352 104.107C172.352 104.128 172.352 104.148 172.352 104.168C172.352 104.189 172.352 104.209 172.352 104.23C172.352 104.25 172.352 104.27 172.352 104.291C172.352 104.311 172.352 104.332 172.352 104.352C172.352 104.373 172.352 104.393 172.352 104.414C172.352 104.434 172.352 104.454 172.352 104.475C172.352 104.495 172.352 104.516 172.352 104.536C172.352 104.557 172.352 104.577 172.352 104.598C172.352 104.619 172.352 104.639 172.352 104.66C172.352 104.68 172.352 104.701 172.352 104.721C172.352 104.742 172.352 104.762 172.352 104.783C172.352 104.804 172.352 104.824 172.352 104.845C172.352 104.865 172.352 104.886 172.352 104.907C172.352 104.927 172.352 104.948 172.352 104.968C172.352 104.989 172.352 105.01 172.352 105.03C172.352 105.051 172.352 105.072 172.352 105.092C172.352 105.113 172.352 105.134 172.352 105.154C172.352 105.175 172.352 105.196 172.352 105.216C172.352 105.237 172.352 105.258 172.352 105.279C172.352 105.299 172.352 105.32 172.352 105.341C172.352 105.362 172.352 105.382 172.352 105.403C172.352 105.424 172.352 105.445 172.352 105.465C172.352 105.486 172.352 105.507 172.352 105.528C172.352 105.548 172.352 105.569 172.352 105.59C172.352 105.611 172.352 105.632 172.352 105.652C172.352 105.673 172.352 105.694 172.352 105.715C172.352 105.736 172.352 105.757 172.352 105.777C172.352 105.798 172.352 105.819 172.352 105.84C172.352 105.861 172.352 105.882 172.352 105.903C172.352 105.924 172.352 105.944 172.352 105.965C172.352 105.986 172.352 106.007 172.352 106.028C172.352 106.049 172.352 106.07 172.352 106.091C172.352 106.112 172.352 106.133 172.352 106.154C172.352 106.175 172.352 106.195 172.352 106.216C172.352 106.237 172.352 106.258 172.352 106.279C172.352 106.3 172.352 106.321 172.352 106.342C172.352 106.363 172.352 106.384 172.352 106.405C172.352 106.426 172.352 106.447 172.352 106.468C172.352 106.489 172.352 106.51 172.352 106.531C172.352 106.552 172.352 106.573 172.352 106.594C172.352 106.615 172.352 106.636 172.352 106.657C172.352 106.679 172.352 106.7 172.352 106.721C172.352 106.742 172.352 106.763 172.352 106.784C172.352 106.805 172.352 106.826 172.352 106.847C172.352 106.868 172.352 106.889 172.352 106.91C172.352 106.931 172.352 106.953 172.352 106.974C172.352 106.995 172.352 107.016 172.352 107.037C172.352 107.058 172.352 107.079 172.352 107.1C172.352 107.122 172.352 107.143 172.352 107.164C172.352 107.185 172.352 107.206 172.352 107.227C172.352 107.248 172.352 107.27 172.352 107.291C172.352 107.312 172.352 107.333 172.352 107.354C172.352 107.375 172.352 107.397 172.352 107.418C172.352 107.439 172.352 107.46 172.352 107.481C172.352 107.503 172.352 107.524 172.352 107.545C172.352 107.566 172.352 107.588 172.352 107.609C172.352 107.63 172.352 107.651 172.352 107.672C172.352 107.694 172.352 107.715 172.352 107.736C172.352 107.757 172.352 107.779 172.352 107.8C172.352 107.821 172.352 107.842 172.352 107.864C172.352 107.885 172.352 107.906 172.352 107.927C172.352 107.949 172.352 107.97 172.352 107.991C172.352 108.013 172.352 108.034 172.352 108.055C172.352 108.076 172.352 108.098 172.352 108.119C172.352 108.14 172.352 108.162 172.352 108.183C172.352 108.204 172.352 108.226 172.352 108.247C172.352 108.268 172.352 108.29 172.352 108.311C172.352 108.332 172.352 108.354 172.352 108.375C172.352 108.396 172.352 108.418 172.352 108.439C172.352 108.46 172.352 108.482 172.352 108.503C172.352 108.524 172.352 108.546 172.352 108.567C172.352 108.588 172.352 108.61 172.352 108.631C172.352 108.652 172.352 108.674 172.352 108.695C172.352 108.717 172.352 108.738 172.352 108.759C172.352 108.781 172.352 108.802 172.352 108.823C172.352 108.845 172.352 108.866 172.352 108.888C172.352 108.909 172.352 108.93 172.352 108.952C172.352 108.973 172.352 108.995 172.352 109.016C172.352 109.037 172.352 109.059 172.352 109.08C172.352 109.102 172.352 109.123 172.352 109.145C172.352 109.166 172.352 109.187 172.352 109.209C172.352 109.23 172.352 109.252 172.352 109.273C172.352 109.295 172.352 109.316 172.352 109.337C172.352 109.359 172.352 109.38 172.352 109.402C172.352 109.423 172.352 109.445 172.352 109.466C172.352 109.488 172.352 109.509 172.352 109.53C172.352 109.552 172.352 109.573 172.352 109.595C172.352 109.616 172.352 109.638 172.352 109.659C172.352 109.681 172.352 109.702 172.352 109.724C172.352 109.745 172.352 109.767 172.352 109.788C172.352 109.81 172.352 109.831 172.352 109.852C172.352 109.874 172.352 109.895 172.352 109.917C172.352 109.938 172.352 109.96 172.352 109.981C172.352 110.003 172.352 110.024 172.352 110.046C172.352 110.067 172.352 110.089 172.352 110.11C172.352 110.132 172.352 110.153 172.352 110.175C172.352 110.196 172.352 110.218 172.352 110.239C172.352 110.261 172.352 110.282 172.352 110.304C172.352 110.325 172.352 110.347 172.352 110.368C172.352 110.39 172.352 110.411 172.352 110.433C172.352 110.454 172.352 110.476 172.352 110.497C172.352 110.519 172.352 110.54 172.352 110.562C172.352 110.583 172.352 110.605 172.352 110.626C172.352 110.648 172.352 110.669 172.352 110.691C172.352 110.713 172.352 110.734 172.352 110.756C172.352 110.777 172.352 110.799 172.352 110.82C172.352 110.842 172.352 110.863 172.352 110.885C172.352 110.906 172.352 110.928 172.352 110.949C172.352 110.971 172.352 110.992 172.352 111.014C172.352 111.035 172.352 111.057 172.352 111.078C172.352 111.1 172.352 111.121 172.352 111.143C172.352 111.165 172.352 111.186 172.352 111.208C172.352 111.229 172.352 111.251 172.352 111.272C172.352 111.294 172.352 111.315 172.352 111.337C172.352 111.358 172.352 111.38 172.352 111.401C172.352 111.423 172.352 111.444 172.352 111.466C172.352 111.487 172.352 111.509 172.352 111.531C172.352 111.552 172.352 111.574 172.352 111.595C172.352 111.617 172.352 111.638 172.352 111.66C172.352 111.681 172.352 111.703 172.352 111.724C172.352 111.746 172.352 111.767 172.352 111.789C172.352 111.81 172.352 111.832 172.352 111.853C172.352 111.875 172.352 111.897 172.352 111.918C172.352 111.94 172.352 111.961 172.352 111.983C172.352 112.004 172.352 112.026 172.352 112.047C172.352 112.069 172.352 112.09 172.352 112.112C172.352 112.133 172.352 112.155 172.352 112.176C172.352 112.198 172.352 112.219 172.352 112.241C172.352 112.262 172.352 112.284 172.352 112.305C172.352 112.327 172.352 112.348 172.352 112.37C172.352 112.391 172.352 112.413 172.352 112.434C172.352 112.456 172.352 112.477 172.352 112.499C172.352 112.52 172.352 112.542 172.352 112.564C172.352 112.585 172.352 112.607 172.352 112.628C172.352 112.65 172.352 112.671 172.352 112.693C172.352 112.714 172.352 112.735 172.352 112.757C172.352 112.778 172.352 112.8 172.352 112.821C172.352 112.843 172.352 112.864 172.352 112.886C172.352 112.907 172.352 112.929 172.352 112.95C172.352 112.972 172.352 112.993 172.352 113.015C172.352 113.036 172.352 113.058 172.352 113.079C172.352 113.101 172.352 113.122 172.352 113.144C172.352 113.165 172.352 113.187 172.352 113.208C172.352 113.229 172.352 113.251 172.352 113.272C172.352 113.294 172.352 113.315 172.352 113.337C172.352 113.358 172.352 113.38 172.352 113.401C172.352 113.423 172.352 113.444 172.352 113.465C172.352 113.487 172.352 113.508 172.352 113.53C172.352 113.551 172.352 113.573 172.352 113.594C172.352 113.616 172.352 113.637 172.352 113.658C172.352 113.68 172.352 113.701 172.352 113.723C172.352 113.744 172.352 113.765 172.352 113.787C172.352 113.808 172.352 113.83 172.352 113.851C172.352 113.872 172.352 113.894 172.352 113.915C172.352 113.937 172.352 113.958 172.352 113.979C172.352 114.001 172.352 114.022 172.352 114.044C172.352 114.065 172.352 114.086 172.352 114.108C172.352 114.129 172.352 114.151 172.352 114.172C172.352 114.193 172.352 114.215 172.352 114.236C172.352 114.257 172.352 114.279 172.352 114.3C172.352 114.321 172.352 114.343 172.352 114.364C172.352 114.385 172.352 114.407 172.352 114.428C172.352 114.45 172.352 114.471 172.352 114.492C172.352 114.514 172.352 114.535 172.352 114.556C172.352 114.577 172.352 114.599 172.352 114.62C172.352 114.641 172.352 114.663 172.352 114.684C172.352 114.705 172.352 114.727 172.352 114.748C172.352 114.769 172.352 114.791 172.352 114.812C172.352 114.833 172.352 114.854 172.352 114.876C172.352 114.897 172.352 114.918 172.352 114.939C172.352 114.961 172.352 114.982 172.352 115.003C172.352 115.025 172.352 115.046 172.352 115.067C172.352 115.088 172.352 115.11 172.352 115.131C172.352 115.152 172.352 115.173 172.352 115.194C172.352 115.216 172.352 115.237 172.352 115.258C172.352 115.279 172.352 115.301 172.352 115.322C172.352 115.343 172.352 115.364 172.352 115.385C172.352 115.407 172.352 115.428 172.352 115.449C172.352 115.47 172.352 115.491 172.352 115.512C172.352 115.534 172.352 115.555 172.352 115.576C172.352 115.597 172.352 115.618 172.352 115.639C172.352 115.661 172.352 115.682 172.352 115.703C172.352 115.724 172.352 115.745 172.352 115.766C172.352 115.787 172.352 115.809 172.352 115.83C172.352 115.851 172.352 115.872 172.352 115.893C172.352 115.914 172.352 115.935 172.352 115.956C172.352 115.977 172.352 115.998 172.352 116.02C172.352 116.041 172.352 116.062 172.352 116.083C172.352 116.104 172.352 116.125 172.352 116.146C172.352 116.167 172.352 116.188 172.352 116.209C172.352 116.23 172.352 116.251 172.352 116.272C172.352 116.293 172.352 116.314 172.352 116.335C172.352 116.356 172.352 116.377 172.352 116.398C172.352 116.419 172.352 116.44 172.352 116.461C172.352 116.482 172.352 116.503 172.352 116.524C172.352 116.545 172.352 116.566 172.352 116.587C172.352 116.608 172.352 116.629 172.352 116.65C172.352 116.671 172.352 116.692 172.352 116.713C172.352 116.734 172.352 116.755 172.352 116.776C172.352 116.797 172.352 116.817 172.352 116.838C172.352 116.859 172.352 116.88 172.352 116.901C172.352 116.922 172.352 116.943 172.352 116.964C172.352 116.985 172.352 117.005 172.352 117.026C172.352 117.047 172.352 117.068 172.352 117.089C172.352 117.11 172.352 117.13 172.352 117.151C172.352 117.172 172.352 117.193 172.352 117.214C172.352 117.235 172.352 117.255 172.352 117.276C172.352 117.297 172.352 117.318 172.352 117.339C172.352 117.359 172.352 117.38 172.352 117.401C172.352 117.422 172.352 117.442 172.352 117.463C172.352 117.484 172.352 117.505 172.352 117.525C172.352 117.546 172.352 117.567 172.352 117.587C172.352 117.608 172.352 117.629 172.352 117.65C172.352 117.67 172.352 117.691 172.352 117.712C172.352 117.732 172.352 117.753 172.352 117.774C172.352 117.794 172.352 117.815 172.352 117.836C172.352 117.856 172.352 117.877 172.352 117.897C172.352 117.918 172.352 117.939 172.352 117.959C172.352 117.98 172.352 118.001 172.352 118.021C172.352 118.042 172.352 118.062 172.352 118.083C172.352 118.103 172.352 118.124 172.352 118.145C172.352 118.165 172.352 118.186 172.352 118.206C172.352 118.227 172.352 118.247 172.352 118.268C172.352 118.288 172.352 118.309 172.352 118.329C172.352 118.35 172.352 118.37 172.352 118.391C172.352 118.411 172.352 118.432 172.352 118.452C172.352 118.473 172.352 118.493 172.352 118.513C172.352 118.534 172.352 118.554 172.352 118.575C172.352 118.595 172.352 118.616 172.352 118.636C172.352 118.656 172.352 118.677 172.352 118.697C172.352 118.718 172.352 118.738 172.352 118.758C172.352 118.779 172.352 118.799 172.352 118.819C172.352 118.84 172.352 118.86 172.352 118.88C172.352 118.901 172.352 118.921 172.352 118.941C172.352 118.962 172.352 118.982 172.352 119.002C172.352 119.022 172.352 119.043 172.352 119.063C172.352 119.083 172.352 119.103 172.352 119.124C172.352 119.144 172.352 119.164 172.352 119.184C172.352 119.205 172.352 119.225 172.352 119.245C172.352 119.265 172.352 119.285 172.352 119.305C172.352 119.326 172.352 119.346 172.352 119.366C172.352 119.386 172.352 119.406 172.352 119.426C172.352 119.446 172.352 119.467 172.352 119.487C172.352 119.507 172.352 119.527 172.352 119.547C172.352 119.567 172.352 119.587 172.352 119.607C172.352 119.627 172.352 119.647 172.352 119.667C172.352 119.687 172.352 119.707 172.352 119.727C172.352 119.747 172.352 119.767 172.352 119.787C172.352 119.807 172.352 119.827 172.352 119.847C172.352 119.867 172.352 119.887 172.352 119.907C172.352 119.927 172.352 119.947 172.352 119.967C172.352 119.987 172.352 120.007 172.352 120.027C172.352 120.047 172.352 120.066 172.352 120.086C172.352 120.106 172.352 120.126 172.352 120.146C172.352 120.166 172.352 120.186 172.352 120.205C172.352 120.225 172.352 120.245 172.352 120.265C172.352 120.285 172.352 120.304 172.352 120.324C172.352 120.344 172.352 120.364 172.352 120.384C172.352 120.403 172.352 120.423 172.352 120.443C172.352 120.462 172.352 120.482 172.352 120.502C172.352 120.522 172.352 120.541 172.352 120.561C172.352 120.581 172.352 120.6 172.352 120.62C172.352 120.64 172.352 120.659 172.352 120.679C172.352 120.698 172.352 120.718 172.352 120.738C172.352 120.757 172.352 120.777 172.352 120.796C172.352 120.816 172.352 120.836 172.352 120.855C172.352 120.875 172.352 120.894 172.352 120.914C172.352 120.933 172.352 120.953 172.352 120.972C172.352 120.992 172.352 121.011 172.352 121.031C172.352 121.05 172.352 121.07 172.352 121.089C172.352 121.108 172.352 121.128 172.352 121.147C172.352 121.167 172.352 121.186 172.352 121.205C172.352 121.225 172.352 121.244 172.352 121.264C172.352 121.283 172.352 121.302 172.352 121.322C172.352 121.341 172.352 121.36 172.352 121.379C172.352 121.399 172.352 121.418 172.352 121.437C172.352 121.457 172.352 121.476 172.352 121.495C172.352 121.514 172.352 121.534 172.352 121.553C172.352 121.572 172.352 121.591 172.352 121.61C172.352 121.63 172.352 121.649 172.352 121.668C172.352 121.687 172.352 121.706 172.352 121.725C172.352 121.744 172.352 121.764 172.352 121.783C172.352 121.802 172.352 121.821 172.352 121.84C172.352 121.859 172.352 121.878 172.352 121.897C172.352 121.916 172.352 121.935 172.352 121.954C172.352 121.973 172.352 121.992 172.352 122.011C172.352 122.03 172.352 122.049 172.352 122.068C172.352 122.087 172.352 122.106 172.352 122.125C172.352 122.144 172.352 122.163 172.352 122.182C172.352 122.201 172.352 122.219 172.352 122.238C172.352 122.257 172.352 122.276 172.352 122.295C172.352 122.314 172.352 122.332 172.352 122.351C172.352 122.37 172.352 122.389 172.352 122.408C172.352 122.426 172.352 122.445 172.352 122.464C172.352 122.483 172.352 122.501 172.352 122.52C172.352 122.539 172.352 122.557 172.352 122.576C172.352 122.595 172.352 122.613 172.352 122.632C172.352 122.651 172.352 122.669 172.352 122.688C172.352 122.707 172.352 122.725 172.352 122.744C172.352 122.762 172.352 122.781 172.352 122.799C172.352 122.818 172.352 122.836 172.352 122.855C172.352 122.874 172.352 122.892 172.352 122.91C172.352 122.929 172.352 122.947 172.352 122.966C172.352 122.984 172.352 123.003 172.352 123.021C172.352 123.04 172.352 123.058 172.352 123.076C172.352 123.095 172.352 123.113 172.352 123.131C172.352 123.15 172.352 123.168 172.352 123.186C172.352 123.205 172.352 123.223 172.352 123.241C172.352 123.26 172.352 123.278 172.352 123.296C172.352 123.314 172.352 123.333 172.352 123.351C172.352 123.369 172.352 123.387 172.352 123.405C172.352 123.424 172.352 123.442 172.352 123.46C172.352 123.478 172.352 123.496 172.352 123.514C172.352 123.532 172.352 123.551 172.352 123.569C172.352 123.587 172.352 123.605 172.352 123.623C172.352 123.641 172.352 123.659 172.352 123.677C172.352 123.695 172.352 123.713 172.352 123.731C172.352 123.749 172.352 123.767 172.352 123.785C172.352 123.803 172.352 123.821 172.352 123.839C172.352 123.856 172.352 123.874 172.352 123.892C172.352 123.91 172.352 123.928 172.352 123.946C172.352 123.964 172.352 123.981 172.352 123.999C172.352 124.017 172.352 124.035 172.352 124.052C172.352 124.07 172.352 124.088 172.352 124.106C172.352 124.123 172.352 124.141 172.352 124.159C172.352 124.176 172.352 124.194 172.352 124.212C172.352 124.229 172.352 124.247 172.352 124.265C172.352 124.282 172.352 124.3 172.352 124.317C172.352 124.335 172.352 124.353 172.352 124.37C172.352 124.388 172.352 124.405 172.352 124.423C172.352 124.44 172.352 124.458 172.352 124.475C172.352 124.493 172.352 124.51 172.352 124.527C172.352 124.545 172.352 124.562 172.352 124.58C172.352 124.597 172.352 124.614 172.352 124.632C172.352 124.649 172.352 124.666 172.352 124.684C172.352 124.701 172.352 124.718 172.352 124.736C172.352 124.753 172.352 124.77 172.352 124.787C172.352 124.805 172.352 124.822 172.352 124.839C172.352 124.856 172.352 124.873 172.352 124.891C172.352 124.908 172.352 124.925 172.352 124.942C172.352 124.959 172.352 124.976 172.352 124.993C172.352 125.01 172.352 125.027 172.352 125.044C172.352 125.061 172.352 125.078 172.352 125.095C172.352 125.112 172.352 125.129 172.352 125.146C172.352 125.163 172.352 125.18 172.352 125.197C172.352 125.214 172.352 125.231 172.352 125.248C172.352 125.265 172.352 125.282 172.352 125.298C172.352 125.315 172.352 125.332 172.352 125.349C172.352 125.366 172.352 125.383 172.352 125.399C172.352 125.416 172.352 125.433 172.352 125.449C172.352 125.466 172.352 125.483 172.352 125.5C172.352 125.516 172.352 125.533 172.352 125.55C172.352 125.566 172.352 125.583 172.352 125.599C172.352 125.616 172.352 125.633 172.352 125.649C172.352 125.666 172.352 125.682 172.352 125.699C172.352 125.715 172.352 125.732 172.352 125.748C172.352 125.765 172.352 125.781 172.352 125.797C172.352 125.814 172.352 125.83 172.352 125.847C172.352 125.863 172.352 125.879 172.352 125.896C172.352 125.912 172.352 125.928 172.352 125.945C172.352 125.961 172.352 125.977 172.352 125.993C172.352 126.01 172.352 126.026 172.352 126.042C172.352 126.058 172.352 126.075 172.352 126.091C172.352 126.107 172.352 126.123 172.352 126.139C172.352 126.155 172.352 126.171 172.352 126.187C172.352 126.204 172.352 126.22 172.352 126.236C172.352 126.252 172.352 126.268 172.352 126.284C172.352 126.3 172.352 126.316 172.352 126.332C172.352 126.348 172.352 126.363 172.352 126.379C172.352 126.395 172.352 126.411 172.352 126.427C172.352 126.443 172.352 126.459 172.352 126.475C172.352 126.49 172.352 126.506 172.352 126.522C172.352 126.538 172.352 126.553 172.352 126.569C172.352 126.585 172.352 126.601 172.352 126.616C172.352 126.632 172.352 126.648 172.352 126.663C172.352 126.679 172.352 126.694 172.352 126.71C172.352 126.726 172.352 126.741 172.352 126.757C172.352 126.772 172.352 126.788 172.352 126.803C172.352 126.819 172.352 126.834 172.352 126.85C172.352 126.865 172.352 126.881 172.352 126.896C172.352 126.911 172.352 126.927 172.352 126.942C172.352 126.958 172.352 126.973 172.352 126.988C172.352 127.003 172.352 127.019 172.352 127.034C172.352 127.049 172.352 127.065 172.352 127.08C172.352 127.095 172.352 127.11 172.352 127.125C172.352 127.141 172.352 127.156 172.352 127.171C172.352 127.186 172.352 127.201 172.352 127.216C172.352 127.231 172.352 127.246 172.352 127.261C172.352 127.276 172.352 127.291 172.352 127.306C172.352 127.321 172.352 127.336 172.352 127.351C172.352 127.366 172.352 127.381 172.352 127.396C172.352 127.411 172.352 127.426 172.352 127.44C172.352 127.455 172.352 127.47 172.352 127.485C172.352 127.5 172.352 127.514 172.352 127.529C172.352 127.544 172.352 127.559 172.352 127.573C172.352 127.588 172.352 127.603 172.352 127.617C172.352 127.632 172.352 127.647 172.352 127.661C172.352 127.676 172.352 127.69 172.352 127.705C172.352 127.719 172.352 127.734 172.352 127.748C172.352 127.763 172.352 127.777 172.352 127.792C172.352 127.806 172.352 127.821 172.352 127.835C172.352 127.849 172.352 127.864 172.352 127.878C172.352 127.893 172.352 127.907 172.352 127.921C172.352 127.935 172.352 127.95 172.352 127.964C172.352 127.978 172.352 127.992 172.352 128.007C172.352 128.021 172.352 128.035 172.352 128.049C172.352 128.063 172.352 128.077 172.352 128.091C172.352 128.106 172.352 128.12 172.352 128.134C172.352 128.148 172.352 128.162 172.352 128.176C172.352 128.19 172.352 128.204 172.352 128.218C172.352 128.232 172.352 128.245 172.352 128.259C172.352 128.273 172.352 128.287 172.352 128.301C172.352 128.315 172.352 128.329 172.352 128.342C172.352 128.356 172.352 128.37 172.352 128.384C172.352 128.397 172.352 128.411 172.352 128.425C172.352 128.438 172.352 128.452 172.352 128.466C172.352 128.479 172.352 128.493 172.352 128.506C172.352 128.52 172.352 128.534 172.352 128.547C172.352 128.561 172.352 128.574 172.352 128.588C172.352 128.601 172.352 128.615 172.352 128.628C172.352 128.641 172.352 128.655 172.352 128.668C172.352 128.681 172.352 128.695 172.352 128.708C172.352 128.721 172.352 128.735 172.352 128.748C172.352 128.761 172.352 128.774 172.352 128.788C172.352 128.801 172.352 128.814 172.352 128.827C172.352 128.84 172.352 128.853 172.352 128.866C172.352 128.88 172.352 128.893 172.352 128.906C172.352 128.919 172.352 128.932 172.352 128.945C172.352 128.958 172.352 128.971 172.352 128.984C172.352 128.997 172.352 129.009 172.352 129.022C172.352 129.035 172.352 129.048 172.352 129.061C172.352 129.074 172.352 129.086 172.352 129.099C172.352 129.112 172.352 129.125 172.352 129.137C172.352 129.15 172.352 129.163 172.352 129.175C172.352 129.188 172.352 129.201 172.352 129.213C172.352 129.226 172.352 129.238 172.352 129.251C172.352 129.264 172.352 129.276 172.352 129.289C172.352 129.301 172.352 129.313 172.352 129.326C172.352 129.338 172.352 129.351 172.352 129.363C172.352 129.375 172.352 129.388 172.352 129.4C172.352 129.412 172.352 129.425 172.352 129.437C172.352 129.449 172.352 129.461 172.352 129.474C172.352 129.486 172.352 129.498 172.352 129.51C172.352 129.522 172.352 129.534 172.352 129.547C172.352 129.559 172.352 129.571 172.352 129.583C172.352 129.595 172.352 129.607 172.352 129.619C172.352 129.631 172.352 129.643 172.352 129.655C172.352 129.666 172.352 129.678 172.352 129.69C172.352 129.702 172.352 129.714 172.352 129.726C172.352 129.737 172.352 129.749 172.352 129.761C172.352 129.773 172.352 129.784 172.352 129.796C172.352 129.808 172.352 129.819 172.352 129.831C172.352 129.843 172.352 129.854 172.352 129.866C172.352 129.877 172.352 129.889 172.352 129.9C172.352 129.912 172.352 129.923 172.352 129.935C172.352 129.946 172.352 129.958 172.352 129.969C172.352 129.98 172.352 129.992 172.352 130.003C172.352 130.014 172.352 130.026 172.352 130.037C172.352 130.048 172.352 130.059 172.352 130.071C172.352 130.082 172.352 130.093 172.352 130.104C172.352 130.115 172.352 130.126 172.352 130.138C172.352 130.149 172.352 130.16 172.352 130.171C172.352 130.182 172.352 130.193 172.352 130.204C172.352 130.215 172.352 130.226 172.352 130.236C172.352 130.247 172.352 130.258 172.352 130.269H174.102ZM174.102 101.311C174.102 95.0372 173.008 91.0806 170.961 87.4849C169.949 85.7075 168.715 84.0375 167.307 82.2423C165.888 80.4325 164.309 78.5157 162.533 76.1686L161.138 77.2244C162.922 79.583 164.546 81.5575 165.93 83.3222C167.326 85.1015 168.495 86.6893 169.44 88.3507C171.309 91.6325 172.352 95.2775 172.352 101.311H174.102ZM162.533 76.1686C159.093 71.62 157.172 65.0981 155.203 58.0895C153.255 51.1585 151.267 43.7862 147.63 37.8687L146.139 38.7851C149.622 44.4509 151.55 51.5577 153.518 58.5628C155.464 65.4903 157.459 72.3616 161.138 77.2244L162.533 76.1686ZM147.63 37.8687C143.996 31.9549 139.605 27.848 134.183 25.2316C128.775 22.6215 122.403 21.5249 114.848 21.5249V23.2749C122.243 23.2749 128.33 24.3501 133.423 26.8077C138.502 29.259 142.655 33.1156 146.139 38.7851L147.63 37.8687ZM204.676 228.223C203.514 224.441 200.955 214.048 197.225 203.551C195.354 198.288 193.175 192.952 190.702 188.34C188.237 183.743 185.441 179.787 182.306 177.358L181.234 178.742C184.079 180.946 186.735 184.646 189.159 189.167C191.575 193.672 193.72 198.917 195.576 204.137C199.297 214.608 201.792 224.796 203.004 228.737L204.676 228.223ZM182.306 177.358C174.761 171.513 163.284 165.497 153.182 159.909C148.109 157.104 143.378 154.405 139.608 151.872C135.801 149.314 133.115 147.013 131.981 145.037L130.463 145.908C131.821 148.275 134.831 150.77 138.632 153.325C142.471 155.905 147.262 158.636 152.335 161.441C162.523 167.075 173.828 173.004 181.234 178.742L182.306 177.358ZM132.097 145.472V130.269H130.347V145.472H132.097ZM88.6467 48.9374C86.5359 55.7356 82.2091 68.6275 78.5579 76.1218L80.1311 76.8883C83.8471 69.261 88.2076 56.2533 90.318 49.4564L88.6467 48.9374ZM84.2645 108.375C86.5821 111.255 89.2014 114.354 92.1804 117.136L93.3748 115.857C90.4885 113.162 87.9314 110.141 85.628 107.278L84.2645 108.375ZM92.1804 117.136C97.4601 122.067 103.948 126.076 112 126.076V124.326C104.575 124.326 98.4956 120.64 93.3748 115.857L92.1804 117.136ZM139.796 107.278C137.269 110.418 134.196 113.77 130.667 116.664L131.777 118.017C135.427 115.023 138.584 111.576 141.159 108.375L139.796 107.278ZM130.667 116.664C125.324 121.047 119.005 124.326 112 124.326V126.076C119.564 126.076 126.267 122.537 131.777 118.017L130.667 116.664ZM90.5958 49.3909C97.5906 54.6654 114.789 62.941 137.691 60.9827L137.541 59.2391C115.117 61.1566 98.3392 53.0381 91.6494 47.9936L90.5958 49.3909ZM137.837 61.0658C138.909 63.4454 141.005 67.7853 142.621 69.9763L144.029 68.9376C142.541 66.9191 140.514 62.7473 139.433 60.3473L137.837 61.0658ZM142.621 69.9763C144.209 72.129 145.081 75.4436 145.309 76.838L147.036 76.555C146.79 75.0536 145.859 71.4182 144.029 68.9376L142.621 69.9763ZM78.3698 76.8886C78.353 77.4977 78.3425 78.1595 78.3398 78.865L80.0898 78.8717C80.0925 78.1791 80.1027 77.5313 80.1191 76.9369L78.3698 76.8886ZM79.8754 78.2945C78.8956 77.1666 77.2649 75.6055 75.544 74.6166C74.6853 74.1231 73.7407 73.7349 72.803 73.6592C71.8303 73.5807 70.8629 73.8427 70.0836 74.6351L71.3314 75.8621C71.6912 75.4962 72.1209 75.3599 72.6622 75.4036C73.2384 75.4501 73.9246 75.7043 74.6721 76.1339C76.1637 76.9911 77.6475 78.3983 78.5543 79.4421L79.8754 78.2945ZM70.0836 74.6351C68.4459 76.3004 67.7048 78.9029 67.5209 81.5219C67.335 84.1674 67.7046 86.9957 68.4522 89.2763L70.1151 88.7312C69.4388 86.668 69.0964 84.0666 69.2666 81.6445C69.4386 79.1958 70.1214 77.0925 71.3314 75.8621L70.0836 74.6351ZM80.5926 100.084C81.4493 103.37 82.6281 106.341 84.2645 108.375L85.628 107.278C84.2234 105.532 83.1212 102.846 82.286 99.6423L80.5926 100.084ZM68.4522 89.2763C69.189 91.5241 70.6886 94.7161 72.855 97.1827C75.0169 99.644 78.0023 101.544 81.6337 100.716L81.2449 99.0099C78.5216 99.6304 76.1412 98.2722 74.1698 96.0278C72.2031 93.7886 70.8021 90.827 70.1151 88.7312L68.4522 89.2763ZM145.298 76.7234C145.318 77.375 145.331 78.0952 145.334 78.8717L147.084 78.865C147.081 78.0741 147.068 77.3381 147.048 76.6696L145.298 76.7234ZM146.744 79.5608C147.658 78.8544 150.054 77.1526 152.265 76.0285L151.472 74.4686C149.126 75.6612 146.634 77.4344 145.674 78.1759L146.744 79.5608ZM152.265 76.0285C153.171 75.5681 154.366 75.953 155.539 77.0612C156.095 77.5863 156.573 78.2148 156.908 78.8251C157.252 79.4531 157.401 79.9813 157.401 80.3163H159.151C159.151 79.5653 158.855 78.7361 158.442 77.984C158.021 77.2143 157.431 76.4401 156.741 75.7888C155.423 74.5441 153.414 73.4811 151.472 74.4686L152.265 76.0285ZM157.401 80.3163C157.401 81.4017 157.4 83.5277 157.14 85.7339C156.874 87.9849 156.356 90.1322 155.436 91.3801L156.844 92.4189C158.06 90.771 158.61 88.2126 158.878 85.9389C159.151 83.6204 159.151 81.4026 159.151 80.3163H157.401ZM143.189 99.442C142.349 102.733 141.23 105.495 139.796 107.278L141.159 108.375C142.829 106.299 144.023 103.247 144.885 99.8753L143.189 99.442ZM155.436 91.3801C154.905 92.1006 154.175 93.2497 153.432 94.3126C152.653 95.4272 151.777 96.5749 150.811 97.5207C149.841 98.4714 148.832 99.1653 147.798 99.451C146.801 99.7263 145.712 99.643 144.487 98.9082L143.587 100.409C145.21 101.382 146.791 101.545 148.264 101.138C149.699 100.741 150.96 99.8249 152.036 98.7709C153.117 97.712 154.065 96.4605 154.866 95.3151C155.703 94.118 156.308 93.1464 156.844 92.4189L155.436 91.3801ZM174.102 130.269V101.311H172.352V130.269H174.102ZM93.6526 130.269V118.686H91.9026V130.269H93.6526ZM93.6526 118.686V116.497H91.9026V118.686H93.6526ZM92.0111 119.108C93.7028 122.18 96.8088 126.808 100.659 130.753C104.479 134.668 109.185 138.071 114.08 138.382L114.191 136.635C109.974 136.367 105.662 133.375 101.912 129.531C98.1914 125.719 95.1748 121.225 93.5441 118.264L92.0111 119.108ZM132.097 130.269V125.201H130.347V130.269H132.097ZM132.097 125.201V117.341H130.347V125.201H132.097ZM114.08 138.382C118.944 138.691 122.962 136.559 125.97 133.851C128.971 131.15 131.033 127.82 132.024 125.552L130.42 124.851C129.513 126.926 127.588 130.04 124.799 132.551C122.016 135.056 118.44 136.905 114.191 136.635L114.08 138.382ZM130.451 145.885C133.257 151.135 137.611 159.061 141.848 166.331C146.062 173.565 150.218 180.253 152.611 182.95L153.92 181.788C151.667 179.249 147.603 172.733 143.36 165.45C139.137 158.203 134.793 150.297 131.994 145.06L130.451 145.885ZM152.752 183.79C151.742 186.846 149.864 196.188 148.167 205.602C146.467 215.036 144.922 224.687 144.589 228.402L146.333 228.558C146.656 224.934 148.186 215.361 149.889 205.913C151.596 196.445 153.451 187.25 154.413 184.339L152.752 183.79ZM92.0059 145.06C89.2068 150.297 84.8629 158.203 80.6402 165.45C76.3964 172.733 72.3327 179.249 70.0795 181.788L71.3883 182.95C73.7819 180.253 77.9374 173.565 82.1523 166.331C86.3884 159.061 90.7429 151.135 93.5493 145.885L92.0059 145.06ZM69.5864 184.339C70.5483 187.25 72.4037 196.445 74.1103 205.913C75.8136 215.361 77.3433 224.934 77.6673 228.558L79.4104 228.402C79.0782 224.687 77.5331 215.036 75.8326 205.602C74.1355 196.188 72.258 186.846 71.248 183.79L69.5864 184.339ZM91.9026 145.472V159.227H93.6526V145.472H91.9026ZM92.247 159.923C95.1879 162.166 103.202 166.618 112 166.618V164.868C103.712 164.868 96.0628 160.632 93.3082 158.532L92.247 159.923ZM130.692 158.532C127.937 160.632 120.288 164.868 112 164.868V166.618C120.798 166.618 128.812 162.166 131.753 159.923L130.692 158.532ZM132.097 159.227V145.472H130.347V159.227H132.097ZM91.9026 159.227V170.087H93.6526V159.227H91.9026ZM91.9026 170.087V228.48H93.6526V170.087H91.9026ZM92.3022 170.821C95.0343 172.589 102.696 176.029 112 176.029V174.279C103.078 174.279 95.7418 170.963 93.253 169.352L92.3022 170.821ZM130.747 169.352C128.258 170.963 120.922 174.279 112 174.279V176.029C121.304 176.029 128.966 172.589 131.698 170.821L130.747 169.352ZM132.097 228.48V170.087H130.347V228.48H132.097ZM132.097 170.087V159.227H130.347V170.087H132.097ZM103.191 62.6836C100.875 62.0613 98.3881 62.0663 96.3373 62.0663V63.8163C98.4289 63.8163 100.681 63.8214 102.737 64.3737L103.191 62.6836ZM96.3373 62.0663C94.137 62.0663 91.8855 62.3339 89.9246 63.0624L90.534 64.7028C92.2332 64.0716 94.2596 63.8163 96.3373 63.8163V62.0663ZM122.687 64.3737C124.742 63.8214 126.995 63.8163 129.086 63.8163V62.0663C127.036 62.0663 124.549 62.0613 122.233 62.6836L122.687 64.3737ZM129.086 63.8163C131.164 63.8163 133.19 64.0716 134.89 64.7028L135.499 63.0624C133.538 62.3339 131.287 62.0663 129.086 62.0663V63.8163ZM78.3398 78.865C78.3304 81.3598 78.418 84.4101 78.6675 87.6235L80.4123 87.4881C80.1667 84.3258 80.0805 81.323 80.0898 78.8717L78.3398 78.865ZM78.6675 87.6235C78.9892 91.7662 79.5818 96.2059 80.5926 100.084L82.286 99.6423C81.3111 95.9021 80.7296 91.5748 80.4123 87.4881L78.6675 87.6235ZM71.5486 84.0775C72.3891 83.952 74.1539 84.0771 75.9457 85.1756L76.8604 83.6837C74.7074 82.3638 72.5254 82.1623 71.2903 82.3467L71.5486 84.0775ZM75.9457 85.1756C76.9358 85.7827 77.94 86.6904 78.8047 88.0303L80.2751 87.0813C79.266 85.5178 78.0706 84.4257 76.8604 83.6837L75.9457 85.1756ZM75.6503 83.9835C74.9821 85.1107 73.9937 86.5818 73.5977 88.1238C73.3923 88.9236 73.331 89.7828 73.5515 90.6703C73.7727 91.5604 74.2625 92.4187 75.0672 93.237L76.315 92.01C75.6958 91.3803 75.3847 90.7907 75.2499 90.2483C75.1144 89.7033 75.1421 89.1455 75.2927 88.5591C75.6086 87.3288 76.4 86.1508 77.1557 84.8758L75.6503 83.9835ZM145.334 78.8717C145.342 81.1365 145.27 83.8724 145.065 86.7701L146.81 86.8936C147.018 83.9497 147.093 81.1703 147.084 78.865L145.334 78.8717ZM145.065 86.7701C144.766 90.9898 144.19 95.5255 143.189 99.442L144.885 99.8753C145.921 95.8189 146.508 91.1691 146.81 86.8936L145.065 86.7701ZM146.657 87.3296C147.268 86.4465 148.303 85.2774 149.519 84.4335L148.522 82.9956C147.095 83.9853 145.919 85.3204 145.218 86.3341L146.657 87.3296ZM149.519 84.4335C151.105 83.3339 152.745 82.9329 154.225 83.9363L155.207 82.4878C152.837 80.8811 150.347 81.7297 148.522 82.9956L149.519 84.4335ZM148.382 84.3124C149.034 85.0095 149.925 86.2375 150.446 87.6034C150.969 88.976 151.065 90.3322 150.403 91.4549L151.91 92.3442C152.956 90.571 152.697 88.5956 152.081 86.9801C151.463 85.358 150.431 83.9414 149.66 83.1167L148.382 84.3124ZM109.701 77.4204C109.701 84.5478 104.023 90.3006 97.0492 90.3006V92.0506C105.017 92.0506 111.451 85.4866 111.451 77.4204H109.701ZM97.0492 90.3006C90.0756 90.3006 84.3974 84.5478 84.3974 77.4204H82.6474C82.6474 85.4866 89.0816 92.0506 97.0492 92.0506V90.3006ZM141.026 77.4204C141.026 84.5478 135.348 90.3006 128.374 90.3006V92.0506C136.342 92.0506 142.776 85.4866 142.776 77.4204H141.026ZM128.374 90.3006C121.401 90.3006 115.723 84.5478 115.723 77.4204H113.973C113.973 85.4866 120.407 92.0506 128.374 92.0506V90.3006ZM90.8669 65.9976C90.9636 65.9842 91.0617 65.971 91.1611 65.9579L90.9322 64.2229C90.8291 64.2365 90.7273 64.2503 90.6268 64.2642L90.8669 65.9976ZM102.24 65.6106C102.341 65.6167 102.442 65.6231 102.544 65.6298L102.659 63.8836C102.554 63.8767 102.45 63.8701 102.347 63.8638L102.24 65.6106ZM101.949 65.5416C106.499 67.4891 109.701 72.0705 109.701 77.4204H111.451C111.451 71.3588 107.821 66.1514 102.638 63.9328L101.949 65.5416ZM84.3974 77.4204C84.3974 72.3532 87.2703 67.975 91.4407 65.8716L90.6526 64.3091C85.9049 66.7037 82.6474 71.6786 82.6474 77.4204H84.3974ZM91.1611 65.9579C93.9633 65.5883 97.8137 65.341 102.24 65.6106L102.347 63.8638C97.7976 63.5868 93.8345 63.8401 90.9322 64.2229L91.1611 65.9579ZM122.88 65.6298C122.981 65.6231 123.083 65.6167 123.184 65.6106L123.077 63.8638C122.973 63.8701 122.869 63.8767 122.765 63.8836L122.88 65.6298ZM134.263 65.9579C134.362 65.971 134.46 65.9842 134.557 65.9976L134.797 64.2642C134.696 64.2503 134.595 64.2365 134.491 64.2229L134.263 65.9579ZM133.983 65.8716C138.153 67.975 141.026 72.3532 141.026 77.4204H142.776C142.776 71.6786 139.519 66.7037 134.771 64.3091L133.983 65.8716ZM115.723 77.4204C115.723 72.0705 118.925 67.4891 123.475 65.5416L122.786 63.9328C117.603 66.1514 113.973 71.3588 113.973 77.4204H115.723ZM134.491 64.2229C131.589 63.8401 127.626 63.5868 123.077 63.8638L123.184 65.6106C127.61 65.341 131.46 65.5883 134.263 65.9579L134.491 64.2229ZM111.067 78.1447C111.621 77.7692 113.062 77.2671 114.357 78.1447L115.339 76.6962C113.216 75.2571 110.955 76.1063 110.085 76.6962L111.067 78.1447ZM98.7157 99.1536C100.711 100.422 106.093 102.91 112 102.91V101.16C106.516 101.16 101.456 98.8217 99.6544 97.6766L98.7157 99.1536ZM112 102.91C117.898 102.91 123.744 100.427 125.957 99.1769L125.096 97.6533C123.038 98.816 117.493 101.16 112 101.16V102.91ZM111.186 81.4439C109.743 85.1104 109.145 88.1744 109.442 90.3869C109.592 91.5055 109.981 92.4782 110.682 93.1758C111.397 93.8874 112.346 94.2224 113.424 94.2224V92.4724C112.722 92.4724 112.247 92.2645 111.916 91.9354C111.572 91.5923 111.293 91.0266 111.176 90.1543C110.939 88.3851 111.409 85.6574 112.814 82.0845L111.186 81.4439ZM113.424 94.2224C115.928 94.2224 117.342 93.1534 117.769 92.2856L116.198 91.5134C116.199 91.5129 116.196 91.5177 116.19 91.5276C116.184 91.5374 116.175 91.5508 116.162 91.5675C116.136 91.6012 116.098 91.6447 116.045 91.6947C115.94 91.7947 115.783 91.9142 115.563 92.0295C115.126 92.2583 114.438 92.4724 113.424 92.4724V94.2224ZM131.059 77.4204C131.059 78.9502 129.843 80.1652 128.374 80.1652V81.9152C130.837 81.9152 132.809 79.889 132.809 77.4204H131.059ZM128.374 80.1652C126.906 80.1652 125.69 78.9502 125.69 77.4204H123.94C123.94 79.889 125.912 81.9152 128.374 81.9152V80.1652ZM125.69 77.4204C125.69 75.8907 126.906 74.6757 128.374 74.6757V72.9257C125.912 72.9257 123.94 74.9519 123.94 77.4204H125.69ZM128.374 74.6757C129.843 74.6757 131.059 75.8907 131.059 77.4204H132.809C132.809 74.9519 130.837 72.9257 128.374 72.9257V74.6757ZM99.7339 77.7216C99.7339 79.2514 98.5182 80.4664 97.0492 80.4664V82.2164C99.5122 82.2164 101.484 80.1902 101.484 77.7216H99.7339ZM97.0492 80.4664C95.5803 80.4664 94.3645 79.2514 94.3645 77.7216H92.6145C92.6145 80.1902 94.5863 82.2164 97.0492 82.2164V80.4664ZM94.3645 77.7216C94.3645 76.1919 95.5803 74.9769 97.0492 74.9769V73.2269C94.5863 73.2269 92.6145 75.2531 92.6145 77.7216H94.3645ZM97.0492 74.9769C98.5182 74.9769 99.7339 76.1919 99.7339 77.7216H101.484C101.484 75.2531 99.5122 73.2269 97.0492 73.2269V74.9769ZM134.89 64.7028C134.983 64.7373 134.934 64.7471 134.885 64.6531C134.831 64.55 134.836 64.4313 134.872 64.3474C134.94 64.1888 135.01 64.2936 134.797 64.2642L134.557 65.9976C135.358 66.1086 136.166 65.7675 136.479 65.0387C136.638 64.6697 136.641 64.2349 136.436 63.8424C136.236 63.459 135.886 63.206 135.499 63.0624L134.89 64.7028ZM89.9246 63.0624C89.5378 63.206 89.1879 63.459 88.9875 63.8424C88.7823 64.2349 88.7857 64.6697 88.9444 65.0387C89.2578 65.7675 90.0659 66.1086 90.8669 65.9976L90.6268 64.2642C90.4142 64.2936 90.4839 64.1888 90.5521 64.3474C90.5882 64.4313 90.5923 64.55 90.5384 64.6531C90.4893 64.7471 90.4411 64.7373 90.534 64.7028L89.9246 63.0624ZM122.233 62.6836C121.842 62.7884 121.476 62.998 121.237 63.3438C120.99 63.7006 120.931 64.1308 121.052 64.524C121.291 65.3053 122.094 65.6816 122.88 65.6298L122.765 63.8836C122.531 63.899 122.658 63.794 122.725 64.0108C122.759 64.1216 122.739 64.2488 122.676 64.34C122.62 64.4202 122.583 64.4015 122.687 64.3737L122.233 62.6836ZM70.0795 181.788C69.4672 182.478 69.3192 183.53 69.5864 184.339L71.248 183.79C71.1538 183.505 71.2361 183.121 71.3883 182.95L70.0795 181.788ZM152.611 182.95C152.764 183.121 152.846 183.505 152.752 183.79L154.413 184.339C154.681 183.53 154.533 182.478 153.92 181.788L152.611 182.95ZM137.691 60.9827C137.755 60.9771 137.814 61.015 137.837 61.0658L139.433 60.3473C139.101 59.6105 138.337 59.171 137.541 59.2391L137.691 60.9827ZM102.737 64.3737C102.841 64.4015 102.803 64.4202 102.748 64.34C102.685 64.2489 102.665 64.1216 102.699 64.0108C102.765 63.794 102.893 63.899 102.659 63.8836L102.544 65.6298C103.33 65.6816 104.132 65.3053 104.372 64.524C104.493 64.1308 104.434 63.7006 104.187 63.3438C103.947 62.998 103.581 62.7884 103.191 62.6836L102.737 64.3737ZM78.5579 76.1218C78.4408 76.362 78.3772 76.6214 78.3698 76.8886L80.1191 76.9369C80.1196 76.919 80.1232 76.9045 80.1311 76.8883L78.5579 76.1218ZM90.318 49.4564C90.3315 49.4129 90.3623 49.3784 90.4204 49.3607C90.4815 49.3422 90.5448 49.3525 90.5958 49.3909L91.6494 47.9936C90.6183 47.2162 89.0509 47.636 88.6467 48.9374L90.318 49.4564ZM53.1971 129.394C53.1281 129.394 53.0721 129.338 53.0721 129.269H51.3221C51.3221 130.305 52.1616 131.144 53.1971 131.144V129.394Z" fill="#242129"/>
</g>
</svg>
