<svg width="100" height="100" viewBox="0 0 100 100" fill="none" xmlns="http://www.w3.org/2000/svg">
<circle cx="50" cy="50" r="50" fill="#FF1369"/>
<mask id="mask0" mask-type="alpha" maskUnits="userSpaceOnUse" x="0" y="0" width="100" height="100">
<circle cx="50" cy="50" r="50" fill="#C4C4C4"/>
</mask>
<g mask="url(#mask0)">
<path d="M64.281 41.3907C64.5293 40.8906 65.0047 40.1532 65.631 39.5479C65.631 38.6337 65.7319 36.4314 66.1354 34.9364C66.6397 33.0677 66.6397 30.3496 66.1354 28.9906C67.8166 26.952 70.1703 21.9574 66.1354 18.288C61.0917 13.7012 51.6769 16.9289 45.6245 19.9868C45.2882 19.6472 45.6245 16.929 43.4389 17.4387C41.2533 17.9483 36.714 20.6664 37.2183 25.593C36.2656 26.4424 34.3603 28.7189 34.3603 31.0293C34.3603 33.9172 35.5371 38.0432 35.5371 39.7167C36.0805 40.2857 36.4934 40.9359 36.719 41.3902C36.706 40.0932 37.8908 36.7713 38.5633 35.2763C39.2358 33.7813 39.2918 29.5569 39.2358 27.8015C43.8312 29.9533 54.8376 33.9512 62.1004 31.369C62.1565 32.5582 62.2013 34.257 62.6048 35.6161C63.0083 36.9751 64.2878 40.7125 64.281 41.3907Z" fill="#242129"/>
<path fill-rule="evenodd" clip-rule="evenodd" d="M25.1135 80.2932C17.9852 84.2344 13.401 95.0729 12 99.9995H88.9999C87.5987 95.0727 83.0146 84.2348 75.8865 80.2937C73.0352 78.7172 70.4078 77.6974 68.1528 76.8947C66.0233 78.6506 59.5114 82.1619 50.5 82.1619C41.4886 82.1619 34.9767 78.6502 32.8472 76.8943C30.5922 77.697 27.9648 78.7167 25.1135 80.2932Z" fill="#242129"/>
<path d="M52.3493 34.5967C54.3668 34.0788 58.9061 33.6936 60.9236 36.2955C59.8588 35.7292 56.6533 34.5967 52.3493 34.5967Z" fill="#242129"/>
<path d="M48.6507 34.5967C46.6332 34.0788 42.0939 33.6936 40.0764 36.2955C41.1412 35.7292 44.3467 34.5967 48.6507 34.5967Z" fill="#242129"/>
<path d="M50.5 63.8147C48.6507 63.8147 46.2969 63.5429 44.1114 61.7761C42.8744 60.7762 41.7285 59.7993 40.7489 58.7608L41.0852 60.8489C42.5422 63.9067 46.5323 69.2527 52.1812 69.2527C56.3692 69.2527 58.5982 66.9495 59.608 64.9044C59.642 63.6716 59.7451 62.3224 59.9148 60.8493L60.2511 58.7612C59.2715 59.7997 58.1256 60.7766 56.8886 61.7765C54.7031 63.5433 52.3493 63.8147 50.5 63.8147Z" fill="#242129"/>
<path d="M45.2882 40.6329C45.2882 41.4773 44.6108 42.1618 43.7751 42.1618C42.9394 42.1618 42.262 41.4773 42.262 40.6329C42.262 39.7885 42.9394 39.104 43.7751 39.104C44.6108 39.104 45.2882 39.7885 45.2882 40.6329Z" fill="#242129"/>
<path d="M58.4017 40.6329C58.4017 41.4773 57.7243 42.1618 56.8886 42.1618C56.053 42.1618 55.3755 41.4773 55.3755 40.6329C55.3755 39.7885 56.053 39.104 56.8886 39.104C57.7243 39.104 58.4017 39.7885 58.4017 40.6329Z" fill="#242129"/>
<path d="M40.7489 58.7608C41.7285 59.7993 42.8744 60.7762 44.1114 61.7761C46.2969 63.5429 48.6507 63.8147 50.5 63.8147C52.3493 63.8147 54.7031 63.5433 56.8886 61.7765C58.1256 60.7766 59.2715 59.7997 60.2511 58.7612M40.7489 58.7608C39.0656 56.9763 37.8734 55.0099 37.5546 52.4325C37.4372 51.4834 37.3289 50.5896 37.2318 49.7145M40.7489 58.7608C40.8389 59.3199 41.0031 60.3392 41.0852 60.8489M40.7489 58.7608L41.0852 60.8489M36.719 41.3902C36.7515 44.647 36.9414 47.0966 37.2318 49.7145M36.719 41.3902C36.4934 40.9359 36.0804 40.2857 35.5371 39.7167M36.719 41.3902C36.706 40.0932 37.8908 36.7713 38.5633 35.2763C39.2358 33.7813 39.2918 29.5569 39.2358 27.8015C43.8312 29.9533 54.8376 33.9512 62.1004 31.369C62.1565 32.5582 62.2013 34.257 62.6048 35.6161C63.0083 36.9751 64.2878 40.7125 64.281 41.3907M37.2318 49.7145C37.2273 49.9976 36.9493 50.5639 35.8734 50.5639C34.5284 50.5639 31.5022 46.6566 31.1659 44.4482C30.8297 42.2397 30.8297 38.6721 33.0153 38.5022C33.9844 38.4269 34.8615 39.0091 35.5371 39.7167M36.5459 75.5823C37.7787 76.5863 42.2956 78.9347 50.5 78.9347C58.7044 78.9347 63.2213 76.5868 64.4542 75.5827M36.5459 75.5823C35.867 75.8412 35.1177 76.1014 34.3067 76.383C33.8401 76.545 33.353 76.7142 32.8472 76.8943M36.5459 75.5823C40.7489 73.9792 42.0939 69.6031 41.0852 60.8489M32.8472 76.8943C30.5922 77.697 27.9648 78.7167 25.1135 80.2932C17.9852 84.2344 13.401 95.0729 12 99.9995H88.9999M32.8472 76.8943C34.9767 78.6502 41.4886 82.1619 50.5 82.1619C59.5114 82.1619 66.0233 78.6506 68.1528 76.8947M89 100L88.9999 99.9995M60.2511 58.7612C61.9344 56.9767 63.1266 55.0103 63.4454 52.433C63.5628 51.4839 63.6711 50.59 63.7682 49.715M60.2511 58.7612L59.9148 60.8493C59.7451 62.3224 59.642 63.6716 59.608 64.9044M64.281 41.3907C64.2485 44.6475 64.0586 47.0971 63.7682 49.715M64.281 41.3907C64.5293 40.8906 65.0047 40.1532 65.631 39.5479M63.7682 49.715C63.7727 49.9981 64.0507 50.5644 65.1266 50.5644C66.4716 50.5644 69.4978 46.6571 69.8341 44.4486C70.1703 42.2402 70.1703 38.6726 67.9847 38.5027C67.0941 38.4335 66.2812 38.9196 65.631 39.5479M64.4542 75.5827C65.133 75.8416 65.8823 76.1018 66.6933 76.3835C67.16 76.5455 67.647 76.7146 68.1528 76.8947M64.4542 75.5827C60.9584 74.2494 59.4397 70.9978 59.608 64.9044M68.1528 76.8947C70.4078 77.6974 73.0352 78.7172 75.8865 80.2937C83.0146 84.2348 87.5987 95.0727 88.9999 99.9995M65.631 39.5479C65.631 38.6337 65.7319 36.4314 66.1354 34.9364C66.6397 33.0677 66.6397 30.3496 66.1354 28.9905C67.8166 26.952 70.1703 21.9574 66.1354 18.288C61.0917 13.7012 51.6769 16.9289 45.6245 19.9868C45.2882 19.6472 45.6245 16.929 43.4389 17.4387C41.2533 17.9483 36.714 20.6664 37.2183 25.593C36.2656 26.4424 34.3603 28.7189 34.3603 31.0293C34.3603 33.9172 35.5371 38.0432 35.5371 39.7167M41.0852 60.8489C42.5422 63.9067 46.5323 69.2527 52.1812 69.2527C56.3692 69.2527 58.5982 66.9495 59.608 64.9044M43.7751 51.2452C46.1849 52.1513 52.2485 53.4197 57.2249 51.2452M49.4913 44.6198V46.1488C49.4913 46.9982 49.6258 48.697 50.8362 48.697C52.0467 48.697 52.1812 48.0175 52.1812 47.6777M52.3493 34.5967C54.3668 34.0788 58.9061 33.6936 60.9236 36.2955C59.8588 35.7292 56.6533 34.5967 52.3493 34.5967ZM48.6507 34.5967C46.6332 34.0788 42.0939 33.6936 40.0764 36.2955C41.1412 35.7292 44.3467 34.5967 48.6507 34.5967ZM45.2882 40.6329C45.2882 41.4773 44.6108 42.1618 43.7751 42.1618C42.9394 42.1618 42.262 41.4773 42.262 40.6329C42.262 39.7885 42.9394 39.104 43.7751 39.104C44.6108 39.104 45.2882 39.7885 45.2882 40.6329ZM58.4017 40.6329C58.4017 41.4773 57.7243 42.1618 56.8886 42.1618C56.053 42.1618 55.3755 41.4773 55.3755 40.6329C55.3755 39.7885 56.053 39.104 56.8886 39.104C57.7243 39.104 58.4017 39.7885 58.4017 40.6329Z" stroke="#242129" stroke-width="0.5" stroke-linecap="round" stroke-linejoin="round"/>
</g>
</svg>
