<svg width="349" height="412" viewBox="0 0 349 412" fill="none" xmlns="http://www.w3.org/2000/svg">
<path d="M191.629 266.328C190.672 266.88 190.344 268.103 190.897 269.06L223.919 326.256C224.383 327.06 224.197 328.107 223.537 328.76C187.683 364.24 243.683 397.682 261.876 357.299C262.25 356.469 263.169 355.94 264.074 356.032C308.043 360.507 303.97 297.296 258.5 308.603C257.613 308.823 256.64 308.456 256.183 307.665L223.145 250.441C222.593 249.485 221.37 249.157 220.413 249.709L206.021 258.019L191.629 266.328Z" fill="#FBE2C0"/>
<path d="M222.061 248.044C228.845 244.127 231.027 241.325 225.344 230.024C218.527 216.466 225.077 212.625 219.955 204.142C219.547 203.466 219.516 202.617 219.882 201.917C222.71 196.499 225.144 186.218 216.71 179.631C215.948 179.035 215.621 178.011 215.893 177.082C216.647 174.507 217.21 170.525 215.909 167.121C215.587 166.277 215.703 165.301 216.286 164.612C220.884 159.174 225.507 148.054 215.765 138.958C214.711 137.973 214.802 136.169 215.846 135.173C219.939 131.267 221.858 124.582 218.522 119.028C217.816 117.852 218.143 116.196 219.18 115.299C227.213 108.348 224.244 88.5913 209.107 86.8651C208.199 86.7615 207.426 86.1288 207.143 85.2597C205.425 79.9765 200.149 71.6334 189.969 71.3045C188.929 71.2709 188.017 70.5385 187.773 69.5267C186.216 63.0698 180.761 53.4965 168.267 54.9954C167.431 55.0957 166.615 54.7153 166.175 53.9967C163.382 49.4289 152.702 34.4501 136.861 46.2757C136.014 46.9078 134.818 46.8479 134.024 46.1505C128.671 41.4478 117.77 36.3417 107.298 45.4525C106.691 45.9807 105.838 46.1359 105.077 45.8739C100.773 44.3916 93.0704 43.382 88.2084 48.3898C87.7795 48.8316 87.2008 49.1033 86.5853 49.1181C79.269 49.2933 67.167 53.4827 69.2773 69.2591C69.3958 70.1444 68.9617 71.0184 68.1847 71.4589C62.7569 74.5359 54.6097 81.4485 55.8847 90.012C56.0112 90.862 55.6913 91.7343 55.0182 92.2685C49.7155 96.4775 42.6954 106.608 47.4948 117.53C47.7842 118.189 47.7435 118.947 47.3894 119.574C44.9841 123.828 42.327 132.325 46.8142 139.793C47.2336 140.491 47.2612 141.364 46.8849 142.086C44.3847 146.885 42.1941 156.441 49.1203 164.903C49.6969 165.608 49.7865 166.602 49.4552 167.45C46.655 174.616 49.1216 192.055 64.8974 193.591C65.6195 193.662 66.2716 194.08 66.6471 194.701C68.4288 197.647 72.3041 202.057 77.5682 202.75C78.2879 202.845 78.9438 203.237 79.3067 203.865C83.2602 210.713 92.6856 221.314 103.752 217.286C104.531 217.002 105.416 217.144 106.029 217.702C110.649 221.907 119.168 227.869 125.286 226.45C126.544 226.158 128.03 226.62 128.583 227.786C131.806 234.572 139.143 243.786 149.866 242.753C168.816 240.926 169.823 278.204 189.625 266.771L205.843 257.408L222.061 248.044Z" fill="#F29200"/>
<path d="M83.8306 107.708C82.0951 113.617 82.094 126.098 95.9739 128.741M168.591 97.682C173.524 99.7417 183.01 107.095 181.493 120.029M144.724 190.686C143.541 196.743 144.376 209.536 157.171 212.244M89.1362 153.371C86.5233 159.787 91.8553 173.885 101.887 175.455" stroke="#6E3600" stroke-width="12" stroke-linecap="round"/>
</svg>
