<svg width="159" height="183" viewBox="0 0 159 183" fill="none" xmlns="http://www.w3.org/2000/svg">
<path fill-rule="evenodd" clip-rule="evenodd" d="M134.54 24.4302C134.54 17.6756 140.015 12.2 146.77 12.2H152.9C156.269 12.2 159 9.46894 159 6.1C159 2.73106 156.269 0 152.9 0H6.1C2.73106 0 0 2.73106 0 6.1C0 9.46894 2.73106 12.2 6.1 12.2H12.2308C18.9856 12.2 24.4615 17.6759 24.4615 24.4308V56.9932C24.4615 65.0823 27.683 72.8401 33.4173 78.56L42.0658 87.1867C44.454 89.5688 44.454 93.4311 42.0658 95.8133L29.835 108.013C26.3944 111.445 24.4615 116.1 24.4615 120.953V158.569C24.4615 165.324 18.9856 170.8 12.2308 170.8H6.1C2.73106 170.8 0 173.531 0 176.9C0 180.269 2.73107 183 6.10001 183H152.9C156.269 183 159 180.269 159 176.9C159 173.531 156.269 170.8 152.9 170.8H146.77C140.015 170.8 134.54 165.324 134.54 158.57V120.953C134.54 116.1 132.607 111.445 129.166 108.013L116.935 95.8133C114.547 93.4311 114.547 89.5688 116.935 87.1867L129.166 74.9866C132.607 71.5547 134.54 66.9 134.54 62.0466V24.4302ZM37.0736 60.7052C37.9591 64.9689 42.3614 67.1 46.7161 67.1H118.728C119.399 67.1 120.043 66.8339 120.518 66.3599C121.665 65.216 122.309 63.6644 122.309 62.0466V25.2C122.309 18.0203 116.489 12.2 109.309 12.2H49.6923C42.5126 12.2 36.6923 18.0203 36.6923 25.2V56.9932C36.6923 58.2498 36.8219 59.493 37.0736 60.7052Z" fill="#FF1369"/>
<path d="M80 31.5C80 35.0899 77.0899 38 73.5 38C69.9101 38 67 35.0899 67 31.5C67 27.9101 69.9101 25 73.5 25C77.0899 25 80 27.9101 80 31.5Z" fill="#FF1369"/>
<path d="M92 42.5C92 44.9853 89.9853 47 87.5 47C85.0147 47 83 44.9853 83 42.5C83 40.0147 85.0147 38 87.5 38C89.9853 38 92 40.0147 92 42.5Z" fill="#FF1369"/>
<path d="M80 51.5C80 53.433 78.433 55 76.5 55C74.567 55 73 53.433 73 51.5C73 49.567 74.567 48 76.5 48C78.433 48 80 49.567 80 51.5Z" fill="#FF1369"/>
</svg>
