<svg width="299" height="326" viewBox="0 0 299 326" fill="none" xmlns="http://www.w3.org/2000/svg">
<path d="M298.737 281.314C298.878 281.982 194.288 371.807 0 294.878L17.5883 256.926C39.9734 255.98 53.1488 274.671 73.2693 281.488C93.7147 289.036 109.575 281.495 129.907 278.595C149.57 275.835 164.848 288.664 183.74 288.861C201.154 288.671 205.643 270.269 221.964 268.216C232.13 266.765 246.099 270.097 255.841 266.642C265.155 263.338 272.438 253.446 278.373 245.969L298.737 281.314Z" fill="#FBE2C0"/>
<path fill-rule="evenodd" clip-rule="evenodd" d="M129.907 278.595C109.575 281.495 93.7147 289.036 73.2694 281.488C53.1489 274.671 39.9735 255.979 17.5884 256.926L136.657 -3.05176e-05L278.373 245.969C272.438 253.446 265.155 263.338 255.841 266.641C246.099 270.097 232.13 266.765 221.964 268.216C205.643 270.269 201.154 288.671 183.74 288.861C164.848 288.664 149.57 275.835 129.907 278.595ZM113.758 185.662C129.694 185.087 143.353 196.862 143.928 212.798C144.503 228.734 132.729 242.393 116.793 242.968C100.857 243.543 87.1976 231.768 86.6224 215.832C86.0472 199.896 97.8219 186.237 113.758 185.662ZM195.377 188.659C209.976 188.366 222.157 199.755 223.119 214.213C223.552 229.481 212.164 241.662 197.705 242.623C183.106 242.915 170.925 231.527 169.964 217.068C169.53 201.801 180.778 188.951 195.377 188.659ZM142.547 110.461C156.337 109.641 167.708 120.503 168.528 134.293C168.68 148.224 158.486 159.454 144.696 160.274C130.906 161.094 119.535 150.232 118.715 136.442C117.895 122.652 128.757 111.281 142.547 110.461Z" fill="#FFBF43"/>
<path d="M223.118 214.213C222.157 199.755 209.976 188.366 195.377 188.659C180.777 188.951 169.53 201.801 169.964 217.069C170.925 231.527 183.106 242.916 197.705 242.623C212.163 241.662 223.552 229.481 223.118 214.213Z" fill="#FF1369"/>
<path d="M143.928 212.798C143.353 196.862 129.694 185.087 113.758 185.662C97.8217 186.237 86.047 199.896 86.6222 215.832C87.1975 231.768 100.856 243.543 116.792 242.968C132.728 242.393 144.503 228.734 143.928 212.798Z" fill="#FF1369"/>
<path d="M168.528 134.293C167.708 120.503 156.337 109.641 142.547 110.461C128.757 111.281 117.895 122.652 118.715 136.442C119.535 150.232 130.906 161.094 144.696 160.274C158.486 159.454 168.679 148.224 168.528 134.293Z" fill="#FF1369"/>
</svg>
