<svg width="425" height="337" viewBox="0 0 425 337" fill="none" xmlns="http://www.w3.org/2000/svg">
<path d="M422.075 222.562C422.075 259.854 395.091 334.439 287.153 334.439C179.215 334.439 152.231 259.854 152.231 222.562C152.231 225.729 153.363 228.815 155.507 231.781C169.03 250.487 222.836 264.464 287.153 264.464C344.34 264.464 393.216 253.415 412.857 237.815C415.306 235.87 417.3 233.855 418.799 231.781C420.944 228.815 422.075 225.729 422.075 222.562Z" fill="#F5B88C"/>
<path d="M287.153 180.661C361.668 180.661 422.075 199.421 422.075 222.562C422.075 225.729 420.944 228.815 418.799 231.781C426.372 221.305 392.074 197.841 287.153 197.841C182.232 197.841 147.934 221.305 155.507 231.781C153.363 228.815 152.231 225.729 152.231 222.562C152.231 199.421 212.638 180.661 287.153 180.661Z" fill="#F5B88C"/>
<path d="M287.153 197.841C392.074 197.841 426.372 221.306 418.799 231.781C417.3 233.855 415.306 235.871 412.857 237.816C393.216 253.415 344.34 264.464 287.153 264.464C222.836 264.464 169.03 250.487 155.507 231.781C147.934 221.306 182.232 197.841 287.153 197.841Z" fill="#EC5050" stroke="#FF9950" stroke-width="5" stroke-linecap="round" stroke-linejoin="round"/>
<path d="M297.501 151.724L28.252 4.21521C25.2627 6.14157 19.1789 11.6013 18.7574 18.0293L293.512 156.829C295.051 156.455 298.002 154.909 297.501 151.724Z" fill="#B37C5D" stroke="#8B4F2D" stroke-width="5" stroke-linejoin="round"/>
<path d="M152.231 222.562C152.231 199.421 212.638 180.661 287.153 180.661C361.668 180.661 422.075 199.421 422.075 222.562" stroke="#FF9950" stroke-width="5" stroke-linecap="round" stroke-linejoin="round"/>
<path d="M285.896 225.914C287.572 201.332 289.919 147.224 285.896 142.531C284.66 141.089 280.868 136.664 275.002 137.922C273.326 132.474 267.04 130.798 264.945 132.474C259.079 124.513 252.794 124.932 250.28 127.865C249.694 123.57 244.833 120.742 242.319 121.999C241.062 117.39 236.07 115.816 235.196 117.39C231.005 124.932 229.329 219.21 229.329 225.914C229.329 227.345 231.582 228.49 235.196 229.336C237.809 229.948 241.134 230.404 244.833 230.698C249.241 231.05 254.18 231.173 259.079 231.06C263.592 230.955 268.071 230.651 272.069 230.139C278.64 229.298 283.911 227.899 285.896 225.914Z" fill="#FFBF43"/>
<path d="M275.002 137.922C280.868 136.664 284.66 141.089 285.896 142.531C289.919 147.224 287.572 201.332 285.896 225.914C283.911 227.899 278.64 229.298 272.069 230.139M275.002 137.922C273.326 132.474 267.04 130.798 264.945 132.474M275.002 137.922C274.583 147.838 273.996 162.895 275.002 173.957C276.64 191.974 271.65 204.614 272.069 230.139M264.945 132.474C259.079 124.513 252.794 124.932 250.28 127.865M264.945 132.474C265.364 137.922 265.951 151.665 264.945 163.062C263.688 177.309 262.431 186.108 262.431 199.517C262.431 212.925 258.241 226.987 259.079 231.06M250.28 127.865C250.699 131.636 251.286 143.956 250.28 163.062C249.023 186.946 247.347 194.907 248.185 206.221C249.023 217.534 244.833 225.426 244.833 230.698M250.28 127.865C249.694 123.57 244.833 120.742 242.319 121.999M272.069 230.139C268.071 230.651 263.592 230.955 259.079 231.06M259.079 231.06C254.18 231.173 249.241 231.05 244.833 230.698M244.833 230.698C241.134 230.404 237.809 229.948 235.196 229.336M242.319 121.999C241.062 117.39 236.07 115.816 235.196 117.39C231.005 124.932 229.329 219.21 229.329 225.914C229.329 227.345 231.582 228.49 235.196 229.336M242.319 121.999C241.062 123.536 238.464 128.201 238.129 134.57C237.71 142.531 239.386 156.358 238.129 168.51C236.872 180.661 233.938 199.936 235.196 211.668C236.201 221.054 235.615 227.357 235.196 229.336" stroke="#F29200" stroke-width="5" stroke-linejoin="round"/>
<path d="M287.153 264.464C222.836 264.464 169.03 250.487 155.507 231.781C164.23 231.781 170.313 221.926 178.629 220.886C188.685 219.629 189.104 223.819 204.189 223.819C219.273 223.819 218.854 217.115 227.653 217.115C236.453 217.115 233.938 221.724 246.928 223.819C259.917 225.914 257.403 217.953 269.555 218.372C281.706 218.791 281.706 225.495 290.924 227.172C300.142 228.848 303.075 219.21 314.808 220.467C326.54 221.724 326.121 227.591 339.53 228.848C352.938 230.105 353.357 219.629 368.022 222.143C382.688 224.657 380.174 231.781 394.001 230.105C405.063 228.764 411.181 234.687 412.857 237.816C393.216 253.415 344.34 264.464 287.153 264.464Z" fill="#FFBF43"/>
<path d="M187.847 244.77C201.675 246.446 199.16 239.323 213.826 236.809C228.491 234.295 228.91 244.77 242.319 243.513C255.727 242.256 255.308 236.39 267.04 235.133C278.773 233.876 281.706 243.513 290.924 241.837C300.142 240.161 300.142 233.457 312.294 233.038C324.445 232.619 321.931 240.58 334.92 238.485M355.452 248.96C349.726 247.843 335.088 247.117 322.35 253.15C306.428 260.693 295.533 250.636 282.544 248.96C269.555 247.284 267.04 254.826 257.822 255.245M287.153 264.464C222.836 264.464 169.03 250.487 155.507 231.781C164.23 231.781 170.313 221.926 178.629 220.886C188.685 219.629 189.104 223.819 204.189 223.819C219.273 223.819 218.854 217.115 227.653 217.115C236.453 217.115 233.938 221.724 246.928 223.819C259.917 225.914 257.403 217.953 269.555 218.372C281.706 218.791 281.706 225.495 290.924 227.172C300.142 228.848 303.075 219.21 314.808 220.467C326.54 221.724 326.121 227.591 339.53 228.848C352.938 230.105 353.357 219.629 368.022 222.143C382.688 224.657 380.174 231.781 394.001 230.105C405.063 228.764 411.181 234.687 412.857 237.816C393.216 253.415 344.34 264.464 287.153 264.464Z" stroke="#F29200" stroke-width="5" stroke-linecap="round" stroke-linejoin="round"/>
<path d="M287.153 334.439C395.091 334.439 422.075 259.855 422.075 222.562C422.075 225.73 420.944 228.815 418.799 231.781C417.3 233.855 415.306 235.871 412.857 237.816C393.216 253.415 344.34 264.464 287.153 264.464C222.836 264.464 169.03 250.487 155.507 231.781C153.363 228.815 152.231 225.73 152.231 222.562C152.231 259.855 179.215 334.439 287.153 334.439Z" stroke="#FF9950" stroke-width="5" stroke-linecap="round" stroke-linejoin="round"/>
<path d="M289.667 162.225L9.76696 53.7007C7.25289 56.3544 2.39235 63.4218 3.06277 70.4612L286.734 168.51C288.131 167.812 290.673 165.577 289.667 162.225Z" fill="#B37C5D" stroke="#8B4F2D" stroke-width="5" stroke-linejoin="round"/>
</svg>
