<svg width="70" height="70" viewBox="0 0 70 70" fill="none" xmlns="http://www.w3.org/2000/svg">
<path fill-rule="evenodd" clip-rule="evenodd" d="M33.1406 9.04429C34.407 7.6519 36.593 7.6519 37.8593 9.04429C46.4122 18.448 49.4711 27.475 49.3372 35.4413C53.1714 33.5992 57.9415 32.7326 64.7435 32.6006C66.7617 32.5614 68.3079 34.388 67.9477 36.373C66.6903 43.3004 64.2671 48.3669 61.2054 52.0407C58.1421 55.7164 54.5044 57.9202 50.9379 59.2184C44.9434 61.4002 38.9978 61.0314 36.4807 60.8752C36.0455 60.8482 35.7128 60.8276 35.5 60.8276C35.2872 60.8276 34.9545 60.8482 34.5193 60.8752C32.0022 61.0314 26.0566 61.4002 20.0621 59.2184C16.4956 57.9202 12.8579 55.7164 9.79458 52.0407C6.73286 48.3669 4.30966 43.3004 3.05234 36.373C2.69206 34.388 4.23825 32.5614 6.25645 32.6006C13.0585 32.7326 17.8285 33.5992 21.6628 35.4413C21.5289 27.475 24.5878 18.448 33.1406 9.04429ZM21.9848 39.3302C18.5277 37.1591 14.013 36.0141 6.26271 35.8574C7.44003 42.2911 9.65506 46.7924 12.29 49.9541C14.9325 53.1249 18.0619 55.026 21.1723 56.1581C24.9665 57.5391 28.6549 57.7717 31.4252 57.7368C27.2618 53.5119 23.151 47.1431 21.9848 39.3302ZM39.5748 57.7368C42.3451 57.7717 46.0335 57.5391 49.8277 56.1581C52.9381 55.026 56.0675 53.1249 58.71 49.9541C61.3449 46.7924 63.56 42.2911 64.7373 35.8574C56.987 36.0141 52.4723 37.1591 49.0152 39.3302C47.849 47.1431 43.7382 53.5119 39.5748 57.7368ZM35.5 57.0986C39.9216 53.2985 44.8546 46.5905 45.892 38.1759C46.8299 30.5689 44.6161 21.3298 35.5 11.2851C26.3839 21.3298 24.1701 30.5689 25.108 38.1759C26.1454 46.5905 31.0784 53.2985 35.5 57.0986Z" fill="#FF1369" stroke="#FF1369" stroke-width="3" stroke-linecap="round"/>
</svg>
