<svg width="69" height="57" viewBox="0 0 69 57" fill="none" xmlns="http://www.w3.org/2000/svg">
<path fill-rule="evenodd" clip-rule="evenodd" d="M32.1406 3.04429C33.407 1.6519 35.593 1.6519 36.8593 3.04429C45.4122 12.448 48.4711 21.475 48.3372 29.4413C52.1714 27.5992 56.9415 26.7326 63.7435 26.6006C65.7617 26.5614 67.3079 28.388 66.9477 30.373C65.6903 37.3004 63.2671 42.3669 60.2054 46.0407C57.1421 49.7164 53.5044 51.9202 49.9379 53.2184C43.9434 55.4002 37.9978 55.0314 35.4807 54.8752C35.0455 54.8482 34.7128 54.8276 34.5 54.8276C34.2872 54.8276 33.9545 54.8482 33.5193 54.8752C31.0022 55.0314 25.0566 55.4002 19.0621 53.2184C15.4956 51.9202 11.8579 49.7164 8.79458 46.0407C5.73286 42.3669 3.30966 37.3004 2.05234 30.373C1.69206 28.388 3.23825 26.5614 5.25645 26.6006C12.0585 26.7326 16.8285 27.5992 20.6628 29.4413C20.5289 21.475 23.5878 12.448 32.1406 3.04429ZM20.9848 33.3302C17.5277 31.1591 13.013 30.0141 5.26271 29.8574C6.44003 36.2911 8.65506 40.7924 11.29 43.9541C13.9325 47.1249 17.0619 49.026 20.1723 50.1581C23.9665 51.5391 27.6549 51.7717 30.4252 51.7368C26.2618 47.5119 22.151 41.1431 20.9848 33.3302ZM38.5748 51.7368C41.3451 51.7717 45.0335 51.5391 48.8277 50.1581C51.9381 49.026 55.0675 47.1249 57.71 43.9541C60.3449 40.7924 62.56 36.2911 63.7373 29.8574C55.987 30.0141 51.4723 31.1591 48.0152 33.3302C46.849 41.1431 42.7382 47.5119 38.5748 51.7368ZM34.5 51.0986C38.9216 47.2985 43.8546 40.5905 44.892 32.1759C45.8299 24.5689 43.6161 15.3298 34.5 5.28508C25.3839 15.3298 23.1701 24.5689 24.108 32.1759C25.1454 40.5905 30.0784 47.2985 34.5 51.0986Z" fill="#FF1369" stroke="#FF1369" stroke-width="3" stroke-linecap="round"/>
</svg>
